<svg width="25" height="25" viewBox="0 0 25 25" fill="none" xmlns="http://www.w3.org/2000/svg">
<mask id="mask0_742_527" style="mask-type:alpha" maskUnits="userSpaceOnUse" x="0" y="1" width="25" height="22">
<path fill-rule="evenodd" clip-rule="evenodd" d="M0.75 8.0349C0.75 4.46193 3.67257 1.5874 7.25 1.5874C9.13471 1.5874 10.7293 2.59583 11.7598 3.45C12.036 3.67888 12.284 3.90699 12.5 4.11936C12.716 3.90699 12.964 3.67888 13.2402 3.45C14.2707 2.59583 15.8653 1.5874 17.75 1.5874C21.3274 1.5874 24.25 4.46193 24.25 8.0349C24.25 9.37469 23.9802 11.5519 22.4931 14.1318C21.0101 16.7045 18.3558 19.6098 13.6922 22.4768L13.6873 22.4798C13.3296 22.6975 12.9188 22.8126 12.5 22.8126C12.0812 22.8126 11.6704 22.6975 11.3127 22.4798L11.3078 22.4768C6.64418 19.6098 3.98987 16.7045 2.50687 14.1318C1.01975 11.5519 0.75 9.37469 0.75 8.0349ZM13.5014 6.73559C13.2654 7.0514 12.8943 7.2374 12.5 7.2374C12.1062 7.2374 11.7355 7.05184 11.4995 6.73669C11.4992 6.73633 11.4989 6.73596 11.4986 6.73559L11.499 6.73607L11.4995 6.73669L11.4995 6.7368L11.5 6.73744C11.5001 6.7375 11.4996 6.73683 11.4985 6.73546L11.4858 6.71898C11.4731 6.70261 11.452 6.6758 11.423 6.64004C11.3648 6.56841 11.2753 6.46157 11.1581 6.33128C10.9222 6.06908 10.5816 5.72051 10.1645 5.3748C9.29478 4.65397 8.26434 4.0874 7.25 4.0874C5.02933 4.0874 3.25 5.86647 3.25 8.0349C3.25 9.01246 3.43962 10.7439 4.6728 12.8833C5.89901 15.0105 8.19543 17.6074 12.5 20.2748C16.8046 17.6074 19.101 15.0105 20.3272 12.8833C21.5604 10.7439 21.75 9.01246 21.75 8.0349C21.75 5.86647 19.9707 4.0874 17.75 4.0874C16.7357 4.0874 15.7052 4.65397 14.8355 5.3748C14.4184 5.72051 14.0778 6.06908 13.8419 6.33128C13.7247 6.46157 13.6352 6.56841 13.577 6.64004C13.548 6.6758 13.5269 6.70261 13.5142 6.71898L13.5015 6.73546C13.5008 6.73637 13.5003 6.73697 13.5001 6.73726L13.5005 6.7368L13.501 6.73607L13.5014 6.73559Z" fill="#006FFD"/>
</mask>
<g mask="url(#mask0_742_527)">
<rect x="0.5" y="0.199951" width="24" height="24" fill="#263238"/>
</g>
</svg>
