<svg width="260" height="259" viewBox="0 0 260 259" fill="none" xmlns="http://www.w3.org/2000/svg">
<rect width="259" height="259" transform="translate(0.5)" fill="white"/>
<path d="M101.712 48.4537H70.1919V86.6873H101.712V48.4537Z" fill="#EBEBEB"/>
<path d="M98.1069 51.9398H73.792V83.1959H98.1069V51.9398Z" fill="white"/>
<path d="M98.1066 51.9398H97.1587V83.1959H98.1066V51.9398Z" fill="#C7C7C7"/>
<path d="M70.1916 48.4537H69.2437V86.6873H70.1916V48.4537Z" fill="#C7C7C7"/>
<path d="M85.4105 59.166H79.6763V76.2497H85.4105V59.166Z" fill="#EBEBEB"/>
<path d="M92.7042 64.8795H76.9155V55.9906H92.7042V64.8795ZM77.418 64.3615H92.1862V56.5086H77.4335L77.418 64.3615Z" fill="#EBEBEB"/>
<path d="M190.756 48.4537H159.236V86.6873H190.756V48.4537Z" fill="#EBEBEB"/>
<path d="M187.156 51.9398H162.841V83.1959H187.156V51.9398Z" fill="white"/>
<path d="M187.156 51.9398H186.208V83.1959H187.156V51.9398Z" fill="#C7C7C7"/>
<path d="M159.236 48.4537H158.288V86.6873H159.236V48.4537Z" fill="#C7C7C7"/>
<path d="M179.008 59.166H173.273V76.2497H179.008V59.166Z" fill="#EBEBEB"/>
<path d="M181.769 64.8795H165.959V55.9906H181.769V64.8795ZM166.477 64.3615H181.251V56.5086H166.477V64.3615Z" fill="#EBEBEB"/>
<path d="M145.845 54.6801H114.325V92.9136H145.845V54.6801Z" fill="#EBEBEB"/>
<path d="M142.246 58.1714H117.931V89.4275H142.246V58.1714Z" fill="white"/>
<path d="M142.245 58.1714H141.297V89.4275H142.245V58.1714Z" fill="#C7C7C7"/>
<path d="M114.325 54.6801H113.377V92.9136H114.325V54.6801Z" fill="#C7C7C7"/>
<path d="M132.44 66.2471H127.529V78.6687H132.44V66.2471Z" fill="#EBEBEB"/>
<path d="M135.812 82.6159H122.101V73.556H135.812V82.6159ZM122.619 82.0979H135.294V74.074H122.619V82.0979Z" fill="#DBDBDB"/>
<path d="M29.8136 135.079C30.017 134.954 30.251 134.888 30.4895 134.888C30.7281 134.888 30.9621 134.954 31.1655 135.079L31.5074 135.276C31.6266 135.338 31.7457 135.4 31.87 135.457C32.086 135.557 32.27 135.715 32.4017 135.914C32.5333 136.112 32.6075 136.343 32.6159 136.581L32.6677 138.244L38.0757 138.073L38.0239 136.415C38.0172 136.177 38.0772 135.942 38.1971 135.736C38.317 135.53 38.492 135.362 38.7024 135.25C38.9375 135.12 39.1657 134.978 39.3862 134.825C39.5801 134.688 39.8079 134.608 40.0446 134.592C40.2813 134.577 40.5177 134.627 40.7278 134.737L42.1886 135.524L44.7475 130.754L43.2867 129.971C43.0785 129.858 42.9055 129.689 42.7867 129.483C42.668 129.277 42.608 129.043 42.6133 128.806C42.6314 128.537 42.6314 128.267 42.6133 127.998C42.5907 127.761 42.6344 127.523 42.7397 127.31C42.8449 127.097 43.0074 126.917 43.209 126.791L44.6232 125.915L41.769 121.316L40.3497 122.196C40.1476 122.319 39.9155 122.384 39.6789 122.384C39.4422 122.384 39.2102 122.319 39.0081 122.196C38.8941 122.129 38.7801 122.062 38.661 121.999L38.3088 121.818C38.087 121.722 37.8965 121.566 37.7592 121.367C37.6218 121.169 37.543 120.935 37.5318 120.694L37.48 119.031L32.0979 119.197L32.1497 120.849C32.155 121.088 32.0944 121.324 31.9747 121.53C31.855 121.737 31.6808 121.906 31.4712 122.02C31.2327 122.147 31.0025 122.289 30.7822 122.445C30.5883 122.582 30.3605 122.662 30.1238 122.678C29.8871 122.693 29.6507 122.643 29.4406 122.533L27.9539 121.73L25.395 126.501L26.8558 127.283C27.0648 127.396 27.2385 127.565 27.3573 127.77C27.4762 127.976 27.5357 128.211 27.5292 128.448C27.5222 128.72 27.5308 128.991 27.5551 129.262C27.5766 129.499 27.5318 129.737 27.4257 129.95C27.3196 130.164 27.1564 130.343 26.9542 130.469L25.5504 131.339L28.3994 135.939L29.8136 135.079ZM31.1707 126.542C31.5847 125.771 32.2182 125.139 32.9911 124.727C33.7641 124.315 34.6417 124.142 35.5132 124.229C36.3846 124.316 37.2107 124.659 37.8871 125.215C38.5634 125.772 39.0597 126.516 39.313 127.354C39.5664 128.193 39.5656 129.087 39.3106 129.925C39.0556 130.763 38.558 131.507 37.8806 132.062C37.2032 132.617 36.3764 132.958 35.5048 133.044C34.6332 133.129 33.7559 132.954 32.9837 132.541C31.9485 131.985 31.176 131.041 30.8361 129.917C30.4962 128.792 30.6165 127.578 31.1707 126.542Z" fill="#DBDBDB"/>
<path d="M182.623 101.652C182.766 101.737 182.883 101.86 182.961 102.007C183.038 102.155 183.074 102.32 183.064 102.486C183.064 102.579 183.064 102.673 183.064 102.766C183.064 102.859 183.064 102.958 183.064 103.051C183.074 103.216 183.038 103.381 182.961 103.528C182.883 103.674 182.766 103.796 182.623 103.88L181.618 104.465L183.509 107.744L184.519 107.164C184.664 107.082 184.829 107.041 184.996 107.048C185.162 107.054 185.324 107.107 185.462 107.2C185.623 107.298 185.783 107.397 185.949 107.48C186.102 107.552 186.231 107.665 186.323 107.807C186.415 107.949 186.465 108.114 186.467 108.283V109.443H190.254V108.262C190.257 108.093 190.307 107.929 190.398 107.787C190.49 107.645 190.619 107.531 190.772 107.459C190.942 107.376 191.103 107.278 191.264 107.179C191.402 107.086 191.563 107.033 191.73 107.027C191.896 107.021 192.061 107.061 192.206 107.143L193.242 107.723L195.133 104.444L194.123 103.859C193.98 103.774 193.863 103.651 193.785 103.504C193.707 103.357 193.672 103.191 193.683 103.025C193.683 102.932 193.683 102.838 193.683 102.745C193.683 102.652 193.683 102.559 193.683 102.466C193.672 102.299 193.708 102.134 193.786 101.987C193.863 101.84 193.98 101.717 194.123 101.632L195.133 101.051L193.196 97.788L192.16 98.3681C192.014 98.451 191.849 98.492 191.681 98.4865C191.514 98.481 191.352 98.4293 191.212 98.3371C191.056 98.2335 190.891 98.1402 190.725 98.0522C190.572 97.9812 190.443 97.8688 190.351 97.7277C190.26 97.5866 190.21 97.4226 190.207 97.2544V96.0941H186.462V97.2544C186.459 97.4226 186.409 97.5866 186.317 97.7277C186.226 97.8688 186.096 97.9812 185.944 98.0522C185.778 98.1402 185.612 98.2335 185.457 98.3371C185.317 98.4293 185.155 98.481 184.987 98.4865C184.82 98.492 184.654 98.451 184.509 98.3681L183.504 97.788L181.613 101.072L182.623 101.652ZM188.321 99.6631C188.936 99.6631 189.537 99.8454 190.048 100.187C190.559 100.528 190.958 101.014 191.193 101.582C191.428 102.15 191.49 102.775 191.37 103.377C191.25 103.98 190.954 104.534 190.519 104.969C190.084 105.403 189.531 105.699 188.928 105.819C188.325 105.939 187.7 105.878 187.132 105.643C186.564 105.407 186.079 105.009 185.737 104.498C185.396 103.987 185.213 103.386 185.213 102.771C185.213 102.361 185.294 101.955 185.452 101.577C185.609 101.199 185.84 100.855 186.131 100.566C186.422 100.277 186.767 100.049 187.146 99.8937C187.526 99.7388 187.932 99.6604 188.342 99.6631H188.321Z" fill="#DBDBDB"/>
<path d="M201.567 89.8471C201.562 92.768 202.423 95.6248 204.042 98.056C205.661 100.487 207.965 102.383 210.662 103.505C213.36 104.626 216.329 104.922 219.194 104.355C222.06 103.789 224.693 102.385 226.76 100.321C228.827 98.2576 230.236 95.6271 230.807 92.7626C231.379 89.8982 231.088 86.9285 229.972 84.2294C228.855 81.5303 226.963 79.2231 224.534 77.5998C222.106 75.9765 219.251 75.11 216.33 75.11C212.419 75.11 208.668 76.6618 205.9 79.4248C203.132 82.1878 201.574 85.9362 201.567 89.8471ZM209.435 89.8471C209.434 88.4832 209.838 87.1497 210.595 86.0153C211.352 84.8808 212.428 83.9963 213.688 83.4736C214.948 82.951 216.334 82.8137 217.672 83.0792C219.01 83.3446 220.239 84.0009 221.203 84.9649C222.168 85.9289 222.825 87.1574 223.092 88.4949C223.358 89.8325 223.222 91.219 222.7 92.4791C222.178 93.7393 221.295 94.8164 220.161 95.5742C219.027 96.332 217.694 96.7365 216.33 96.7365C214.502 96.7365 212.749 96.0108 211.457 94.7189C210.164 93.4271 209.437 91.6747 209.435 89.8471Z" fill="#EBEBEB"/>
<path d="M213.491 75.7005H219.163L218.853 71.6808H213.802L213.491 75.7005Z" fill="#EBEBEB"/>
<path d="M224.292 77.612L228.306 81.6265L230.927 78.5651L227.358 74.9961L224.292 77.612Z" fill="#EBEBEB"/>
<path d="M230.58 86.6044V92.2816L234.6 91.9657V86.9152L230.58 86.6044Z" fill="#EBEBEB"/>
<path d="M228.669 97.4047L224.654 101.419L227.716 104.04L231.285 100.471L228.669 97.4047Z" fill="#EBEBEB"/>
<path d="M219.676 103.693H213.999L214.315 107.713H219.36L219.676 103.693Z" fill="#EBEBEB"/>
<path d="M208.876 101.782L204.861 97.7673L202.24 100.829L205.809 104.398L208.876 101.782Z" fill="#EBEBEB"/>
<path d="M202.587 92.7893V87.1172L198.567 87.428V92.4785L202.587 92.7893Z" fill="#EBEBEB"/>
<path d="M204.499 81.9891L208.513 77.9746L205.452 75.3535L201.877 78.9225L204.499 81.9891Z" fill="#EBEBEB"/>
<path d="M35.6152 35.6177C35.6152 38.5365 36.4808 41.3898 38.1024 43.8167C39.724 46.2436 42.0288 48.1351 44.7255 49.2521C47.4221 50.3691 50.3894 50.6614 53.2522 50.0919C56.1149 49.5225 58.7445 48.117 60.8084 46.053C62.8723 43.9891 64.2779 41.3595 64.8473 38.4968C65.4167 35.6341 65.1245 32.6667 64.0075 29.9701C62.8905 27.2735 60.999 24.9686 58.5721 23.347C56.1451 21.7254 53.2919 20.8599 50.3731 20.8599C46.4595 20.8612 42.7065 22.4165 39.9392 25.1838C37.1719 27.9512 35.6166 31.7041 35.6152 35.6177ZM43.4785 35.6177C43.4774 34.2538 43.8809 32.9203 44.6379 31.7858C45.3949 30.6514 46.4713 29.7669 47.731 29.2442C48.9907 28.7216 50.3772 28.5843 51.7149 28.8498C53.0527 29.1152 54.2817 29.7715 55.2464 30.7355C56.2112 31.6995 56.8683 32.928 57.1348 34.2655C57.4012 35.6031 57.265 36.9896 56.7433 38.2497C56.2216 39.5099 55.3379 40.587 54.204 41.3448C53.0701 42.1026 51.7369 42.5071 50.3731 42.5071C48.5481 42.503 46.7992 41.7755 45.5097 40.4841C44.2202 39.1926 43.4954 37.4427 43.494 35.6177H43.4785Z" fill="#EBEBEB"/>
<path d="M47.5342 21.4711H53.2115L52.9007 17.4514H47.8502L47.5342 21.4711Z" fill="#EBEBEB"/>
<path d="M58.3398 23.3826L62.3543 27.3971L64.9702 24.3305L61.4012 20.7615L58.3398 23.3826Z" fill="#EBEBEB"/>
<path d="M64.6284 32.3699V38.0472L68.6429 37.7364V32.6859L64.6284 32.3699Z" fill="#EBEBEB"/>
<path d="M62.712 43.1753L58.7026 47.1898L61.764 49.8057L65.333 46.2367L62.712 43.1753Z" fill="#EBEBEB"/>
<path d="M53.7246 49.4639H48.0474L48.3633 53.4784H53.4087L53.7246 49.4639Z" fill="#EBEBEB"/>
<path d="M42.919 47.5523L38.9045 43.5378L36.2886 46.5992L39.8576 50.1682L42.919 47.5523Z" fill="#EBEBEB"/>
<path d="M36.6302 38.56V32.8827L32.6157 33.1987V38.244L36.6302 38.56Z" fill="#EBEBEB"/>
<path d="M38.5469 27.7544L42.5562 23.7451L39.4948 21.124L35.9258 24.693L38.5469 27.7544Z" fill="#EBEBEB"/>
<path d="M21.2046 239.373L48.4048 239.249L75.605 239.202L130 239.114L184.395 239.202L211.595 239.249L238.796 239.373L211.595 239.503L184.395 239.544L130 239.632L75.605 239.544L48.4048 239.503L21.2046 239.373Z" fill="#263238"/>
<path d="M115.532 30.7744C115.291 33.0908 114.41 35.2945 112.989 37.1395C111.568 38.9846 109.662 40.3983 107.483 41.223C105.305 42.0477 102.941 42.2509 100.654 41.8099C98.3672 41.369 96.2479 40.3012 94.5327 38.7257L88.2441 39.6477L91.3936 34.2139C90.5715 32.2025 90.2852 30.0123 90.5627 27.8571C90.8402 25.702 91.672 23.6557 92.9769 21.9182C94.2817 20.1807 96.0149 18.8114 98.0072 17.944C99.9995 17.0767 102.183 16.741 104.344 16.9697C107.657 17.3183 110.697 18.9681 112.795 21.5566C114.893 24.145 115.877 27.4604 115.532 30.7744Z" fill="white"/>
<path d="M115.532 30.7743C115.288 33.091 114.409 35.2954 112.994 37.1457C112.301 38.0777 111.469 38.8986 110.528 39.5803C109.603 40.2832 108.583 40.8518 107.498 41.269C106.408 41.6937 105.265 41.9656 104.1 42.0771C103.518 42.1289 102.933 42.1393 102.349 42.1082C101.767 42.0968 101.186 42.0361 100.614 41.9269C98.2975 41.5013 96.1453 40.4395 94.3979 38.8603L94.5482 38.9018L88.2752 39.886L87.8193 39.9533L88.0524 39.5493L91.1604 34.1051V34.3226C90.4227 32.5206 90.1086 30.5732 90.2424 28.6306C90.3763 26.6881 90.9544 24.8021 91.9322 23.1183C92.9128 21.4432 94.2584 20.0108 95.8691 18.9277C97.8729 17.5959 100.214 16.8609 102.62 16.8084C105.025 16.7559 107.396 17.3881 109.456 18.6312C111.516 19.8743 113.18 21.6772 114.255 23.8298C115.33 25.9825 115.771 28.3962 115.527 30.7899L115.532 30.7743ZM115.532 30.7743C115.733 28.8816 115.496 26.968 114.841 25.1811C114.185 23.3942 113.128 21.7818 111.75 20.4681C110.373 19.1543 108.712 18.1744 106.897 17.6037C105.081 17.0331 103.158 16.8871 101.277 17.1768C99.4152 17.4647 97.6437 18.1734 96.097 19.2488C94.5628 20.3159 93.2766 21.7011 92.3259 23.31C91.3998 24.9402 90.8543 26.7589 90.7305 28.6298C90.6157 30.498 90.9183 32.3684 91.6163 34.1051L91.6629 34.2139L91.6007 34.3175L88.4357 39.7461L88.213 39.4094L94.5067 38.5288H94.5948L94.6569 38.5858C96.3336 40.1608 98.4163 41.2371 100.671 41.6938C101.235 41.8042 101.806 41.8735 102.38 41.901C102.953 41.9398 103.527 41.9398 104.1 41.901C105.248 41.8125 106.378 41.5631 107.457 41.1602C108.542 40.7703 109.564 40.2203 110.487 39.5285C111.427 38.8562 112.26 38.0459 112.958 37.125C114.383 35.2846 115.274 33.0874 115.532 30.7743Z" fill="#263238"/>
<path d="M100.101 29.9092C100.102 30.1456 100.175 30.3761 100.311 30.5692C100.448 30.7624 100.64 30.9089 100.863 30.9887C101.085 31.0685 101.327 31.0778 101.555 31.0154C101.783 30.9529 101.986 30.8217 102.137 30.6396C102.208 30.5496 102.305 30.4839 102.415 30.4514C102.525 30.4189 102.642 30.4213 102.751 30.4582C102.859 30.4951 102.954 30.5648 103.021 30.6576C103.088 30.7504 103.125 30.8617 103.126 30.9763V33.8564H95.232V30.9763C95.2313 30.904 95.245 30.8323 95.2723 30.7654C95.2997 30.6985 95.3401 30.6376 95.3912 30.5865C95.4424 30.5354 95.5032 30.495 95.5701 30.4676C95.637 30.4403 95.7087 30.4266 95.781 30.4272C95.8649 30.4274 95.9476 30.4466 96.023 30.4834C96.0984 30.5202 96.1644 30.5736 96.2162 30.6396C96.325 30.7704 96.4612 30.8757 96.6151 30.9481C96.7691 31.0206 96.937 31.0585 97.1071 31.0592C97.3013 31.0595 97.4924 31.0105 97.6626 30.917C97.8327 30.8234 97.9765 30.6883 98.0803 30.5242C98.1842 30.3602 98.2448 30.1724 98.2565 29.9786C98.2682 29.7848 98.2306 29.5911 98.1473 29.4157C98.064 29.2403 97.9376 29.0889 97.7799 28.9755C97.6222 28.8622 97.4384 28.7906 97.2456 28.7675C97.0528 28.7443 96.8573 28.7704 96.6773 28.8433C96.4973 28.9161 96.3386 29.0333 96.2162 29.184C96.1637 29.2492 96.0975 29.302 96.0223 29.3388C95.9471 29.3755 95.8647 29.3951 95.781 29.3964C95.6354 29.3964 95.4957 29.3386 95.3928 29.2356C95.2898 29.1326 95.232 28.993 95.232 28.8473V25.9621H98.112C98.1843 25.9628 98.256 25.949 98.323 25.9217C98.3899 25.8943 98.4507 25.8539 98.5018 25.8028C98.553 25.7517 98.5934 25.6909 98.6207 25.6239C98.6481 25.557 98.6618 25.4853 98.6611 25.413C98.6609 25.3291 98.6417 25.2464 98.6049 25.171C98.5682 25.0957 98.5147 25.0296 98.4487 24.9779C98.2991 24.8548 98.183 24.696 98.1111 24.5161C98.0393 24.3362 98.0141 24.141 98.0378 23.9487C98.0616 23.7565 98.1335 23.5733 98.2469 23.4163C98.3604 23.2592 98.5116 23.1334 98.6867 23.0505C98.8618 22.9675 99.055 22.9301 99.2483 22.9418C99.4417 22.9534 99.629 23.0138 99.7928 23.1172C99.9567 23.2206 100.092 23.3637 100.185 23.5332C100.279 23.7027 100.329 23.8932 100.329 24.0869C100.329 24.2577 100.291 24.4264 100.218 24.5805C100.144 24.7347 100.037 24.8705 99.9043 24.9779C99.8391 25.0304 99.7863 25.0966 99.7496 25.1718C99.7129 25.247 99.6932 25.3293 99.6919 25.413C99.6919 25.5586 99.7498 25.6983 99.8528 25.8013C99.9557 25.9042 100.095 25.9621 100.241 25.9621H103.126V28.8473C103.125 28.9934 103.066 29.1331 102.962 29.2359C102.858 29.3387 102.718 29.3964 102.572 29.3964C102.488 29.3951 102.406 29.3755 102.331 29.3388C102.256 29.302 102.189 29.2492 102.137 29.184C102.031 29.0514 101.896 28.9443 101.742 28.8708C101.589 28.7973 101.421 28.7592 101.251 28.7593C100.946 28.7593 100.654 28.8804 100.438 29.0961C100.222 29.3118 100.101 29.6043 100.101 29.9092Z" fill="#263238"/>
<path d="M111.192 24.9675L112.425 32.7686L109.576 33.2141C109.504 33.2259 109.432 33.2234 109.361 33.2068C109.291 33.1902 109.225 33.1598 109.167 33.1174C109.108 33.075 109.059 33.0214 109.022 32.9597C108.984 32.8981 108.959 32.8296 108.949 32.7582C108.934 32.6754 108.939 32.5901 108.964 32.5098C108.989 32.4295 109.034 32.3565 109.094 32.2972C109.206 32.1687 109.288 32.0173 109.336 31.8536C109.383 31.6899 109.394 31.5178 109.368 31.3493C109.352 31.1941 109.304 31.0438 109.228 30.9077C109.152 30.7715 109.049 30.6522 108.925 30.5571C108.801 30.4621 108.66 30.3932 108.508 30.3547C108.357 30.3162 108.2 30.3088 108.046 30.3331C107.892 30.3574 107.744 30.4128 107.612 30.4959C107.48 30.5791 107.366 30.6882 107.278 30.8167C107.189 30.9452 107.128 31.0904 107.097 31.2434C107.066 31.3964 107.067 31.554 107.099 31.7067C107.125 31.8751 107.188 32.0355 107.284 32.1763C107.38 32.317 107.506 32.4344 107.654 32.52C107.727 32.5616 107.79 32.619 107.838 32.688C107.887 32.757 107.919 32.8358 107.933 32.9188C107.944 32.9903 107.941 33.0632 107.924 33.1334C107.907 33.2036 107.876 33.2697 107.833 33.328C107.79 33.3862 107.736 33.4354 107.674 33.4728C107.613 33.5101 107.544 33.5349 107.472 33.5456L104.623 33.9963L104.178 31.1524C104.167 31.0805 104.142 31.0113 104.105 30.949C104.067 30.8867 104.017 30.8326 103.958 30.7897C103.9 30.7468 103.833 30.716 103.762 30.6991C103.691 30.6823 103.618 30.6796 103.546 30.6914C103.464 30.7067 103.386 30.7397 103.318 30.788C103.25 30.8363 103.194 30.8988 103.152 30.9711C103.054 31.1381 102.915 31.2774 102.748 31.3763C102.582 31.4751 102.393 31.5302 102.199 31.5365C102.005 31.5428 101.813 31.5001 101.641 31.4123C101.468 31.3245 101.32 31.1944 101.211 31.0343C101.102 30.8741 101.035 30.689 101.017 30.4961C100.999 30.3032 101.029 30.1088 101.106 29.9309C101.183 29.7531 101.304 29.5975 101.457 29.4787C101.61 29.3599 101.79 29.2817 101.982 29.2514C102.15 29.2239 102.322 29.2348 102.485 29.2832C102.648 29.3317 102.799 29.4164 102.924 29.5311C102.986 29.5879 103.059 29.6304 103.139 29.6554C103.218 29.6805 103.303 29.6876 103.385 29.6761C103.457 29.6654 103.526 29.6406 103.587 29.6033C103.649 29.5659 103.703 29.5167 103.746 29.4585C103.789 29.4003 103.82 29.3342 103.837 29.2639C103.854 29.1937 103.857 29.1208 103.846 29.0494L103.396 26.1952L106.245 25.7497C106.359 25.7305 106.476 25.7478 106.579 25.799C106.683 25.8501 106.768 25.9326 106.821 26.0348C106.875 26.1369 106.896 26.2534 106.88 26.3678C106.864 26.4821 106.812 26.5885 106.732 26.6717C106.618 26.7983 106.535 26.9487 106.487 27.1119C106.44 27.2751 106.429 27.4468 106.457 27.6145C106.505 27.9147 106.669 28.1837 106.915 28.3625C107.161 28.5412 107.468 28.615 107.768 28.5676C108.068 28.5202 108.337 28.3555 108.516 28.1098C108.694 27.864 108.768 27.5573 108.721 27.2571C108.696 27.0899 108.633 26.9305 108.538 26.7906C108.443 26.6507 108.318 26.534 108.172 26.449C108.099 26.4073 108.035 26.3499 107.987 26.281C107.939 26.212 107.906 26.1332 107.892 26.0501C107.88 25.9787 107.883 25.9056 107.899 25.8351C107.916 25.7646 107.946 25.698 107.988 25.6393C108.031 25.5806 108.084 25.5308 108.146 25.4928C108.208 25.4549 108.276 25.4295 108.348 25.4182L111.192 24.9675Z" fill="#455A64"/>
<path d="M127.286 148.298H104.52V171.064H127.286V148.298Z" fill="#C7C7C7"/>
<path d="M127.286 125.532H104.52V148.298H127.286V125.532Z" fill="#C7C7C7"/>
<path d="M104.52 125.532H81.7534V148.298H104.52V125.532Z" fill="#C7C7C7"/>
<path d="M104.52 102.766H81.7534V125.532H104.52V102.766Z" fill="#C7C7C7"/>
<path d="M81.7534 125.532C83.6493 125.418 85.5504 125.366 87.4514 125.325C89.3525 125.284 91.2432 125.268 93.1494 125.258C95.0557 125.247 96.9464 125.258 98.8474 125.325L101.696 125.397C102.644 125.444 103.592 125.47 104.54 125.532C103.592 125.594 102.644 125.62 101.696 125.667L98.8474 125.745C96.9515 125.791 95.0557 125.801 93.1494 125.807C91.2432 125.812 89.3577 125.807 87.4514 125.745C85.5452 125.682 83.6493 125.646 81.7534 125.532Z" fill="#A6A6A6"/>
<path d="M104.52 148.298C106.415 148.184 108.311 148.132 110.218 148.091C112.124 148.05 114.009 148.034 115.916 148.024C117.822 148.013 119.712 148.024 121.614 148.091L124.463 148.164C125.41 148.21 126.358 148.236 127.306 148.298C126.358 148.36 125.41 148.386 124.463 148.433L121.614 148.511C119.718 148.557 117.822 148.568 115.916 148.573C114.009 148.578 112.124 148.573 110.218 148.511C108.311 148.448 106.415 148.412 104.52 148.298Z" fill="#A6A6A6"/>
<path d="M104.52 148.298C104.406 146.402 104.354 144.507 104.313 142.6C104.271 140.694 104.256 138.809 104.245 136.902C104.235 134.996 104.245 133.105 104.307 131.204L104.385 128.36C104.432 127.407 104.458 126.459 104.52 125.511C104.582 126.459 104.608 127.407 104.654 128.36L104.732 131.204C104.779 133.1 104.789 134.996 104.794 136.902C104.799 138.809 104.794 140.694 104.727 142.6C104.66 144.507 104.618 146.402 104.52 148.298Z" fill="#A6A6A6"/>
<path d="M116.071 102.771H104.52V125.532H116.071V102.771Z" fill="#A6A6A6"/>
<path d="M138.837 125.542H127.286V171.069H138.837V125.542Z" fill="#A6A6A6"/>
<path d="M218.35 193.831H195.584V216.597H218.35V193.831Z" fill="#263238"/>
<path d="M195.584 193.831H172.818V216.597H195.584V193.831Z" fill="#263238"/>
<path d="M218.35 216.597H195.584V239.363H218.35V216.597Z" fill="#263238"/>
<path d="M218.35 171.064H195.584V193.831H218.35V171.064Z" fill="#263238"/>
<path d="M229.901 171.07H218.35V239.363H229.901V171.07Z" fill="#263238"/>
<path opacity="0.1" d="M229.901 171.07H218.35V239.363H229.901V171.07Z" fill="black"/>
<path opacity="0.1" d="M195.573 216.597C195.459 214.701 195.408 212.805 195.361 210.899C195.314 208.992 195.304 207.107 195.299 205.201C195.294 203.294 195.299 201.404 195.361 199.503L195.439 196.659C195.485 195.706 195.511 194.758 195.573 193.81C195.636 194.758 195.661 195.706 195.708 196.659L195.781 199.503C195.832 201.399 195.838 203.294 195.848 205.201C195.858 207.107 195.848 208.992 195.781 210.899C195.713 212.805 195.682 214.701 195.573 216.597Z" fill="black"/>
<path opacity="0.1" d="M195.574 216.597C197.47 216.483 199.365 216.431 201.272 216.389C203.178 216.348 205.069 216.332 206.97 216.322C208.871 216.312 210.767 216.322 212.668 216.384L215.512 216.462C216.459 216.509 217.413 216.534 218.361 216.597C217.413 216.659 216.459 216.685 215.512 216.731L212.668 216.809C210.772 216.856 208.871 216.866 206.97 216.871C205.069 216.876 203.178 216.871 201.272 216.809C199.365 216.747 197.47 216.711 195.574 216.597Z" fill="black"/>
<path opacity="0.1" d="M195.574 193.831C197.47 193.717 199.365 193.665 201.272 193.623C203.178 193.582 205.069 193.566 206.97 193.556C208.871 193.546 210.767 193.556 212.668 193.618L215.512 193.696C216.459 193.742 217.413 193.768 218.361 193.831C217.413 193.893 216.459 193.919 215.512 193.965L212.668 194.043C210.772 194.09 208.871 194.1 206.97 194.105C205.069 194.11 203.178 194.105 201.272 194.043C199.365 193.981 197.47 193.944 195.574 193.831Z" fill="black"/>
<path d="M127.286 193.831H104.52V216.597H127.286V193.831Z" fill="#263238"/>
<path d="M127.286 171.064H104.52V193.831H127.286V171.064Z" fill="#263238"/>
<path d="M150.052 171.064H127.286V193.831H150.052V171.064Z" fill="#263238"/>
<path d="M150.052 148.298H127.286V171.064H150.052V148.298Z" fill="#263238"/>
<path d="M127.286 193.831C127.172 191.935 127.12 190.039 127.073 188.133C127.027 186.226 127.016 184.341 127.011 182.435C127.006 180.528 127.011 178.638 127.073 176.737L127.151 173.893C127.198 172.94 127.224 171.992 127.286 171.044C127.348 171.992 127.374 172.94 127.421 173.893L127.498 176.737C127.545 178.632 127.555 180.528 127.56 182.435C127.566 184.341 127.56 186.226 127.493 188.133C127.426 190.039 127.41 191.935 127.286 193.831Z" fill="#455A64"/>
<path d="M127.286 171.07C129.182 170.956 131.077 170.904 132.984 170.857C134.89 170.811 136.775 170.8 138.682 170.795C140.588 170.79 142.479 170.795 144.38 170.857L147.229 170.935C148.177 170.981 149.125 171.007 150.072 171.07C149.125 171.132 148.177 171.158 147.229 171.204L144.38 171.277C142.484 171.329 140.588 171.334 138.682 171.344C136.775 171.354 134.89 171.344 132.984 171.277C131.077 171.209 129.182 171.183 127.286 171.07Z" fill="#455A64"/>
<path d="M104.52 193.831C106.415 193.717 108.311 193.665 110.218 193.623C112.124 193.582 114.009 193.566 115.916 193.556C117.822 193.546 119.712 193.556 121.614 193.618L124.463 193.696C125.41 193.742 126.358 193.768 127.306 193.831C126.358 193.893 125.41 193.919 124.463 193.965L121.614 194.043C119.718 194.09 117.822 194.1 115.916 194.105C114.009 194.11 112.124 194.105 110.218 194.043C108.311 193.981 106.415 193.944 104.52 193.831Z" fill="#455A64"/>
<path d="M150.052 193.831H127.286V216.597H150.052V193.831Z" fill="#C7C7C7"/>
<path d="M172.818 193.831H150.052V216.597H172.818V193.831Z" fill="#C7C7C7"/>
<path d="M172.818 171.064H150.052V193.831H172.818V171.064Z" fill="#C7C7C7"/>
<path d="M195.584 171.064H172.818V193.831H195.584V171.064Z" fill="#C7C7C7"/>
<path d="M172.818 193.831C172.704 191.935 172.652 190.039 172.606 188.133C172.559 186.226 172.549 184.341 172.544 182.435C172.538 180.528 172.544 178.638 172.606 176.737L172.683 173.893C172.73 172.94 172.756 171.992 172.818 171.044C172.88 171.992 172.906 172.94 172.953 173.893L173.03 176.737C173.077 178.632 173.087 180.528 173.093 182.435C173.098 184.341 173.093 186.226 173.025 188.133C172.958 190.039 172.932 191.935 172.818 193.831Z" fill="#A6A6A6"/>
<path d="M150.052 216.597C149.938 214.701 149.886 212.805 149.84 210.899C149.793 208.992 149.783 207.107 149.777 205.201C149.772 203.294 149.777 201.404 149.84 199.503L149.917 196.659C149.964 195.706 149.99 194.758 150.052 193.81C150.114 194.758 150.14 195.706 150.187 196.659L150.264 199.503C150.311 201.399 150.321 203.294 150.326 205.201C150.332 207.107 150.326 208.992 150.259 210.899C150.192 212.805 150.166 214.701 150.052 216.597Z" fill="#A6A6A6"/>
<path d="M150.052 193.831C151.948 193.717 153.844 193.665 155.75 193.623C157.656 193.582 159.542 193.566 161.448 193.556C163.354 193.546 165.245 193.556 167.146 193.618L169.995 193.696C170.943 193.742 171.891 193.768 172.839 193.831C171.891 193.893 170.943 193.919 169.995 193.965L167.146 194.043C165.25 194.09 163.354 194.1 161.448 194.105C159.542 194.11 157.656 194.105 155.75 194.043C153.844 193.981 151.948 193.944 150.052 193.831Z" fill="#A6A6A6"/>
<path d="M104.52 216.597H81.7534V239.363H104.52V216.597Z" fill="#263238"/>
<path d="M104.52 193.831H81.7534V216.597H104.52V193.831Z" fill="#263238"/>
<path d="M104.52 171.064H81.7534V193.831H104.52V171.064Z" fill="#263238"/>
<path d="M104.52 148.298H81.7534V171.064H104.52V148.298Z" fill="#263238"/>
<path opacity="0.1" d="M81.7534 171.064C83.6493 170.95 85.5504 170.899 87.4514 170.857C89.3525 170.816 91.2432 170.8 93.1494 170.79C95.0557 170.779 96.9464 170.79 98.8474 170.857L101.696 170.93C102.644 170.976 103.592 171.002 104.54 171.064C103.592 171.127 102.644 171.152 101.696 171.199L98.8474 171.277C96.9515 171.323 95.0557 171.334 93.1494 171.339C91.2432 171.344 89.3577 171.339 87.4514 171.277C85.5452 171.215 83.6493 171.178 81.7534 171.064Z" fill="black"/>
<path opacity="0.1" d="M81.7534 193.831C83.6493 193.717 85.5504 193.665 87.4514 193.623C89.3525 193.582 91.2432 193.566 93.1494 193.556C95.0557 193.546 96.9464 193.556 98.8474 193.618L101.696 193.696C102.644 193.742 103.592 193.768 104.54 193.831C103.592 193.893 102.644 193.919 101.696 193.965L98.8474 194.043C96.9515 194.09 95.0557 194.1 93.1494 194.105C91.2432 194.11 89.3577 194.105 87.4514 194.043C85.5452 193.981 83.6493 193.944 81.7534 193.831Z" fill="black"/>
<path opacity="0.1" d="M81.7534 216.597C83.6493 216.483 85.5504 216.431 87.4514 216.389C89.3525 216.348 91.2432 216.332 93.1494 216.322C95.0557 216.312 96.9464 216.322 98.8474 216.384L101.696 216.462C102.644 216.509 103.592 216.534 104.54 216.597C103.592 216.659 102.644 216.685 101.696 216.731L98.8474 216.809C96.9515 216.856 95.0557 216.866 93.1494 216.871C91.2432 216.876 89.3577 216.871 87.4514 216.809C85.5452 216.747 83.6493 216.711 81.7534 216.597Z" fill="black"/>
<path d="M127.286 216.597H104.52V239.363H127.286V216.597Z" fill="#455A64"/>
<path d="M150.052 216.597H127.286V239.363H150.052V216.597Z" fill="#455A64"/>
<path d="M172.818 216.597H150.052V239.363H172.818V216.597Z" fill="#455A64"/>
<path d="M195.584 216.597H172.818V239.363H195.584V216.597Z" fill="#455A64"/>
<path d="M127.286 239.358C127.172 237.462 127.12 235.566 127.073 233.66C127.027 231.753 127.016 229.863 127.011 227.962C127.006 226.06 127.011 224.17 127.073 222.264L127.151 219.42C127.198 218.472 127.224 217.524 127.286 216.576C127.348 217.524 127.374 218.472 127.421 219.42L127.498 222.264C127.545 224.165 127.555 226.06 127.56 227.962C127.566 229.863 127.56 231.758 127.493 233.66C127.426 235.561 127.41 237.462 127.286 239.358Z" fill="#37474F"/>
<path d="M150.052 239.358C149.938 237.462 149.886 235.566 149.84 233.66C149.793 231.753 149.783 229.863 149.777 227.962C149.772 226.06 149.777 224.17 149.84 222.264L149.917 219.42C149.964 218.472 149.99 217.524 150.052 216.576C150.114 217.524 150.14 218.472 150.187 219.42L150.264 222.264C150.311 224.165 150.321 226.06 150.326 227.962C150.332 229.863 150.326 231.758 150.259 233.66C150.192 235.561 150.166 237.462 150.052 239.358Z" fill="#37474F"/>
<path d="M172.818 239.358C172.704 237.462 172.652 235.566 172.606 233.66C172.559 231.753 172.549 229.863 172.544 227.962C172.538 226.06 172.544 224.17 172.606 222.264L172.683 219.42C172.73 218.472 172.756 217.524 172.818 216.576C172.88 217.524 172.906 218.472 172.953 219.42L173.03 222.264C173.077 224.165 173.087 226.06 173.093 227.962C173.098 229.863 173.093 231.758 173.025 233.66C172.958 235.561 172.932 237.462 172.818 239.358Z" fill="#37474F"/>
<path d="M218.35 148.298H195.584V171.064H218.35V148.298Z" fill="#455A64"/>
<path d="M195.584 148.298H172.818V171.064H195.584V148.298Z" fill="#455A64"/>
<path d="M172.818 148.298H150.052V171.064H172.818V148.298Z" fill="#455A64"/>
<path d="M172.818 125.532H150.052V148.298H172.818V125.532Z" fill="#455A64"/>
<path d="M229.901 148.303H218.35V171.064H229.901V148.303Z" fill="#37474F"/>
<path d="M172.818 171.064C172.704 169.169 172.652 167.273 172.606 165.366C172.559 163.46 172.549 161.575 172.544 159.668C172.538 157.762 172.544 155.871 172.606 153.97L172.683 151.127C172.73 150.173 172.756 149.226 172.818 148.278C172.88 149.226 172.906 150.173 172.953 151.127L173.03 153.97C173.077 155.866 173.087 157.762 173.093 159.668C173.098 161.575 173.093 163.46 173.025 165.366C172.958 167.273 172.932 169.169 172.818 171.064Z" fill="#37474F"/>
<path d="M195.584 171.064C195.47 169.169 195.418 167.273 195.371 165.366C195.325 163.46 195.314 161.575 195.309 159.668C195.304 157.762 195.309 155.871 195.371 153.97L195.449 151.127C195.496 150.173 195.522 149.226 195.584 148.278C195.646 149.226 195.672 150.173 195.718 151.127L195.796 153.97C195.843 155.866 195.848 157.762 195.858 159.668C195.869 161.575 195.858 163.46 195.791 165.366C195.724 167.273 195.698 169.169 195.584 171.064Z" fill="#37474F"/>
<path d="M150.052 148.298C151.948 148.184 153.844 148.132 155.75 148.091C157.656 148.05 159.542 148.034 161.448 148.024C163.354 148.013 165.245 148.024 167.146 148.091L169.995 148.164C170.943 148.21 171.891 148.236 172.839 148.298C171.891 148.36 170.943 148.386 169.995 148.433L167.146 148.511C165.25 148.557 163.354 148.568 161.448 148.573C159.542 148.578 157.656 148.573 155.75 148.511C153.844 148.448 151.948 148.412 150.052 148.298Z" fill="#37474F"/>
<path d="M218.35 125.532H195.584V148.298H218.35V125.532Z" fill="#C7C7C7"/>
<path d="M195.584 125.532H172.818V148.298H195.584V125.532Z" fill="#C7C7C7"/>
<path d="M218.35 102.766H195.584V125.532H218.35V102.766Z" fill="#C7C7C7"/>
<path d="M195.584 102.766H172.818V125.532H195.584V102.766Z" fill="#C7C7C7"/>
<path d="M229.901 102.776H218.35V148.298H229.901V102.776Z" fill="#A6A6A6"/>
<path d="M195.573 125.532C195.459 123.636 195.408 121.74 195.361 119.834C195.314 117.928 195.304 116.042 195.299 114.136C195.294 112.23 195.299 110.339 195.361 108.438L195.439 105.594C195.485 104.646 195.511 103.693 195.573 102.745C195.636 103.693 195.661 104.646 195.708 105.594L195.781 108.438C195.832 110.334 195.838 112.23 195.848 114.136C195.858 116.042 195.848 117.928 195.781 119.834C195.713 121.74 195.682 123.636 195.573 125.532Z" fill="#A6A6A6"/>
<path d="M195.573 148.298C195.459 146.402 195.408 144.507 195.361 142.6C195.314 140.694 195.304 138.809 195.299 136.902C195.294 134.996 195.299 133.105 195.361 131.204L195.439 128.36C195.485 127.407 195.511 126.459 195.573 125.511C195.636 126.459 195.661 127.407 195.708 128.36L195.781 131.204C195.832 133.1 195.838 134.996 195.848 136.902C195.858 138.809 195.848 140.694 195.781 142.6C195.713 144.507 195.682 146.402 195.573 148.298Z" fill="#A6A6A6"/>
<path d="M195.574 125.532C197.47 125.418 199.365 125.366 201.272 125.325C203.178 125.284 205.069 125.268 206.97 125.258C208.871 125.247 210.767 125.258 212.668 125.325L215.512 125.397C216.459 125.444 217.413 125.47 218.361 125.532C217.413 125.594 216.459 125.62 215.512 125.667L212.668 125.745C210.772 125.791 208.871 125.801 206.97 125.807C205.069 125.812 203.178 125.807 201.272 125.745C199.365 125.682 197.47 125.646 195.574 125.532Z" fill="#A6A6A6"/>
<path d="M172.704 125.532C174.6 125.418 176.496 125.366 178.402 125.325C180.308 125.284 182.194 125.268 184.1 125.258C186.006 125.247 187.897 125.258 189.798 125.325L192.647 125.397C193.595 125.444 194.543 125.47 195.491 125.532C194.543 125.594 193.595 125.62 192.647 125.667L189.798 125.745C187.902 125.791 186.006 125.801 184.1 125.807C182.194 125.812 180.308 125.807 178.402 125.745C176.496 125.682 174.6 125.646 172.704 125.532Z" fill="#A6A6A6"/>
<path d="M105.043 239.254C103.68 239.699 64.8201 239.347 63.3541 238.394C62.7895 238.042 62.5098 232.375 62.3699 225.522C62.3699 225.449 62.3699 225.376 62.3699 225.309C62.3388 223.895 62.8879 200.963 62.8879 200.963L88.2699 201.119L87.4049 225.273V225.698C87.4049 225.698 102.22 232.483 103.727 233.706C105.234 234.928 106.405 238.798 105.043 239.254Z" fill="#AD6359"/>
<path d="M105.048 239.254C103.681 239.694 64.8254 239.352 63.3491 238.399C62.7845 238.042 62.51 232.38 62.3701 225.521C62.3701 225.449 62.3701 225.376 62.3701 225.309C62.3701 225.04 62.3701 223.558 62.4167 222.041L87.5553 222.092L87.4413 225.252V225.677C87.4413 225.677 102.256 232.463 103.764 233.685C105.271 234.908 106.405 238.798 105.048 239.254Z" fill="white"/>
<path d="M105.436 239.394C104.053 239.844 64.4418 239.59 62.9603 238.627C62.3905 238.264 62.0901 232.494 61.9243 225.511L87.4617 225.599C87.4617 225.599 102.546 232.484 104.1 233.716C105.654 234.949 106.825 238.938 105.436 239.394Z" fill="#A6A6A6"/>
<path d="M104.882 237.803C98.2414 237.596 71.4504 237.394 64.8718 237.695C64.8149 237.695 64.8149 237.736 64.8718 237.736C71.4453 238.083 98.2414 238.073 104.882 237.912C105.022 237.907 105.022 237.809 104.882 237.803Z" fill="#263238"/>
<path d="M101.562 232.276C100.823 232.251 100.088 232.38 99.4019 232.655C98.7161 232.929 98.095 233.344 97.5782 233.872C96.6416 234.813 96.102 236.077 96.0708 237.404C96.0708 237.446 96.1433 237.446 96.1485 237.404C96.3839 236.091 97.0387 234.89 98.0147 233.98C98.9906 233.071 100.235 232.502 101.562 232.359C101.613 232.354 101.613 232.276 101.562 232.276Z" fill="#263238"/>
<path d="M90.0102 226.278C87.3529 226.226 84.2656 227.143 82.6028 229.303C82.5355 229.386 82.6598 229.479 82.7375 229.438C85.0692 228.235 87.523 227.285 90.0568 226.604C90.0965 226.594 90.131 226.57 90.1538 226.536C90.1766 226.502 90.186 226.461 90.1802 226.42C90.1744 226.38 90.1539 226.343 90.1225 226.316C90.0911 226.29 90.0511 226.276 90.0102 226.278Z" fill="#263238"/>
<path d="M92.0566 227.091C89.3993 227.034 86.312 227.956 84.6492 230.116C84.5819 230.199 84.7062 230.292 84.7839 230.251C87.115 229.043 89.5687 228.088 92.1032 227.402C92.1341 227.386 92.1593 227.361 92.1752 227.33C92.191 227.299 92.1968 227.264 92.1917 227.23C92.1865 227.195 92.1707 227.164 92.1465 227.139C92.1222 227.114 92.0908 227.097 92.0566 227.091Z" fill="#263238"/>
<path d="M94.1025 227.92C91.4452 227.863 88.3579 228.785 86.6951 230.945C86.6278 231.028 86.7521 231.121 86.8298 231.08C89.1615 229.877 91.6152 228.927 94.1491 228.246C94.1888 228.236 94.2233 228.212 94.2461 228.178C94.2689 228.144 94.2783 228.103 94.2725 228.062C94.2667 228.022 94.2462 227.985 94.2148 227.958C94.1834 227.932 94.1434 227.918 94.1025 227.92Z" fill="#263238"/>
<path d="M96.1488 228.718C93.4915 228.661 90.4094 229.583 88.7415 231.743C88.6793 231.826 88.7984 231.919 88.8761 231.877C91.2079 230.675 93.6616 229.725 96.1955 229.044C96.2351 229.034 96.2697 229.009 96.2925 228.975C96.3153 228.942 96.3247 228.9 96.3189 228.86C96.3131 228.819 96.2925 228.782 96.2611 228.756C96.2297 228.73 96.1897 228.716 96.1488 228.718Z" fill="#263238"/>
<path d="M92.932 219.207C91.5904 218.083 89.8913 219.161 89.0522 220.311C87.6551 222.317 86.8085 224.655 86.5969 227.091C86.5948 227.102 86.5955 227.114 86.599 227.124C86.6025 227.135 86.6087 227.145 86.617 227.153C86.6252 227.16 86.6353 227.166 86.6463 227.169C86.6573 227.172 86.6688 227.172 86.6797 227.169C86.6886 227.219 86.7095 227.266 86.7406 227.307C86.7717 227.347 86.8122 227.38 86.8585 227.401C86.9048 227.422 86.9557 227.432 87.0066 227.43C87.0576 227.427 87.1071 227.412 87.1511 227.386C89.0522 226.091 91.2485 224.941 92.6937 223.097C93.5381 222.025 94.1959 220.269 92.932 219.207ZM89.6323 224.812C88.7155 225.47 87.7675 226.081 86.8714 226.775C87.3583 225.454 87.7779 224.123 88.3943 222.849C88.6835 222.232 89.0122 221.635 89.3785 221.062C89.9639 220.186 92.5849 217.985 92.8284 220.875C92.9631 222.491 90.7305 224.045 89.6323 224.812Z" fill="#263238"/>
<path d="M79.9872 228.034C82.2975 228.407 84.6907 227.764 86.9647 227.423C87.0139 227.41 87.0595 227.387 87.098 227.354C87.1364 227.321 87.1666 227.279 87.1862 227.232C87.2058 227.185 87.2143 227.135 87.2109 227.084C87.2075 227.034 87.1924 226.985 87.1667 226.941C87.1753 226.934 87.1823 226.925 87.1871 226.916C87.1919 226.906 87.1944 226.895 87.1944 226.884C87.1944 226.873 87.1919 226.862 87.1871 226.852C87.1823 226.842 87.1753 226.834 87.1667 226.827C85.3657 225.187 83.1676 224.046 80.7901 223.517C79.3915 223.242 77.4076 223.605 77.1641 225.335C76.9621 226.977 78.6353 227.821 79.9872 228.034ZM78.3918 226.511C76.6099 224.221 80.0287 224.061 81.0543 224.304C81.7122 224.476 82.3577 224.693 82.9865 224.952C84.2781 225.502 85.5403 226.119 86.7679 226.801C85.6438 226.899 84.5301 227.091 83.4112 227.231C82.0696 227.402 79.376 227.775 78.3918 226.511Z" fill="#263238"/>
<path opacity="0.1" d="M82.6394 239.518C72.9321 239.378 63.6547 239.083 62.9554 238.622C62.3856 238.264 62.08 232.494 61.9194 225.506H62.7068C68.8762 229.837 76.5219 235.203 82.6394 239.518Z" fill="black"/>
<path d="M89.5546 220.637L60.4119 220.564C60.4119 220.564 64.2606 158.783 64.0379 157.643C63.7685 156.177 47.2495 86.8634 47.2495 86.8634L70.9687 87.0084C70.9687 87.0084 90.114 151.318 90.803 157.524C91.9529 167.542 89.5546 220.637 89.5546 220.637Z" fill="#263238"/>
<path d="M87.6118 215.55C83.2192 215.213 65.084 215.136 62.494 215.55C62.4525 215.55 62.4525 215.633 62.494 215.638C64.452 215.964 80.0749 216.104 87.6118 215.638C87.6176 215.632 87.6222 215.625 87.6253 215.618C87.6285 215.61 87.6301 215.602 87.6301 215.594C87.6301 215.586 87.6285 215.578 87.6253 215.57C87.6222 215.563 87.6176 215.556 87.6118 215.55Z" fill="#37474F"/>
<path d="M52.6159 92.204C53.1753 93.9082 53.6519 95.6332 54.1699 97.3529C54.6879 99.0727 55.1334 100.798 55.6358 102.533C56.6252 105.941 57.568 109.36 58.5159 112.779C60.4273 119.684 62.2455 126.615 64.0326 133.551C64.9132 137.004 65.7766 140.444 66.6226 143.869C67.4877 147.314 68.3942 150.764 69.166 154.229C69.5604 155.858 69.7243 157.533 69.6529 159.207C69.5493 160.922 65.3017 213.162 64.7008 214.115C64.7008 214.157 64.6076 214.152 64.6128 214.115C64.8873 207.775 69.3421 158.29 69.1194 156.534C68.8549 154.821 68.4917 153.124 68.0316 151.453C67.6172 149.749 67.1924 148.044 66.7728 146.34C65.9199 142.887 65.0565 139.447 64.1828 136.022C62.4216 129.115 60.6155 122.219 58.7646 115.333C56.9136 108.447 55.0609 101.601 53.2064 94.794C52.9733 93.9497 52.7454 93.1001 52.5382 92.2506C52.532 92.2403 52.5302 92.228 52.5331 92.2163C52.536 92.2047 52.5434 92.1946 52.5537 92.1885C52.564 92.1823 52.5764 92.1804 52.588 92.1834C52.5997 92.1863 52.6097 92.1937 52.6159 92.204Z" fill="#37474F"/>
<path d="M47.2598 86.8634C47.2598 86.8634 57.0603 127.993 61.6809 147.557L69.0935 86.9929L47.2598 86.8634Z" fill="#37474F"/>
<path d="M73.5378 239.508C72.1703 239.932 33.3203 238.99 31.8647 238C31.3053 237.643 31.1136 231.971 31.0825 225.118V224.9C31.0825 223.486 32.0149 199.803 32.0149 199.803L57.3969 200.352L56.1434 225.216V225.641C56.1434 225.641 70.8494 232.655 72.3412 233.898C73.8331 235.141 74.9157 239.088 73.5378 239.508Z" fill="#AD6359"/>
<path d="M73.5381 239.508C72.1654 239.927 33.3206 238.99 31.8598 238.005C31.3004 237.638 31.1139 231.971 31.0776 225.117V224.9C31.0776 224.636 31.1243 223.154 31.1761 221.631L56.3094 222.077L56.1437 225.237V225.661C56.1437 225.661 70.8497 232.675 72.3415 233.918C73.8334 235.162 74.9108 239.088 73.5381 239.508Z" fill="white"/>
<path d="M73.9369 239.653C72.5435 240.083 32.9476 239.212 31.4609 238.228C30.8963 237.855 30.6839 232.08 30.627 225.097L56.1592 225.584C56.1592 225.584 71.1812 232.696 72.6886 233.955C74.1959 235.213 75.3304 239.218 73.9369 239.653Z" fill="#A6A6A6"/>
<path d="M73.4034 238.052C66.7678 237.747 39.982 237.125 33.3982 237.327C33.3464 237.327 33.3464 237.363 33.3982 237.368C39.9665 237.819 66.7626 238.218 73.4034 238.161C73.538 238.161 73.538 238.063 73.4034 238.052Z" fill="#263238"/>
<path d="M70.1707 232.473C69.4313 232.441 68.6931 232.562 68.0029 232.829C67.3128 233.097 66.6857 233.505 66.1614 234.027C65.2126 234.956 64.6563 236.213 64.6074 237.539C64.6074 237.581 64.6799 237.581 64.6851 237.539C64.9403 236.232 65.6121 235.042 66.6001 234.148C67.5881 233.255 68.8391 232.705 70.1656 232.582C70.1727 232.582 70.1798 232.581 70.1866 232.579C70.1933 232.576 70.1995 232.573 70.2048 232.568C70.2101 232.563 70.2144 232.557 70.2174 232.551C70.2205 232.544 70.2222 232.537 70.2225 232.53C70.2229 232.523 70.2218 232.516 70.2194 232.509C70.217 232.502 70.2133 232.496 70.2084 232.491C70.2036 232.486 70.1978 232.481 70.1914 232.478C70.1849 232.475 70.1779 232.474 70.1707 232.473Z" fill="#263238"/>
<path d="M58.7177 226.299C56.0604 226.205 52.9576 227.076 51.2585 229.21C51.1964 229.293 51.3155 229.386 51.3932 229.345C53.7439 228.181 56.2113 227.269 58.754 226.625C58.7928 226.615 58.8267 226.592 58.8494 226.559C58.8722 226.526 58.8823 226.486 58.8779 226.446C58.8735 226.406 58.8548 226.37 58.8254 226.342C58.796 226.315 58.7577 226.3 58.7177 226.299Z" fill="#263238"/>
<path d="M60.7487 227.143C58.0914 227.05 54.9938 227.92 53.2947 230.054C53.2274 230.137 53.3465 230.23 53.4294 230.189C55.7794 229.023 58.2469 228.112 60.7902 227.469C60.8293 227.459 60.8635 227.435 60.8862 227.402C60.9089 227.368 60.9186 227.328 60.9135 227.288C60.9084 227.248 60.8889 227.211 60.8585 227.184C60.8282 227.158 60.7891 227.143 60.7487 227.143Z" fill="#263238"/>
<path d="M62.7842 227.987C60.1268 227.894 57.024 228.764 55.325 230.898C55.2628 230.981 55.3819 231.074 55.4596 231.038C57.8084 229.87 60.2762 228.958 62.8204 228.319C62.8571 228.306 62.8884 228.281 62.9092 228.249C62.93 228.216 62.939 228.177 62.9348 228.138C62.9306 228.1 62.9134 228.064 62.886 228.036C62.8586 228.009 62.8227 227.992 62.7842 227.987Z" fill="#263238"/>
<path d="M64.8147 228.832C62.1625 228.738 59.0597 229.609 57.3606 231.743C57.2933 231.826 57.4124 231.919 57.4953 231.883C59.8437 230.714 62.3117 229.802 64.8561 229.163C64.8929 229.15 64.9242 229.125 64.9448 229.092C64.9653 229.059 64.9739 229.019 64.969 228.981C64.9642 228.942 64.9462 228.906 64.9181 228.879C64.8901 228.852 64.8535 228.835 64.8147 228.832Z" fill="#263238"/>
<path d="M61.7433 219.274C60.4224 218.13 58.7027 219.181 57.848 220.31C56.4193 222.292 55.5368 224.614 55.289 227.044C55.2872 227.055 55.288 227.066 55.2913 227.076C55.2945 227.086 55.3002 227.096 55.3078 227.103C55.3154 227.111 55.3247 227.117 55.335 227.12C55.3453 227.123 55.3561 227.124 55.3667 227.122C55.3761 227.173 55.3972 227.221 55.4285 227.262C55.4599 227.302 55.5004 227.335 55.5469 227.358C55.5934 227.38 55.6445 227.391 55.696 227.389C55.7475 227.388 55.798 227.375 55.8433 227.35C57.7599 226.081 59.9873 224.967 61.4481 223.144C62.3079 222.103 62.9917 220.357 61.7433 219.274ZM58.3608 224.848C57.4284 225.496 56.4753 226.091 55.5688 226.77C56.0308 225.442 56.5599 224.138 57.1538 222.864C57.4489 222.252 57.7864 221.662 58.1639 221.098C58.7596 220.233 61.417 218.067 61.619 220.963C61.7278 222.559 59.4693 224.076 58.3608 224.848Z" fill="#263238"/>
<path d="M48.6741 227.92C50.9792 228.329 53.3827 227.723 55.6619 227.402C55.7114 227.391 55.7576 227.368 55.7967 227.336C55.8358 227.304 55.8667 227.263 55.8869 227.216C55.9071 227.17 55.9161 227.119 55.913 227.069C55.9099 227.018 55.8949 226.969 55.8691 226.925C55.8777 226.919 55.8847 226.91 55.8895 226.9C55.8943 226.89 55.8968 226.879 55.8968 226.868C55.8968 226.857 55.8943 226.847 55.8895 226.837C55.8847 226.827 55.8777 226.818 55.8691 226.811C54.0863 225.137 51.8943 223.962 49.5133 223.403C48.125 223.103 46.1359 223.434 45.8873 225.164C45.6542 226.796 47.3169 227.666 48.6741 227.92ZM47.1201 226.366C45.3693 224.045 48.7984 223.937 49.8137 224.201C50.469 224.381 51.1111 224.606 51.7355 224.874C53.019 225.445 54.2725 226.081 55.491 226.78C54.3618 226.863 53.2481 227.039 52.124 227.159C50.7461 227.293 48.0577 227.63 47.1201 226.366Z" fill="#263238"/>
<path d="M70.9739 86.9773C70.9739 86.9773 70.7563 98.306 68.1041 107.278C67.8918 108.024 67.6638 108.749 67.4152 109.453C67.4152 109.453 66.3792 109.453 62.2352 111.94L58.1326 220.626L30.1606 220.16C30.1606 220.16 34.978 162.574 34.9625 158.881C34.9625 152.95 38.4538 112.779 38.1171 111.779C34.7035 101.383 41.2251 86.2832 41.2251 86.2832L70.9739 86.9773Z" fill="#263238"/>
<path d="M57.2057 215.447C49.3269 214.929 34.0562 214.711 32.0982 214.996C32.0891 214.999 32.0811 215.005 32.0755 215.013C32.0699 215.021 32.0669 215.03 32.0669 215.04C32.0669 215.05 32.0699 215.059 32.0755 215.067C32.0811 215.075 32.0891 215.081 32.0982 215.084C34.0459 215.441 52.5955 215.913 57.2108 215.571C57.2273 215.57 57.2429 215.563 57.254 215.551C57.2652 215.539 57.2711 215.523 57.2704 215.506C57.2697 215.49 57.2625 215.474 57.2504 215.463C57.2382 215.452 57.2221 215.446 57.2057 215.447Z" fill="#37474F"/>
<path d="M59.293 186.516C59.0081 193.54 58.775 200.57 58.4228 207.594C58.4182 207.611 58.4079 207.627 58.3933 207.639C58.3788 207.65 58.3609 207.656 58.3425 207.656C58.3241 207.656 58.3062 207.65 58.2917 207.639C58.2771 207.627 58.2668 207.611 58.2622 207.594C58.4124 195.068 58.8113 182.538 59.2257 170.018C59.6401 157.498 60.1477 145.102 60.7279 132.649C61.0594 125.625 61.7224 119.181 62.1731 112.137C62.1731 112.086 62.1933 112.037 62.2292 112.001C62.2652 111.965 62.3139 111.945 62.3648 111.945C62.4156 111.945 62.4643 111.965 62.5003 112.001C62.5362 112.037 62.5564 112.086 62.5564 112.137C62.1731 124.657 61.2821 136.617 60.7952 149.137" fill="#37474F"/>
<path d="M37.247 187.283C37.8789 179.114 38.5523 170.945 39.2102 162.782L41.1838 138.306C41.5101 134.219 41.8313 130.137 42.1732 126.055C42.3424 124.014 42.515 121.972 42.6912 119.927C42.9394 117.915 43.0743 115.889 43.0952 113.862C43.0279 111.65 42.111 109.676 41.6085 107.552C41.1478 105.526 40.9459 103.45 41.0077 101.373C41.0957 97.1043 41.8468 93.4472 43.1729 88.8836C43.2402 88.6557 43.3905 88.635 43.3335 88.8836C42.4063 92.6961 41.5567 96.5448 41.3754 100.482C41.2714 102.441 41.3965 104.405 41.7484 106.335C42.1006 108.189 42.8621 109.909 43.3024 111.738C43.7427 113.566 43.4785 115.571 43.3024 117.482C43.1315 119.523 42.9812 121.564 42.8207 123.605C42.515 127.609 42.1835 131.613 41.8624 135.612C40.5466 151.867 39.2724 168.122 37.8945 184.372C37.1227 193.514 36.4648 202.678 35.5169 211.826C35.5169 211.893 35.4081 211.893 35.4133 211.826C35.8898 203.61 36.615 195.447 37.247 187.283Z" fill="#37474F"/>
<path d="M44.5298 102.046C45.0012 101.865 47.0317 101.373 47.5238 101.16C48.4528 100.76 49.3239 100.238 50.1138 99.6062C50.8755 98.9459 51.4596 98.1053 51.8129 97.1612C52.0252 96.6432 53.0509 93.9548 53.1182 93.9444C53.1313 93.9407 53.1453 93.9418 53.1576 93.9475C53.17 93.9532 53.1799 93.9631 53.1856 93.9755C53.284 94.1413 52.968 95.1462 52.8799 95.4777C52.7194 96.0579 52.564 96.638 52.3619 97.2078C52.0702 98.2885 51.4774 99.2639 50.6525 100.021C49.7931 100.742 48.808 101.299 47.7466 101.663C47.2073 101.862 46.6506 102.011 46.0838 102.108C45.5602 102.235 45.0176 102.265 44.4832 102.196C44.4521 102.17 44.478 102.046 44.5298 102.046Z" fill="#37474F"/>
<path d="M65.9804 105.527C66.053 104.553 66.1358 103.576 66.2291 102.595C66.4363 100.368 66.6849 98.1298 67.089 95.9283C67.12 95.7574 67.3635 95.8247 67.348 95.9905C67.1822 97.7206 66.975 99.4456 66.8041 101.171C66.6331 102.895 66.4104 104.626 66.3741 106.351C66.3741 106.869 66.3741 107.754 67.0268 107.905C67.8815 108.101 68.2907 106.977 68.5031 106.351C69.0018 104.815 69.3708 103.239 69.6064 101.642C69.8965 99.8237 70.0571 97.9848 70.2436 96.1563C70.2436 96.0889 70.3627 96.0993 70.3575 96.1563C70.3575 99.7823 70.2747 103.584 68.8968 107.003C68.6274 107.671 68.1612 108.35 67.3842 108.433H67.348C67.353 108.453 67.353 108.475 67.348 108.495C67.348 108.599 67.3013 108.697 67.2858 108.801C67.2703 108.904 67.2547 108.972 67.234 109.054C67.1977 109.231 67.1667 109.407 67.1252 109.572C67.1165 109.603 67.0971 109.63 67.0705 109.648C67.0438 109.666 67.0117 109.673 66.9799 109.67C66.9481 109.666 66.9186 109.651 66.8968 109.627C66.875 109.604 66.8624 109.573 66.861 109.541C66.8387 109.533 66.8194 109.518 66.8055 109.499C66.7917 109.48 66.7839 109.456 66.7833 109.433C66.8009 109.075 66.8833 108.724 67.0268 108.397C66.8177 108.352 66.623 108.257 66.4602 108.118C66.2974 107.98 66.1716 107.803 66.0944 107.604C65.9004 106.929 65.8615 106.219 65.9804 105.527Z" fill="#37474F"/>
<path d="M68.5805 108.78C65.7908 109.926 63.1061 111.313 60.5567 112.924C60.5374 112.936 60.5235 112.956 60.5174 112.978C60.5114 113 60.5137 113.023 60.524 113.044C60.5343 113.064 60.5517 113.08 60.573 113.089C60.5944 113.097 60.618 113.098 60.6396 113.09C63.3487 111.795 66.1097 110.546 68.7411 109.106C68.7844 109.085 68.8174 109.047 68.833 109.002C68.8485 108.956 68.8453 108.906 68.824 108.863C68.8027 108.82 68.7651 108.786 68.7194 108.771C68.6738 108.755 68.6238 108.759 68.5805 108.78Z" fill="#37474F"/>
<path d="M65.908 65.1229C67.9126 76.8193 75.118 93.2761 79.6194 94.5815C81.7588 95.2031 85.4521 96.7726 88.9434 95.0995C96.5839 91.4114 102.888 84.2526 106.405 80.8908C108.006 79.3627 99.2464 67.5575 97.2677 68.8525C92.6367 71.8776 86.3638 78.596 85.7525 78.3733C83.4889 77.56 76.6927 67.428 71.6837 60.4971C66.0789 52.7219 65.1102 60.4609 65.908 65.1229Z" fill="#AD6359"/>
<path d="M105.296 81.4607C106.897 80.7303 113.926 76.7313 115.656 75.1825C117.387 73.6337 121.955 68.8215 120.899 67.4125C119.842 66.0035 118.392 67.2882 118.392 67.2882C118.392 67.2882 120.008 64.9468 118.816 63.6052C117.625 62.2636 115.423 64.3667 115.423 64.3667C115.423 64.3667 116.91 61.8388 115.625 60.5853C114.341 59.3317 112.481 61.8181 112.481 61.8181C112.481 61.8181 113.947 59.57 112.481 58.9846C110.684 58.2802 108.451 62.7246 106.436 64.2941C105.98 64.6464 96.6562 70.852 96.6562 70.852L105.296 81.4607Z" fill="#AD6359"/>
<path d="M112.626 61.585C110.974 64.8484 109.689 65.9932 106.597 67.8424C106.54 67.8787 106.597 67.9771 106.643 67.946C109.834 66.392 111.657 65.2058 112.787 61.6575C112.844 61.4866 112.704 61.4296 112.626 61.585Z" fill="#263238"/>
<path d="M115.532 64.0818C113.517 67.3244 112.134 68.5728 109.042 70.7484C109 70.7795 109.042 70.8572 109.094 70.8313C112.305 68.951 114.092 67.7233 115.677 64.2113C115.75 64.0507 115.62 63.9315 115.532 64.0818Z" fill="#263238"/>
<path d="M118.21 67.371C116.035 70.365 114.584 71.8051 111.305 73.53C111.228 73.5715 111.305 73.6906 111.357 73.6543C114.869 72.2195 116.703 70.4376 118.293 67.4383C118.402 67.2415 118.345 67.1845 118.21 67.371Z" fill="#263238"/>
<path d="M94.626 71.8517C94.626 71.8517 96.325 67.5989 97.4802 65.8895C98.6353 64.1801 105.297 59.4197 106.41 60.7976C107.845 62.5795 104.54 66.0864 102.702 67.5938C102.702 67.5938 106.027 71.7119 104.199 74.7422C102.37 77.7725 94.626 71.8517 94.626 71.8517Z" fill="#AD6359"/>
<path d="M106.643 61.414C106.778 64.004 104.235 65.8066 102.556 67.4021C102.53 67.4248 102.511 67.4535 102.498 67.4856C102.486 67.5177 102.482 67.5523 102.486 67.5865C102.49 67.6206 102.502 67.6532 102.522 67.6816C102.541 67.7099 102.567 67.7331 102.598 67.7491C103.872 69.5673 105.146 72.5044 104.343 74.7059C104.337 74.7182 104.336 74.7325 104.34 74.7456C104.345 74.7588 104.354 74.7696 104.367 74.7758C104.379 74.782 104.393 74.783 104.406 74.7786C104.42 74.7742 104.43 74.7648 104.437 74.7525C105.623 72.5044 104.607 69.5155 103.079 67.6144C104.825 66.0086 107.296 64.0661 106.669 61.3984C106.69 61.3984 106.643 61.3984 106.643 61.414Z" fill="#263238"/>
<path d="M93.5273 71.2198L103.002 85.8067C103.002 85.8067 91.6626 95.9957 85.9076 96.0372C80.1526 96.0786 78.7643 94.9597 77.4383 94.1827C76.1122 93.4057 68.4302 81.1498 65.9076 65.5891C63.5196 50.8935 70.0516 57.3736 74.3976 63.7191C76.8633 67.3451 85.2756 77.441 85.7159 77.4461C86.1562 77.4513 93.5273 71.2198 93.5273 71.2198Z" fill="#455A64"/>
<path d="M91.4868 73.8253C92.989 76.0423 94.4187 78.306 95.8328 80.5593C96.5269 81.673 99.1118 86.2106 99.8629 87.5005C99.8939 87.5523 99.7541 87.63 99.7178 87.5833C98.9356 86.4437 96.1177 81.8853 95.4443 80.782C94.0716 78.4873 92.7093 76.1822 91.4246 73.8356C91.4206 73.8307 91.418 73.8248 91.417 73.8186C91.416 73.8123 91.4166 73.8059 91.4188 73.7999C91.4211 73.794 91.4249 73.7887 91.4298 73.7847C91.4347 73.7807 91.4405 73.778 91.4468 73.777C91.4531 73.7759 91.4595 73.7766 91.4654 73.7788C91.4714 73.781 91.4766 73.7847 91.4807 73.7896C91.4847 73.7945 91.4874 73.8004 91.4885 73.8066C91.4896 73.8129 91.489 73.8193 91.4868 73.8253Z" fill="#263238"/>
<path opacity="0.1" d="M75.61 91.8569C72.8024 87.4953 67.84 77.5135 65.8975 65.5891C64.6284 57.7673 65.8975 55.944 68.0109 56.9074C68.876 60.5697 73.2531 80.8339 75.61 91.8569Z" fill="black"/>
<path d="M41.2407 86.2832L71.4505 90.0128L72.9475 81.2689C72.9475 81.2689 75.9623 78.1609 76.2679 74.2863C76.5994 70.1889 70.1607 58.4925 69.6064 57.8139C67.3945 55.0892 63.2713 54.3692 61.0128 55.8144C48.9382 63.5533 41.2407 86.2832 41.2407 86.2832Z" fill="#263238"/>
<path d="M41.2407 86.2832L71.4505 90.0128L72.9475 81.2689C72.9475 81.2689 75.9623 78.1609 76.2679 74.2863C76.5994 70.1889 70.1607 58.4925 69.6064 57.8139C67.3945 55.0892 63.2713 54.3692 61.0128 55.8144C48.9382 63.5533 41.2407 86.2832 41.2407 86.2832Z" fill="#455A64"/>
<path d="M76.2731 74.2864C75.9623 78.1455 72.9476 81.269 72.9476 81.269L71.4661 90.0077L41.2563 86.2833C43.1315 81.0432 45.4393 75.9683 48.1561 71.1111C48.7414 71.2198 52.7715 74.5713 58.7803 71.686C62.4063 69.9507 63.3439 63.4343 63.3439 63.4343L72.585 63.2944C74.4394 67.1225 76.4596 71.9399 76.2731 74.2864Z" fill="#263238"/>
<path d="M64.5867 64.5791C64.5848 64.6537 64.5677 64.7271 64.5365 64.7949C64.5052 64.8626 64.4605 64.9233 64.405 64.9732C64.3495 65.0231 64.2844 65.0612 64.2137 65.0851C64.143 65.109 64.0681 65.1182 63.9938 65.1122C63.9194 65.1062 63.847 65.0851 63.781 65.0502C63.715 65.0153 63.6569 64.9673 63.6101 64.9092C63.5633 64.851 63.5289 64.784 63.5089 64.7121C63.4889 64.6402 63.4837 64.565 63.4938 64.491C63.493 64.4164 63.5084 64.3426 63.5389 64.2745C63.5693 64.2064 63.6141 64.1457 63.6702 64.0965C63.7262 64.0473 63.7923 64.0108 63.8637 63.9895C63.9352 63.9682 64.0104 63.9626 64.0843 63.973C64.1575 63.9788 64.2287 63.9992 64.2938 64.0331C64.359 64.0669 64.4167 64.1134 64.4635 64.1699C64.5104 64.2264 64.5454 64.2917 64.5666 64.362C64.5877 64.4323 64.5946 64.5061 64.5867 64.5791Z" fill="#263238"/>
<path d="M72.6471 63.973C72.6876 64.0293 72.7148 64.094 72.7268 64.1623C72.7387 64.2306 72.7351 64.3007 72.7163 64.3674C72.6974 64.4341 72.6637 64.4957 72.6177 64.5476C72.5718 64.5995 72.5147 64.6404 72.4507 64.6671C72.3868 64.6939 72.3176 64.7059 72.2484 64.7023C72.1791 64.6986 72.1116 64.6794 72.0508 64.6461C71.9901 64.6127 71.9376 64.5661 71.8973 64.5096C71.8571 64.4532 71.8301 64.3884 71.8183 64.32C71.7827 64.264 71.7597 64.2009 71.751 64.1351C71.7423 64.0693 71.7481 64.0023 71.7679 63.939C71.7878 63.8756 71.8213 63.8174 71.866 63.7683C71.9107 63.7192 71.9656 63.6805 72.0268 63.6549C72.0881 63.6292 72.1542 63.6173 72.2205 63.6198C72.2869 63.6224 72.3518 63.6394 72.4109 63.6697C72.47 63.7 72.5217 63.7429 72.5625 63.7952C72.6033 63.8476 72.6322 63.9083 72.6471 63.973Z" fill="#263238"/>
<path d="M41.2461 86.2832L48.7934 87.3192C51.3057 87.6559 53.818 88.0133 56.3354 88.3241C58.8529 88.6349 61.3652 88.9768 63.8827 89.2721C66.4002 89.5673 68.9228 89.8367 71.4559 90.0283C68.9125 89.9973 66.3795 89.7952 63.8516 89.5673C61.3238 89.3394 58.8011 89.0234 56.2836 88.7074C53.7662 88.3915 51.2642 87.9926 48.7467 87.5937C46.2293 87.1949 43.7377 86.7701 41.2461 86.2832Z" fill="#455A64"/>
<path d="M42.3027 83.455L49.7101 84.434C52.181 84.7603 54.6467 85.1074 57.1175 85.4078C59.5884 85.7083 62.0541 86.0398 64.5249 86.3247C66.9958 86.6096 69.4718 86.8738 71.9582 87.0654C69.4667 87.0343 66.9751 86.8427 64.4939 86.6199C62.0126 86.3972 59.5366 86.1019 57.0657 85.7911C54.5949 85.4803 52.1292 85.1177 49.6687 84.7292C47.2082 84.3407 44.7477 83.916 42.3027 83.455Z" fill="#455A64"/>
<path d="M44.1879 83.7554C43.9729 84.1958 43.7995 84.6554 43.6699 85.1281C43.6039 85.361 43.5537 85.5981 43.5196 85.8377C43.4782 86.076 43.4782 86.3195 43.4523 86.5733C43.2877 86.0843 43.2751 85.557 43.416 85.0607C43.5467 84.5622 43.814 84.1101 44.1879 83.7554Z" fill="#455A64"/>
<path d="M44.8511 83.8071C44.6386 84.2486 44.4652 84.708 44.3331 85.1798C44.2714 85.4134 44.223 85.6504 44.1881 85.8895C44.1467 86.1278 44.1415 86.3712 44.1208 86.6251C43.9562 86.1361 43.9435 85.6088 44.0845 85.1125C44.2137 84.6145 44.4792 84.1625 44.8511 83.8071Z" fill="#455A64"/>
<path d="M52.7715 85.0089C52.561 85.4531 52.3878 85.914 52.2535 86.3868C52.1893 86.6181 52.1409 86.8534 52.1085 87.0913C52.0671 87.3347 52.0619 87.5782 52.0412 87.832C51.8766 87.3431 51.8639 86.8157 52.0049 86.3195C52.1314 85.8189 52.3972 85.3645 52.7715 85.0089Z" fill="#455A64"/>
<path d="M53.4342 85.0608C53.22 85.5034 53.0466 85.9646 52.9162 86.4387C52.8519 86.6699 52.8035 86.9053 52.7711 87.1431C52.7297 87.3866 52.7245 87.6301 52.7038 87.8839C52.5366 87.3954 52.5239 86.8673 52.6675 86.3713C52.7953 85.8713 53.0609 85.4172 53.4342 85.0608Z" fill="#455A64"/>
<path d="M61.5566 89.1685C61.7672 88.7261 61.9405 88.267 62.0746 87.7958C62.1384 87.5627 62.1868 87.3256 62.2197 87.0861C62.2611 86.8479 62.2663 86.6044 62.287 86.3506C62.4519 86.8395 62.4646 87.3669 62.3233 87.8631C62.1926 88.3605 61.9273 88.8121 61.5566 89.1685Z" fill="#455A64"/>
<path d="M60.8936 89.0959C61.1054 88.6541 61.2787 88.1949 61.4116 87.7232C61.4753 87.4901 61.5237 87.253 61.5566 87.0136C61.598 86.7753 61.6032 86.5318 61.6239 86.2728C61.7912 86.7631 61.8039 87.2929 61.6602 87.7906C61.5336 88.2896 61.2677 88.7423 60.8936 89.0959Z" fill="#455A64"/>
<path d="M68.1558 89.6969C68.3676 89.2551 68.541 88.7958 68.6738 88.3242C68.7375 88.091 68.7859 87.854 68.8188 87.6145C68.8602 87.3762 68.8654 87.1328 68.8861 86.8738C69.0535 87.364 69.0661 87.8938 68.9224 88.3915C68.7958 88.8905 68.5299 89.3433 68.1558 89.6969Z" fill="#455A64"/>
<path d="M67.4927 89.645C67.7077 89.2027 67.8811 88.7415 68.0107 88.2671C68.0749 88.0358 68.1233 87.8005 68.1557 87.5626C68.1972 87.3192 68.2023 87.0757 68.2231 86.8219C68.3903 87.3104 68.4029 87.8385 68.2593 88.3345C68.1339 88.8354 67.8679 89.2902 67.4927 89.645Z" fill="#455A64"/>
<path d="M63.6234 78.1609C65.2297 78.3903 66.8136 78.756 68.3579 79.2539C69.1246 79.5129 69.8757 79.8134 70.6216 80.1293C70.9945 80.2847 71.3727 80.4298 71.7456 80.5696C72.1344 80.7311 72.5444 80.8358 72.9629 80.8804C72.9992 80.8804 72.994 80.9478 72.9629 80.9478C72.5698 80.9565 72.1766 80.934 71.7871 80.8804C71.4086 80.8167 71.036 80.7214 70.6734 80.5955C69.8964 80.3417 69.1194 80.0465 68.3527 79.7823C66.7987 79.2643 65.2447 78.7463 63.6234 78.3319C63.525 78.2956 63.5457 78.1506 63.6234 78.1609Z" fill="#263238"/>
<path d="M59.6191 79.6684C60.9386 79.5553 62.264 79.5277 63.587 79.5855C64.25 79.6218 64.9079 79.6995 65.5657 79.7979C65.8765 79.8445 66.1925 79.8963 66.5033 79.9533C66.8141 80.0103 67.1819 80.1346 67.5393 80.1916C67.5756 80.1916 67.5704 80.2641 67.5393 80.2589C67.213 80.2175 66.8815 80.233 66.5499 80.2123L65.5657 80.1501C64.9027 80.1035 64.2448 80.0724 63.587 80.0206C62.2661 79.9222 60.9504 79.8393 59.6295 79.7927C59.5518 79.772 59.5518 79.6736 59.6191 79.6684Z" fill="#263238"/>
<path d="M63.3177 63.4342L60.4272 56.1356L61.0126 55.8145L63.9911 63.4239L63.3177 63.4342Z" fill="#263238"/>
<path d="M71.7096 63.3099L68.498 56.7831L69.2906 57.156L72.3623 63.2995L71.7096 63.3099Z" fill="#263238"/>
<path d="M69.9118 36.9282C70.0799 37.048 70.2026 37.2211 70.26 37.4194C70.3175 37.6176 70.3064 37.8295 70.2285 38.0207C70.1506 38.2118 70.0105 38.3711 69.8308 38.4727C69.6511 38.5743 69.4424 38.6124 69.2384 38.5806C69.2642 38.7071 69.2642 38.8375 69.2384 38.9639C69.1773 39.2068 69.0303 39.4193 68.8246 39.5622C68.6189 39.705 68.3684 39.7685 68.1195 39.7409C68.14 39.8487 68.14 39.9594 68.1195 40.0673C68.064 40.3046 67.9168 40.5103 67.71 40.6395C67.5033 40.7686 67.2538 40.8105 67.0162 40.7562C66.8119 40.7085 66.6295 40.5935 66.4982 40.4299C66.4275 40.6491 66.2769 40.8337 66.0763 40.947C65.8757 41.0603 65.6398 41.0939 65.4156 41.0411C65.2893 41.0115 65.1709 40.9549 65.0685 40.8753V40.953C65.0233 41.1418 64.9197 41.3115 64.7724 41.438C64.6251 41.5644 64.4416 41.6411 64.2481 41.6572C64.0547 41.6733 63.8611 41.6279 63.6949 41.5275C63.5288 41.4271 63.3986 41.2768 63.3228 41.0981C63.2439 41.2665 63.1155 41.4069 62.9549 41.5006C62.7943 41.5944 62.6089 41.6371 62.4235 41.623C62.238 41.609 62.0612 41.5389 61.9165 41.422C61.7718 41.3051 61.6661 41.147 61.6134 40.9686C61.4044 41.0646 61.1693 41.0883 60.9452 41.0359C60.814 41.0064 60.6902 40.9502 60.5815 40.8709C60.4728 40.7916 60.3815 40.6909 60.3133 40.5749C60.2015 40.6465 60.0765 40.6948 59.9457 40.717C59.8149 40.7393 59.6809 40.735 59.5518 40.7044C59.3405 40.6517 59.1512 40.5337 59.0108 40.3672C58.8704 40.2008 58.786 39.9943 58.7696 39.7772C58.6516 39.8002 58.5302 39.8002 58.4122 39.7772C58.1953 39.7279 58.0037 39.6014 57.8731 39.4212C57.7425 39.2411 57.6819 39.0197 57.7025 38.7982C57.5577 38.8318 57.4071 38.8318 57.2622 38.7982C57.1042 38.7643 56.9567 38.6927 56.8324 38.5893C56.7081 38.486 56.6107 38.3541 56.5486 38.2049C56.4865 38.0557 56.4615 37.8936 56.4757 37.7326C56.4899 37.5716 56.5429 37.4164 56.6303 37.2804C56.577 37.2877 56.523 37.2877 56.4697 37.2804C56.2327 37.2261 56.0271 37.0799 55.8979 36.874C55.7687 36.6681 55.7265 36.4192 55.7808 36.1823C55.82 36.0171 55.9022 35.8652 56.019 35.742C55.7812 35.6632 55.5813 35.4984 55.4587 35.2799C55.336 35.0614 55.2994 34.805 55.356 34.5609C55.3971 34.3761 55.4906 34.207 55.6254 34.074C55.4749 33.9748 55.3538 33.8371 55.2745 33.6753C55.1952 33.5135 55.1606 33.3334 55.1743 33.1538C55.1881 32.9741 55.2496 32.8014 55.3526 32.6535C55.4556 32.5056 55.5963 32.388 55.76 32.3128C55.6869 32.2078 55.6367 32.0885 55.6127 31.9627C55.5887 31.837 55.5914 31.7076 55.6208 31.583C55.6501 31.4584 55.7053 31.3414 55.7828 31.2395C55.8604 31.1377 55.9585 31.0533 56.0708 30.9919C55.9699 30.8725 55.8986 30.7311 55.8626 30.579C55.8266 30.4269 55.827 30.2684 55.8636 30.1165C55.9118 29.9071 56.0258 29.7186 56.189 29.5788C56.3521 29.4389 56.5558 29.3551 56.7701 29.3395C56.7337 29.195 56.7337 29.0437 56.7701 28.8992C56.8206 28.6818 56.9481 28.4901 57.1291 28.3596C57.31 28.2292 57.5322 28.1687 57.7543 28.1895C57.7182 28.0485 57.7182 27.9006 57.7543 27.7596C57.7836 27.63 57.8383 27.5075 57.9153 27.3992C57.9922 27.2908 58.0899 27.1988 58.2026 27.1285C58.3153 27.0582 58.4409 27.0109 58.572 26.9894C58.7031 26.9679 58.8372 26.9726 58.9665 27.0033C59.0424 27.0182 59.1158 27.0444 59.184 27.081C59.188 27.0268 59.1966 26.9731 59.2099 26.9204C59.2763 26.6629 59.4391 26.4407 59.6648 26.2999C59.8904 26.1591 60.1615 26.1105 60.422 26.1641C60.5034 26.1826 60.5819 26.2122 60.6551 26.2522C60.6425 26.1577 60.6425 26.0618 60.6551 25.9673C60.7215 25.7087 60.8851 25.4856 61.1119 25.3447C61.3387 25.2038 61.6112 25.1559 61.8724 25.211C62.0063 25.2408 62.1326 25.2981 62.2431 25.3792C62.3537 25.4603 62.4462 25.5636 62.5148 25.6824C62.6219 25.5806 62.7497 25.5028 62.8894 25.4544C63.0291 25.406 63.1775 25.3881 63.3247 25.4019C63.4719 25.4156 63.6145 25.4607 63.7428 25.5341C63.8711 25.6075 63.9823 25.7075 64.0688 25.8274C64.1521 25.6689 64.2803 25.5385 64.4373 25.4524C64.5943 25.3662 64.7732 25.3283 64.9517 25.3432C65.1301 25.3581 65.3002 25.4252 65.4408 25.5362C65.5813 25.6472 65.686 25.7972 65.7419 25.9673C65.8502 25.8862 65.975 25.8298 66.1074 25.8021C66.2399 25.7743 66.3768 25.7759 66.5085 25.8067C66.6955 25.8495 66.8642 25.95 66.9907 26.0942C67.1172 26.2383 67.195 26.4187 67.213 26.6096C67.3279 26.5277 67.459 26.4714 67.5976 26.4446C67.7361 26.4178 67.8788 26.4211 68.0159 26.4542C68.2477 26.5065 68.4535 26.6393 68.5967 26.829C68.7399 27.0187 68.8113 27.2529 68.7981 27.4902C68.947 27.4641 69.1001 27.4756 69.2434 27.5237C69.3867 27.5718 69.5157 27.655 69.6186 27.7656C69.7216 27.8763 69.7953 28.011 69.8329 28.1574C69.8705 28.3038 69.8709 28.4573 69.8341 28.6039C69.8126 28.7121 69.7685 28.8145 69.7046 28.9044H69.7668C70.0254 28.9707 70.2484 29.1344 70.3893 29.3612C70.5302 29.588 70.5781 29.8604 70.523 30.1217C70.504 30.2175 70.4671 30.3089 70.4143 30.391C70.4949 30.3781 70.5771 30.3781 70.6577 30.391C70.8347 30.4321 70.9954 30.5248 71.1196 30.6574C71.2438 30.79 71.3257 30.9564 71.3552 31.1357C71.3846 31.3149 71.3601 31.4989 71.2848 31.6642C71.2095 31.8295 71.0868 31.9687 70.9323 32.0642C71.0385 32.158 71.1214 32.2754 71.1744 32.4069C71.2273 32.5384 71.2489 32.6805 71.2373 32.8218C71.2257 32.9631 71.1814 33.0998 71.1077 33.2209C71.0341 33.3421 70.9332 33.4444 70.8131 33.5197C70.9846 33.6343 71.1179 33.7974 71.1961 33.9882C71.2743 34.179 71.2938 34.3888 71.2521 34.5907C71.2104 34.7927 71.1093 34.9776 70.9619 35.1217C70.8145 35.2659 70.6274 35.3628 70.4246 35.4001C70.5378 35.5079 70.6204 35.6438 70.6641 35.7939C70.7078 35.944 70.7109 36.103 70.6733 36.2548C70.6269 36.4296 70.5299 36.5868 70.3944 36.7067C70.2589 36.8265 70.091 36.9036 69.9118 36.9282Z" fill="#263238"/>
<path d="M87.0786 36.3221C87.2459 36.4419 87.368 36.6144 87.4254 36.8119C87.4827 37.0095 87.472 37.2206 87.3948 37.4113C87.3177 37.602 87.1787 37.7612 87.0002 37.8634C86.8216 37.9656 86.6139 38.0047 86.4104 37.9745C86.4361 38.1028 86.4361 38.2348 86.4104 38.363C86.3555 38.609 86.2098 38.8252 86.0023 38.9683C85.7948 39.1115 85.541 39.1709 85.2915 39.1349C85.3122 39.2426 85.3122 39.3534 85.2915 39.4612C85.236 39.6985 85.0888 39.9043 84.882 40.0334C84.6753 40.1625 84.4258 40.2045 84.1882 40.1501C83.9822 40.1064 83.7986 39.9907 83.6702 39.8238C83.6243 39.9635 83.5456 40.0902 83.4408 40.1933C83.336 40.2964 83.208 40.3729 83.0676 40.4165C82.9272 40.4601 82.7784 40.4695 82.6336 40.4439C82.4888 40.4183 82.3523 40.3584 82.2353 40.2693C82.2403 40.2967 82.2403 40.3247 82.2353 40.3521C82.1917 40.5415 82.089 40.7121 81.9421 40.8393C81.7952 40.9666 81.6117 41.0438 81.418 41.0599C81.2244 41.0761 81.0306 41.0303 80.8646 40.9291C80.6987 40.828 80.5692 40.6767 80.4948 40.4972C80.4154 40.6655 80.2867 40.8056 80.1257 40.899C79.9647 40.9924 79.7792 41.0346 79.5936 41.0199C79.4081 41.0053 79.2315 40.9346 79.0871 40.8172C78.9427 40.6997 78.8375 40.5412 78.7854 40.3625C78.5769 40.4603 78.3418 40.4858 78.1172 40.435C77.9861 40.4052 77.8624 40.3489 77.7537 40.2696C77.6451 40.1904 77.5537 40.0898 77.4853 39.974C77.2576 40.1137 76.9848 40.1601 76.7238 40.1035C76.5094 40.055 76.3168 39.9376 76.1755 39.7692C76.0342 39.6008 75.9521 39.3907 75.9416 39.1711C75.8236 39.1943 75.7022 39.1943 75.5842 39.1711C75.3663 39.1217 75.1739 38.9944 75.0433 38.8132C74.9126 38.632 74.8526 38.4093 74.8745 38.1869C74.7283 38.2231 74.5753 38.2231 74.4291 38.1869C74.2995 38.1576 74.177 38.1029 74.0686 38.026C73.9603 37.949 73.8683 37.8514 73.798 37.7387C73.7277 37.6259 73.6804 37.5004 73.6589 37.3693C73.6374 37.2381 73.6421 37.1041 73.6728 36.9748C73.6956 36.8663 73.7377 36.7628 73.7971 36.6692C73.7456 36.677 73.6932 36.677 73.6417 36.6692C73.478 36.6365 73.3264 36.5596 73.2035 36.4467C73.0805 36.3338 72.9909 36.1893 72.9444 36.029C72.898 35.8687 72.8964 35.6987 72.9398 35.5376C72.9833 35.3764 73.0702 35.2303 73.191 35.1152C72.9492 35.0353 72.7453 34.8691 72.6182 34.6484C72.4911 34.4277 72.4498 34.1679 72.5021 33.9186C72.5467 33.7366 72.6398 33.5701 72.7715 33.4369C72.6014 33.32 72.4701 33.155 72.3945 32.963C72.3188 32.7711 72.3022 32.5609 72.3467 32.3594C72.3806 32.2099 72.4488 32.0703 72.5459 31.9516C72.6429 31.833 72.7663 31.7385 72.9061 31.6756C72.8334 31.5703 72.7834 31.4509 72.7593 31.3252C72.7352 31.1994 72.7376 31.0701 72.7663 30.9453C72.7957 30.8193 72.8515 30.7011 72.9301 30.5984C73.0087 30.4957 73.1082 30.4109 73.2221 30.3496C73.1215 30.231 73.0499 30.0906 73.013 29.9396C72.9761 29.7885 72.975 29.6309 73.0097 29.4793C73.0613 29.2712 73.1762 29.0841 73.3386 28.944C73.5009 28.8039 73.7028 28.7177 73.9162 28.6971C73.8798 28.5526 73.8798 28.4014 73.9162 28.2568C73.9656 28.0403 74.0923 27.8493 74.2726 27.7196C74.4529 27.5899 74.6743 27.5304 74.8953 27.5524C74.8645 27.409 74.8645 27.2607 74.8953 27.1172C74.9616 26.8597 75.1245 26.6375 75.3501 26.4967C75.5757 26.356 75.8469 26.3073 76.1074 26.361C76.1852 26.3777 76.2603 26.4056 76.3301 26.4438C76.3251 26.3887 76.3251 26.3332 76.3301 26.2781C76.3965 26.0205 76.5593 25.7984 76.785 25.6576C77.0106 25.5168 77.2817 25.4682 77.5422 25.5218C77.6258 25.5411 77.7061 25.5725 77.7805 25.615C77.7651 25.519 77.7651 25.421 77.7805 25.325C77.8469 25.0663 78.0105 24.8433 78.2373 24.7024C78.4641 24.5615 78.7366 24.5136 78.9978 24.5687C79.1315 24.599 79.2575 24.6565 79.368 24.7376C79.4785 24.8187 79.5711 24.9217 79.6401 25.0401C79.7603 24.9135 79.9115 24.8206 80.0787 24.7707C80.246 24.7207 80.4233 24.7153 80.5933 24.7552C80.8453 24.8163 81.0653 24.9697 81.2097 25.1851C81.2944 25.0272 81.4236 24.8975 81.5812 24.8122C81.7388 24.7268 81.918 24.6896 82.0966 24.705C82.2752 24.7205 82.4453 24.7879 82.586 24.899C82.7266 25.0101 82.8316 25.16 82.888 25.3301C83.0172 25.2301 83.1709 25.1667 83.333 25.1464C83.4951 25.1261 83.6597 25.1498 83.8095 25.2149C83.9594 25.28 84.0889 25.3842 84.1847 25.5166C84.2805 25.6489 84.3389 25.8046 84.3539 25.9673C84.469 25.8857 84.6001 25.8296 84.7386 25.8027C84.8771 25.7759 85.0197 25.7791 85.1568 25.8119C85.3867 25.8686 85.5902 26.0024 85.7335 26.1909C85.8767 26.3794 85.9511 26.6112 85.9442 26.8479C86.0931 26.8217 86.2461 26.8332 86.3895 26.8813C86.5328 26.9294 86.6618 27.0126 86.7647 27.1233C86.8677 27.234 86.9413 27.3687 86.979 27.5151C87.0166 27.6615 87.017 27.815 86.9802 27.9616C86.9574 28.0709 86.9134 28.1748 86.8507 28.2672H86.9077C87.1662 28.3325 87.3896 28.4948 87.5314 28.7206C87.6732 28.9464 87.7226 29.2181 87.6691 29.4793C87.6447 29.5751 87.6081 29.6673 87.5604 29.7539C87.6412 29.7438 87.723 29.7438 87.8038 29.7539C87.9808 29.7949 88.1415 29.8876 88.2657 30.0202C88.3898 30.1528 88.4718 30.3193 88.5013 30.4985C88.5307 30.6778 88.5062 30.8617 88.4309 31.027C88.3556 31.1923 88.2329 31.3315 88.0784 31.427C88.1996 31.5375 88.2894 31.6782 88.3386 31.8347C88.3877 31.9912 88.3944 32.158 88.3581 32.318C88.3329 32.4347 88.2847 32.5453 88.2162 32.6431C88.1477 32.741 88.0603 32.8242 87.9592 32.8878C88.1444 32.9986 88.2904 33.1645 88.3768 33.3623C88.4632 33.5601 88.4856 33.7799 88.441 33.9911C88.3945 34.1945 88.2857 34.3782 88.1296 34.5166C87.9736 34.655 87.7782 34.7411 87.5707 34.7629C87.6905 34.8834 87.7745 35.0347 87.8134 35.2001C87.8522 35.3655 87.8443 35.5384 87.7906 35.6996C87.7369 35.8607 87.6394 36.0038 87.5091 36.1128C87.3788 36.2218 87.2208 36.2925 87.0527 36.3169L87.0786 36.3221Z" fill="#263238"/>
<path d="M63.271 56.5033C63.3073 57.1405 65.5554 61.6471 68.394 62.0045C69.3161 62.1185 70.1656 57.099 70.1656 57.099L70.3106 56.7468L72.3826 51.7585L66.9695 46.796L66.177 46.1278C66.177 46.1278 65.7056 47.5264 65.141 49.2772C65.141 49.3601 65.0892 49.4378 65.0633 49.5259C65.0374 49.6139 64.9908 49.7175 64.9649 49.8108C64.8768 50.0698 64.7836 50.3288 64.7007 50.6033C64.6178 50.8779 64.5764 51.0022 64.5142 51.2197C64.452 51.4373 64.3899 51.6445 64.3225 51.8569C63.8639 53.3792 63.5125 54.9319 63.271 56.5033Z" fill="#AD6359"/>
<path d="M65.1152 49.2772C65.3856 50.8234 65.9889 52.2922 66.8833 53.582C67.7778 54.8718 68.942 55.9517 70.2952 56.7468L72.3672 51.7585L66.9541 46.796L66.1616 46.1278C66.1616 46.1278 65.6902 47.5264 65.1152 49.2772Z" fill="#263238"/>
<path d="M81.36 45.9206C80.0339 55.2964 74.2685 55.5554 72.2483 55.2446C70.4302 55.0012 64.2142 53.8719 64.556 44.4184C64.8979 34.9649 69.6894 32.6339 73.9163 32.9913C78.1432 33.3488 82.6912 36.55 81.36 45.9206Z" fill="#AD6359"/>
<path d="M79.9092 43.5949C79.6917 43.5275 79.5052 43.4291 79.298 43.3462C79.0722 43.293 78.8692 43.1697 78.7178 42.994C78.6839 42.9267 78.6731 42.8502 78.6872 42.7762C78.7012 42.7022 78.7393 42.6349 78.7955 42.5848C78.9197 42.5009 79.0643 42.4523 79.2138 42.4441C79.3634 42.4359 79.5124 42.4684 79.645 42.5381C79.9383 42.6316 80.1847 42.8336 80.334 43.1028C80.3603 43.165 80.3686 43.2334 80.3581 43.3002C80.3476 43.367 80.3186 43.4295 80.2744 43.4807C80.2302 43.5319 80.1726 43.5697 80.1081 43.5899C80.0436 43.61 79.9747 43.6118 79.9092 43.5949Z" fill="#263238"/>
<path d="M73.2844 43.9471C73.493 44.0202 73.7057 44.0807 73.9215 44.1284C74.1351 44.228 74.3763 44.2517 74.6053 44.1958C74.6731 44.1639 74.7286 44.1107 74.7632 44.0443C74.7979 43.9778 74.8097 43.9018 74.7969 43.828C74.7517 43.685 74.6686 43.557 74.5564 43.4576C74.4442 43.3582 74.3071 43.2911 74.1598 43.2634C73.8715 43.152 73.552 43.152 73.2637 43.2634C73.1936 43.2904 73.1337 43.3385 73.0922 43.4011C73.0507 43.4636 73.0296 43.5375 73.0319 43.6126C73.0342 43.6876 73.0597 43.7601 73.1049 43.82C73.1501 43.8799 73.2128 43.9244 73.2844 43.9471Z" fill="#263238"/>
<path d="M74.2839 45.0659C74.2839 45.0659 74.227 45.0659 74.227 45.1177C74.17 45.7652 73.9887 46.5008 73.3774 46.6717V46.708C74.1078 46.6199 74.3306 45.6668 74.2839 45.0659Z" fill="#263238"/>
<path d="M73.7917 44.2942C72.7557 44.087 72.419 46.1642 73.3773 46.3662C74.3356 46.5682 74.6515 44.4703 73.7917 44.2942Z" fill="#263238"/>
<path d="M73.3618 44.3408C73.165 44.4289 72.9526 44.605 72.7299 44.5894C72.5071 44.5739 72.3155 44.3253 72.186 44.0714C72.186 44.0455 72.1497 44.0714 72.1445 44.0714C72.0772 44.4703 72.1445 44.9002 72.5796 45.0297C73.0148 45.1592 73.2945 44.8433 73.4602 44.4599C73.4913 44.4237 73.4447 44.3045 73.3618 44.3408Z" fill="#263238"/>
<path d="M78.1998 45.6461C78.1998 45.6461 78.2464 45.6876 78.2413 45.7135C78.091 46.3454 78.0237 47.0965 78.5572 47.428C78.5572 47.428 78.5572 47.4695 78.5572 47.4643C77.8476 47.2208 77.9408 46.2211 78.1998 45.6461Z" fill="#263238"/>
<path d="M78.8941 45.0971C79.9301 45.2266 79.5986 47.3038 78.6299 47.1691C77.6612 47.0344 78.0187 44.9883 78.8941 45.0971Z" fill="#263238"/>
<path d="M79.3031 45.3043C79.4482 45.4389 79.5777 45.6669 79.7745 45.7135C79.9713 45.7601 80.1993 45.5684 80.3806 45.3768C80.3806 45.3768 80.4116 45.3768 80.4116 45.4027C80.3547 45.8015 80.1578 46.19 79.7641 46.2056C79.3705 46.2211 79.2047 45.8378 79.1736 45.4286C79.1684 45.3509 79.2358 45.2473 79.3031 45.3043Z" fill="#263238"/>
<path d="M73.1701 49.8782C73.2737 50.0698 73.3618 50.3185 73.5794 50.3962C73.8133 50.4625 74.0584 50.4802 74.2994 50.448C74.2994 50.448 74.3305 50.448 74.2994 50.4842C74.1725 50.5794 74.0224 50.6387 73.8648 50.656C73.7071 50.6733 73.5477 50.648 73.4032 50.5827C73.2868 50.5094 73.1943 50.4037 73.1372 50.2785C73.0801 50.1533 73.061 50.0141 73.0821 49.8782C73.1028 49.8523 73.1546 49.8523 73.1701 49.8782Z" fill="#263238"/>
<path d="M76.3765 48.6505C76.3765 48.6505 76.2729 49.6295 76.1641 50.075C76.1641 50.1164 76.0398 50.1112 75.8896 50.075C75.4902 50.052 75.1051 49.9188 74.7768 49.6902C74.4486 49.4616 74.1901 49.1465 74.0299 48.78C74.0268 48.77 74.0272 48.7593 74.0309 48.7495C74.0346 48.7397 74.0415 48.7315 74.0505 48.7261C74.0594 48.7207 74.0699 48.7185 74.0803 48.7198C74.0907 48.7212 74.1003 48.7259 74.1077 48.7334C74.5802 49.2651 75.2129 49.6287 75.9103 49.7694C75.9673 49.6554 76.0294 48.091 76.0968 48.1014C76.4361 48.2188 76.7584 48.3808 77.0551 48.5831C77.3244 46.5526 77.2726 44.4961 77.5731 42.4811C77.5731 42.4646 77.5796 42.4488 77.5913 42.4372C77.6029 42.4255 77.6187 42.4189 77.6352 42.4189C77.6517 42.4189 77.6675 42.4255 77.6792 42.4372C77.6908 42.4488 77.6974 42.4646 77.6974 42.4811C77.8225 44.683 77.7288 46.8919 77.4177 49.0752C77.3711 49.3342 76.5371 48.7696 76.3765 48.6505Z" fill="#263238"/>
<path d="M76.7445 35.9803C76.765 36.8267 76.5323 37.66 76.0763 38.3734C74.6052 40.2227 72.2172 39.0986 71.1708 39.7254C70.1245 40.3522 70.1037 41.9787 69.1972 42.5848C67.9437 43.4239 67.436 42.4967 67.1252 43.1805C66.8144 43.8642 65.7888 46.045 64.8046 46.1279C63.8204 46.2108 63.09 29.7228 74.9781 32.9552C74.9781 32.9552 76.8636 32.8567 79.0548 34.8044C82.1628 37.5809 81.6966 42.4397 81.6966 42.4397C81.2994 42.2583 80.946 41.9932 80.6606 41.6627C80.1996 41.0204 80.0027 40.5698 79.6505 40.145C79.1066 39.4716 78.6145 39.7461 78.0343 39.0779C77.1641 38.0678 76.7445 35.9803 76.7445 35.9803Z" fill="#263238"/>
<path d="M76.7546 35.4467C76.8033 36.0862 76.7789 36.7292 76.6821 37.3633C76.6213 37.9876 76.3921 38.5838 76.0191 39.0882C75.5854 39.5268 75.0076 39.7936 74.3926 39.8393C73.7761 39.9222 73.1338 39.8393 72.4604 39.9377C72.1147 39.992 71.7894 40.1367 71.5177 40.3573C71.2756 40.5998 71.0821 40.8864 70.9479 41.2016C70.7485 41.7902 70.3899 42.312 69.9119 42.709C69.658 42.8846 69.369 43.0028 69.0649 43.0556C68.7608 43.1084 68.4488 43.0944 68.1507 43.0146C67.5446 42.8748 66.9178 42.5536 66.2651 42.6831C66.9282 42.6054 67.4928 42.9628 68.1144 43.1597C68.4351 43.2595 68.7737 43.288 69.1065 43.2433C69.4394 43.1985 69.7584 43.0816 70.0414 42.9007C70.573 42.5073 70.9781 41.9672 71.2069 41.3467C71.3295 41.0668 71.5055 40.8135 71.7249 40.6008C71.9576 40.4188 72.2348 40.3025 72.5278 40.2641C73.1286 40.1605 73.7813 40.233 74.4392 40.1397C74.7722 40.0994 75.0971 40.0086 75.4027 39.8704C75.7192 39.738 75.9972 39.5277 76.2107 39.2591C76.5876 38.7107 76.8062 38.0691 76.8427 37.4047C76.8909 36.7508 76.8613 36.0936 76.7546 35.4467Z" fill="#263238"/>
<path d="M76.8585 36.0476C76.8478 36.6427 76.9157 37.2367 77.0605 37.814C77.1938 38.4243 77.5079 38.9803 77.9619 39.4094C78.1936 39.6077 78.4453 39.7813 78.713 39.9274C78.9474 40.067 79.1377 40.2699 79.262 40.5128C79.3553 40.8003 79.4767 41.0779 79.6246 41.3416C79.7917 41.5928 80.013 41.8035 80.2721 41.958C80.055 41.7634 79.8789 41.5274 79.7541 41.2639C79.6366 40.9956 79.5464 40.7162 79.4848 40.4299C79.3634 40.1265 79.1495 39.8692 78.8735 39.6943C78.6216 39.5438 78.384 39.3704 78.1639 39.1763C77.7553 38.7767 77.4557 38.2792 77.2936 37.7311C77.1117 37.1801 76.9664 36.6177 76.8585 36.0476Z" fill="#263238"/>
<path d="M66.6382 44.8639C66.6382 44.8639 65.2914 41.5176 63.8203 41.932C62.3491 42.3464 62.893 46.8686 64.2968 47.7958C64.4682 47.9271 64.6645 48.0224 64.8737 48.0759C65.0829 48.1294 65.3008 48.14 65.5142 48.1071C65.7276 48.0742 65.9321 47.9985 66.1155 47.8844C66.2989 47.7704 66.4573 47.6204 66.5812 47.4435L66.6382 44.8639Z" fill="#AD6359"/>
<path d="M64.0068 43.2271C64.0068 43.2271 63.9706 43.2271 64.0068 43.2633C64.9807 43.9471 65.3174 45.0763 65.4728 46.2004C65.4332 46.0799 65.3682 45.9694 65.2822 45.8763C65.1963 45.7831 65.0913 45.7095 64.9744 45.6604C64.8576 45.6113 64.7315 45.5878 64.6048 45.5916C64.4781 45.5954 64.3537 45.6264 64.2399 45.6824C64.2332 45.6851 64.2274 45.6897 64.2234 45.6957C64.2193 45.7017 64.2171 45.7088 64.2171 45.716C64.2171 45.7233 64.2193 45.7304 64.2234 45.7364C64.2274 45.7424 64.2332 45.747 64.2399 45.7497C64.4432 45.7323 64.6469 45.7789 64.8224 45.8829C64.9979 45.987 65.1366 46.1432 65.219 46.3299C65.3549 46.641 65.4573 46.9657 65.5246 47.2985C65.5557 47.4073 65.7421 47.397 65.7266 47.2985V47.2675C66.0685 45.8689 65.4469 43.7036 64.0068 43.2271Z" fill="#263238"/>
<path d="M103.826 59.5854H81.0596V82.3515H103.826V59.5854Z" fill="#263238"/>
<path d="M114.704 79.5854H91.9375V102.352H114.704V79.5854Z" fill="#263238"/>
<path d="M123.825 48.7075H101.059V71.4736H123.825V48.7075Z" fill="#263238"/>
<path d="M83.8257 70.4583H61.0596V93.2243H83.8257V70.4583Z" fill="#263238"/>
<path d="M133.295 40.5127H121.743V63.2788H133.295V40.5127Z" fill="#263238"/>
<path opacity="0.1" d="M133.295 40.5127H121.743V63.2788H133.295V40.5127Z" fill="black"/>
<path d="M124.167 71.3907H112.616V94.1568H124.167V71.3907Z" fill="#263238"/>
<path opacity="0.1" d="M124.167 71.3907H112.616V94.1568H124.167V71.3907Z" fill="black"/>
<path opacity="0.1" d="M87.8917 86.4231C86.8557 84.8069 85.9336 83.1701 84.9857 81.5228C84.0378 79.8756 83.1261 78.218 82.2092 76.55C81.2924 74.8821 80.4118 73.2141 79.5467 71.5202L78.2569 68.9872C77.8425 68.1325 77.4125 67.283 77.0137 66.3972C77.5317 67.2001 77.9979 68.0186 78.49 68.8318L79.9197 71.2975C80.8676 72.9396 81.7793 74.6023 82.6909 76.2651C83.6026 77.9279 84.4936 79.6062 85.3535 81.2949C86.2133 82.9836 87.0836 84.7033 87.8917 86.4231Z" fill="black"/>
<path opacity="0.1" d="M107.892 75.545C106.882 73.9341 105.934 72.292 104.986 70.6448C104.038 68.9975 103.126 67.3399 102.209 65.6771C101.292 64.0144 100.412 62.336 99.5467 60.6474L98.2569 58.1092C97.8425 57.2545 97.4125 56.4101 97.0137 55.5192C97.5317 56.3221 97.9979 57.1457 98.49 57.9538L99.9196 60.4194C100.868 62.0615 101.779 63.7243 102.691 65.3871C103.603 67.0498 104.494 68.7282 105.353 70.422C106.213 72.1159 107.084 73.8253 107.892 75.545Z" fill="black"/>
<path opacity="0.1" d="M87.8813 86.4024C89.4923 85.3974 91.1344 84.4443 92.7816 83.5016C94.4289 82.5588 96.0865 81.6368 97.7492 80.7251C99.412 79.8134 101.09 78.9276 102.779 78.0626L105.317 76.7727C106.172 76.3583 107.016 75.9284 107.907 75.5295C107.104 76.0475 106.281 76.5137 105.473 77.0058L103.007 78.4303C101.365 79.3835 99.7021 80.2951 98.0393 81.2068C96.3765 82.1185 94.6982 83.0095 93.0044 83.8693C91.3105 84.7292 89.5959 85.5995 87.8813 86.4024Z" fill="black"/>
<path d="M55.8744 60.1916C50.2696 66.5215 36.8793 90.3288 41.4222 94.4832C45.965 98.6375 70.5131 92.2299 77.3558 88.7386C79.3916 87.7026 71.2124 75.053 68.7829 74.8147C66.7576 74.6179 56.5633 79.6166 56.2525 79.0312C55.8951 78.3682 57.4025 73.3695 59.6454 64.3408C62.2561 53.929 58.3504 57.3944 55.8744 60.1916Z" fill="#AD6359"/>
<path d="M65.7681 75.5761C65.7681 75.5761 71.3159 72.2972 76.5528 70.883C80.1788 69.904 88.2855 68.6608 96.2834 76.4826C98.1845 78.337 99.5727 82.3308 95.3718 80.4246C92.3881 79.0726 90.9014 77.3166 89.0263 76.84C89.0263 76.84 90.1866 82.1236 88.2544 83.9522C86.5648 85.5518 84.7627 87.0284 82.8621 88.3707C82.5372 88.0794 82.231 87.768 81.9452 87.4383C81.9452 87.4383 79.9768 88.9923 76.1902 88.7178L65.7681 75.5761Z" fill="#AD6359"/>
<path d="M80.1374 70.4998C81.9038 71.3648 85.6179 73.2555 88.1198 75.8559C90.8911 78.7463 95.4599 85.0607 93.2998 87.0861C91.7458 88.5728 89.767 86.3143 89.767 86.3143C89.767 86.3143 91.1035 89.3239 89.3837 90.3547C87.8297 91.2923 86.4052 89.4586 86.4052 89.4586C86.4052 89.4586 86.9232 91.4218 85.219 92.0486C83.1936 92.7893 82.484 88.5521 79.7852 87.5264C79.1843 87.2778 80.1374 70.4998 80.1374 70.4998Z" fill="#AD6359"/>
<path d="M84.5767 78.2801C87.0853 80.3399 88.9067 83.1154 89.7981 86.2365C89.7981 86.3194 89.767 86.3764 89.7308 86.3039C88.3372 83.4364 86.5976 80.7504 84.5508 78.306C84.5508 78.306 84.556 78.2697 84.5767 78.2801Z" fill="#263238"/>
<path d="M81.7378 81.1654C82.9603 82.2376 85.7316 85.8274 86.4775 89.4223C86.4775 89.5 86.4413 89.557 86.4102 89.4844C85.1601 86.5542 83.5841 83.774 81.7119 81.1964C81.7119 81.1964 81.7223 81.155 81.7378 81.1654Z" fill="#263238"/>
<path d="M89.0108 76.8039C90.658 77.2442 91.7406 78.016 93.1548 78.938C93.843 79.4033 94.5573 79.8287 95.2941 80.2123C95.9675 80.5542 96.9673 81.0722 97.6614 80.492C97.8207 80.3121 97.9292 80.0929 97.9756 79.8571C98.022 79.6213 98.0048 79.3773 97.9256 79.1504C97.7082 78.493 97.3883 77.8741 96.9776 77.3167C96.9776 77.3167 96.9776 77.2649 97.0139 77.2856C97.4145 77.7924 97.7617 78.3392 98.0499 78.9173C98.2355 79.3128 98.2986 79.7548 98.2312 80.1864C98.0136 81.0929 96.9569 81.2224 96.1954 81.01C95.7436 80.8588 95.308 80.6627 94.8953 80.4247C94.4912 80.2071 94.1027 79.974 93.7142 79.7254C92.9269 79.2074 92.1602 78.6894 91.378 78.1714C90.616 77.6875 89.8235 77.2532 89.0056 76.8712C88.9538 76.8453 88.9797 76.7987 89.0108 76.8039Z" fill="#263238"/>
<path d="M92.585 82.4604C91.496 80.5141 90.285 78.6386 88.959 76.8453L88.9901 76.8142C90.2954 77.9849 92.4244 81.1395 92.932 82.1496C93.5254 83.2037 93.9006 84.3664 94.0354 85.5684C94.082 87.2778 92.9579 87.6404 92.5435 87.7233C92.0484 87.8249 91.5334 87.7555 91.0828 87.5265C90.5567 87.2217 90.0984 86.8128 89.736 86.3247C89.736 86.2988 89.736 86.2677 89.7671 86.2884C90.3783 86.9463 91.378 87.5834 92.3001 87.4384C92.5039 87.4117 92.7005 87.3449 92.8783 87.2418C93.0561 87.1386 93.2117 87.0012 93.3361 86.8375C93.5797 86.4222 93.6643 85.9326 93.5744 85.4596C93.414 84.4117 93.0796 83.398 92.585 82.4604Z" fill="#263238"/>
<path d="M65.7678 75.5761L74.1128 91.9864C74.1128 91.9864 43.3902 99.7564 40.5827 94.4417C37.7751 89.127 49.1918 67.7544 54.4443 61.4814C60.5205 54.2294 61.3855 56.6018 60.1734 62.937C58.9043 69.5725 56.3661 79.1814 56.3661 79.1814L65.7678 75.5761Z" fill="#455A64"/>
<path d="M65.6903 75.4674C65.5297 75.514 56.9102 78.622 56.6253 78.7774C56.6616 78.6324 58.6973 70.8883 58.9045 70.1268L58.9667 69.8989C59.1169 69.5622 59.2723 69.2255 59.4122 68.8629C59.5935 68.4174 59.7696 67.9719 59.9302 67.5264L59.3448 68.8318C59.2567 69.0338 59.1739 69.2358 59.091 69.443C59.236 68.925 59.3707 68.3708 59.5054 67.8321C59.7178 66.9722 59.9094 66.1123 60.0959 65.2421C60.0959 65.2421 60.0648 65.2058 60.0597 65.2421C59.6297 66.7546 59.1532 68.2465 58.7232 69.7539C58.2933 71.2612 56.04 79.3938 56.0503 79.3886C56.0607 79.3835 65.5505 75.6901 65.7369 75.6021C65.8043 75.5606 65.768 75.4415 65.6903 75.4674Z" fill="#263238"/>
<path d="M66.524 86.3558C65.6072 84.522 64.7007 82.6831 63.7165 80.8857C63.157 79.8497 62.5976 78.8137 62.0278 77.8243C62.022 77.8177 62.0143 77.8131 62.0058 77.8111C61.9972 77.8091 61.9883 77.81 61.9802 77.8134C61.9721 77.8169 61.9654 77.8228 61.9609 77.8303C61.9564 77.8379 61.9544 77.8466 61.9553 77.8554C62.8048 79.7305 63.6647 81.6109 64.5971 83.4446C65.5295 85.2783 66.4463 87.1069 67.3994 88.9199C67.9174 89.9559 68.5131 90.9919 69.1192 91.9657C69.1192 91.9657 69.1658 91.9657 69.1555 91.9657C68.3577 90.0387 67.4512 88.1998 66.524 86.3558Z" fill="#263238"/>
<path d="M216.247 51.023C211.181 60.6733 203.976 60.0362 201.852 62.3102C200.65 63.7994 199.535 65.3559 198.511 66.9722L187.954 62.9163C188.278 61.0311 188.491 59.1284 188.591 57.2183C188.55 54.1103 182.764 49.7487 185.483 39.1919C187.26 32.2558 196.283 23.6933 207.457 27.9875C218.63 32.2817 219.573 44.6775 216.247 51.023Z" fill="#263238"/>
<path d="M201.189 55.3638H182.888V55.8818H201.189V55.3638Z" fill="white"/>
<path d="M209.513 58.5651H191.212V59.0831H209.513V58.5651Z" fill="white"/>
<path d="M197.92 54.5091C197.704 54.5121 197.49 54.4734 197.288 54.3952C196.335 54.0274 195.802 52.8049 195.62 51.4322C195.459 51.5349 195.278 51.6019 195.088 51.6287C194.899 51.6555 194.706 51.6415 194.522 51.5876C192.968 50.9816 193.569 47.4902 193.595 47.3452L193.849 47.3918C193.849 47.4229 193.243 50.8158 194.616 51.3442C194.782 51.3855 194.955 51.3903 195.123 51.3581C195.291 51.3259 195.45 51.2575 195.589 51.1577C195.468 50.0479 195.592 48.9251 195.952 47.8684C196.299 46.9619 196.843 46.5786 197.433 46.8013C197.608 46.8652 197.762 46.9749 197.88 47.1189C197.997 47.2629 198.074 47.4359 198.102 47.6197C198.262 48.6247 197.257 50.2097 196.221 51.0334C196.107 51.1264 195.988 51.2129 195.864 51.2924C196.019 52.6184 196.501 53.815 197.382 54.1569C198.04 54.4107 198.905 54.1569 199.811 53.411L200.039 53.2193C199.956 53.0037 199.897 52.7796 199.863 52.5511C199.645 51.168 200.153 49.4431 200.977 48.7749C201.115 48.6506 201.284 48.5657 201.466 48.5293C201.648 48.4928 201.837 48.5061 202.013 48.5677C202.148 48.6184 202.266 48.705 202.356 48.8182C202.445 48.9314 202.502 49.0669 202.52 49.21C202.676 50.1994 201.676 52.0383 200.35 53.2763C200.529 53.6699 200.854 53.9783 201.256 54.1362C202.23 54.5091 203.976 52.5252 204.572 51.7275L204.779 51.8829C204.685 52.0072 202.515 54.9028 201.153 54.3796C200.703 54.212 200.333 53.8809 200.117 53.4524C200.06 53.5042 200.003 53.556 199.941 53.6026C199.383 54.1157 198.674 54.4338 197.92 54.5091ZM201.676 48.7593C201.484 48.7718 201.301 48.8484 201.158 48.9769C200.417 49.5778 199.935 51.2302 200.122 52.5097C200.15 52.6858 200.193 52.8591 200.251 53.0277C201.469 51.857 202.411 50.1476 202.272 49.2618C202.265 49.1622 202.229 49.0667 202.17 48.9868C202.11 48.9068 202.028 48.8458 201.935 48.8111C201.852 48.7785 201.765 48.761 201.676 48.7593ZM197.107 46.9981C196.641 46.9981 196.34 47.5783 196.195 47.9616C195.867 48.9376 195.745 49.9714 195.838 50.9971L196.061 50.8313C197.019 50.0543 197.988 48.5625 197.848 47.6612C197.828 47.5203 197.769 47.3879 197.677 47.2789C197.585 47.17 197.465 47.0888 197.33 47.0448C197.259 47.0166 197.183 47.0008 197.107 46.9981Z" fill="white"/>
<path d="M199.899 64.3873H185.944V67.1172H199.899V64.3873Z" fill="#263238"/>
<path d="M198.76 67.3451H184.805V70.075H198.76V67.3451Z" fill="#263238"/>
<path d="M197.625 70.303H183.67V73.0328H197.625V70.303Z" fill="#263238"/>
<path d="M203.96 22.7402C203.864 21.9869 203.864 21.2246 203.96 20.4713C204.036 19.7163 204.21 18.9745 204.478 18.2646C204.574 19.0179 204.574 19.7802 204.478 20.5335C204.4 21.2881 204.226 22.0296 203.96 22.7402Z" fill="#263238"/>
<path d="M193.378 24.2268C192.916 23.6224 192.535 22.9608 192.243 22.2584C191.929 21.5673 191.708 20.8374 191.585 20.088C192.495 21.3125 193.108 22.7308 193.378 24.232V24.2268Z" fill="#263238"/>
<path d="M184.95 30.8002C184.249 30.5083 183.589 30.127 182.987 29.6658C182.368 29.2228 181.811 28.7003 181.329 28.1118C182.031 28.4034 182.693 28.7847 183.298 29.2462C183.912 29.6922 184.467 30.2144 184.95 30.8002Z" fill="#263238"/>
<path d="M180.946 40.7096C179.432 40.8811 177.899 40.7039 176.465 40.1916C177.978 40.0202 179.511 40.1973 180.946 40.7096Z" fill="#263238"/>
<path d="M182.427 51.282C181.2 52.1877 179.783 52.8024 178.283 53.0794C178.888 52.6179 179.549 52.2366 180.252 51.945C180.946 51.6331 181.677 51.4103 182.427 51.282Z" fill="#263238"/>
<path d="M217.92 55.6694C219.32 56.2721 220.561 57.1904 221.546 58.3527C220.845 58.0621 220.185 57.6807 219.583 57.2183C218.965 56.7757 218.406 56.2551 217.92 55.6694Z" fill="#263238"/>
<path d="M221.93 45.7601C223.443 45.5886 224.976 45.7658 226.41 46.2781C224.897 46.4496 223.364 46.2724 221.93 45.7601Z" fill="#263238"/>
<path d="M220.448 35.1773C221.674 34.2697 223.092 33.6549 224.592 33.3799C223.989 33.841 223.33 34.2223 222.629 34.5143C221.933 34.8259 221.2 35.0487 220.448 35.1773Z" fill="#263238"/>
<path d="M213.87 26.7495C214.162 26.0492 214.543 25.3894 215.004 24.7863C215.447 24.1682 215.97 23.6109 216.558 23.1287C216.266 23.8301 215.883 24.4902 215.418 25.0919C214.977 25.7099 214.456 26.2672 213.87 26.7495Z" fill="#263238"/>
</svg>
