<svg width="33" height="33" viewBox="0 0 33 33" fill="none" xmlns="http://www.w3.org/2000/svg">
<mask id="mask0_742_647" style="mask-type:alpha" maskUnits="userSpaceOnUse" x="0" y="2" width="33" height="28">
<path d="M11.9623 11.8216C11.9623 13.6625 10.5297 15.1548 8.76241 15.1548C6.99517 15.1548 5.56253 13.6625 5.56253 11.8216C5.56253 9.98077 6.99517 8.48844 8.76241 8.48844C10.5297 8.48844 11.9623 9.98077 11.9623 11.8216Z" fill="#B4DBFF"/>
<path fill-rule="evenodd" clip-rule="evenodd" d="M0.500488 6.20039C0.500488 4.35951 1.93312 2.86719 3.70036 2.86719H29.2994C31.0666 2.86719 32.4992 4.35951 32.4992 6.20039V26.1996C32.4992 28.0404 31.0666 29.5328 29.2994 29.5328H27.1872C27.1802 29.5328 27.1731 29.5328 27.1661 29.5328H4.42964C4.42361 29.5328 4.41759 29.5328 4.41157 29.5328H3.70036C1.93312 29.5328 0.500488 28.0404 0.500488 26.1996V6.20039ZM3.70036 5.36709H29.2994C29.7412 5.36709 30.0993 5.74017 30.0993 6.20039V16.5868L23.1472 9.53362L11.3195 21.5331L7.83543 17.9984L2.90039 23.0052V6.20039C2.90039 5.74017 3.25855 5.36709 3.70036 5.36709Z" fill="#B4DBFF"/>
</mask>
<g mask="url(#mask0_742_647)">
<rect x="0.500488" y="0.199707" width="31.9987" height="31.9987" fill="#0D1214"/>
</g>
</svg>
