<svg width="328" height="218" viewBox="0 0 328 218" fill="none" xmlns="http://www.w3.org/2000/svg">
<path d="M295.833 33.6853H284.288V28.8065H295.833V33.6853Z" fill="#EBEBEB"/>
<path d="M289.393 22.672L283.673 22.55L280.765 22.502C279.797 22.502 278.82 22.502 277.848 22.4758H277.656V22.672V27.5509V27.7689H277.874L283.647 27.7384C285.57 27.7384 287.497 27.6904 289.419 27.6686H289.542V27.5509C289.542 26.7225 289.507 25.8984 289.485 25.0831L289.393 22.672ZM289.393 22.672L289.332 25.1354C289.332 25.9464 289.284 26.753 289.276 27.5509L289.393 27.4288C287.471 27.407 285.543 27.3634 283.621 27.359L277.848 27.3329L278.066 27.5509L278.044 22.672L277.848 22.8639C278.798 22.8639 279.749 22.8639 280.704 22.8639L283.568 22.8159L289.393 22.672Z" fill="#EBEBEB"/>
<path d="M302.273 22.6719L296.544 22.5368L293.64 22.4888C292.668 22.4888 291.691 22.4888 290.719 22.4626H290.527V22.6719L290.501 27.5508V27.7688H290.719L296.5 27.7252C298.427 27.7252 300.35 27.6772 302.273 27.6554H302.395V27.5377C302.395 26.7093 302.356 25.8852 302.338 25.0699L302.273 22.6719ZM302.273 22.6719L302.212 25.1222C302.212 25.9332 302.164 26.7398 302.155 27.5377L302.273 27.4156C300.35 27.3938 298.427 27.3502 296.5 27.3458L290.728 27.3197L290.946 27.5377V22.6588L290.749 22.8507C291.704 22.8507 292.65 22.8507 293.605 22.8507L296.474 22.8027L302.273 22.6719Z" fill="#EBEBEB"/>
<path d="M55.7148 63.8259L49.9945 63.7038L47.0908 63.6558C46.1185 63.634 45.1418 63.6558 44.1695 63.634H43.9777V63.8302L43.9516 68.7091V68.9271H44.1695L49.9422 68.8878C51.865 68.8878 53.7921 68.8355 55.7148 68.8137H55.8369V68.696C55.8369 67.8676 55.802 67.0436 55.7802 66.2326L55.7148 63.8259ZM55.7148 63.8259L55.6538 66.2893C55.6538 67.1046 55.6058 67.9068 55.5971 68.7047L55.7148 68.587C53.7921 68.5652 51.865 68.5172 49.9422 68.5129L44.1695 68.4867L44.3876 68.7047V63.8259L44.1914 64.0221C45.1419 64.0221 46.0923 64.0221 47.0472 63.9959L49.9161 63.948L55.7148 63.8259Z" fill="#EBEBEB"/>
<path d="M49.2753 62.5527H37.73V57.6739H49.2753V62.5527Z" fill="#EBEBEB"/>
<path d="M160.045 111.206L154.321 111.084L151.417 111.036C150.449 111.036 149.472 111.036 148.5 111.01H148.304V111.206L148.282 116.085V116.303H148.504L154.277 116.272C156.2 116.272 158.123 116.224 160.05 116.203H160.167V116.085C160.167 115.256 160.128 114.432 160.111 113.617L160.045 111.206ZM160.045 111.206L159.984 113.669C159.963 114.48 159.932 115.287 159.923 116.085L160.045 115.963C158.118 115.941 156.196 115.897 154.273 115.893L148.5 115.867L148.718 116.085L148.692 111.206L148.5 111.398C149.451 111.398 150.397 111.398 151.352 111.376L154.22 111.328L160.045 111.206Z" fill="#EBEBEB"/>
<path d="M153.601 109.933H142.056V105.054H153.601V109.933Z" fill="#EBEBEB"/>
<path d="M62.1548 57.6739L56.4344 57.5519L53.5307 57.5039C52.5584 57.5039 51.5818 57.5039 50.6095 57.5039H50.4177V57.7001L50.3915 62.5789V62.7969H50.6095L56.3821 62.7708C58.3092 62.7708 60.232 62.7228 62.1548 62.6967H62.2769V62.5789C62.2769 61.7505 62.2376 60.9265 62.2202 60.1155L62.1548 57.6739ZM62.1548 57.6739L62.0937 60.1417C62.0937 60.9527 62.0458 61.7549 62.0371 62.5528L62.1548 62.4351C60.232 62.4351 58.3092 62.3653 56.3821 62.3609L50.6095 62.3348L50.8275 62.5528V57.6739L50.6313 57.8701C51.5818 57.8701 52.5323 57.8701 53.4871 57.844L56.356 57.796L62.1548 57.6739Z" fill="#EBEBEB"/>
<path d="M42.5214 22.672L36.7967 22.55L33.893 22.502C32.9251 22.502 31.9484 22.502 30.9762 22.4758H30.78V22.672L30.7582 27.5509V27.7689H30.9762L36.7488 27.7384C38.6716 27.7384 40.5987 27.6904 42.5214 27.6686H42.6392V27.5509C42.6392 26.7225 42.6043 25.8984 42.5825 25.0831L42.5214 22.672ZM42.5214 22.672L42.4604 25.1354C42.4604 25.9464 42.4081 26.753 42.4037 27.5509L42.5214 27.4288C40.5987 27.407 38.6716 27.3634 36.7488 27.359L30.9762 27.3329L31.1942 27.5509L31.168 22.672L30.9762 22.8639C31.9266 22.8639 32.8771 22.8639 33.8276 22.8639L36.6877 22.781L42.5214 22.672Z" fill="#EBEBEB"/>
<path d="M202.267 58.3107L196.547 58.1886L193.643 58.1406C192.671 58.1406 191.694 58.1406 190.722 58.1406H190.53V58.3368L190.504 63.2157V63.4337H190.722L196.495 63.4075C198.422 63.4075 200.345 63.3595 202.267 63.3334H202.368V63.2157C202.368 62.3873 202.328 61.5632 202.311 60.7523L202.267 58.3107ZM202.267 58.3107L202.206 60.7784C202.206 61.5894 202.158 62.3916 202.15 63.1895L202.267 63.0718C200.345 63.0718 198.422 63.002 196.495 62.9977L190.722 62.9715L190.94 63.1895L190.918 58.3107L190.722 58.5069C191.677 58.5069 192.623 58.5069 193.578 58.4807L196.447 58.4327L202.267 58.3107Z" fill="#EBEBEB"/>
<path d="M295.166 172.931L289.446 172.809L286.538 172.761C285.57 172.739 284.593 172.761 283.621 172.734H283.429V172.931V177.809V178.027H283.647L289.42 178.001C291.342 178.001 293.27 177.949 295.192 177.927H295.314V177.809C295.314 176.981 295.28 176.157 295.258 175.346L295.166 172.931ZM295.166 172.931L295.105 175.394C295.105 176.209 295.057 177.012 295.048 177.809L295.166 177.692C293.243 177.67 291.316 177.622 289.394 177.618L283.621 177.591L283.839 177.809V172.931L283.643 173.127C284.593 173.127 285.544 173.127 286.499 173.101L289.363 173.053L295.166 172.931Z" fill="#EBEBEB"/>
<path d="M301.606 171.657H290.061V166.779H301.606V171.657Z" fill="#EBEBEB"/>
<path d="M37.268 177.805H25.7227V172.926H37.268V177.805Z" fill="#EBEBEB"/>
<path d="M255.494 104.147H292.21V142.005H255.494V104.147Z" fill="#EBEBEB"/>
<path d="M236.537 104.147H255.495V142.005H236.537V104.147Z" fill="#DBDBDB"/>
<path d="M237.841 139.59C239.245 136.898 240.637 134.198 242.018 131.489L246.129 123.344L250.188 115.169C251.534 112.44 252.867 109.7 254.187 106.951C252.783 109.639 251.392 112.34 250.014 115.052L245.903 123.192L241.843 131.371C240.495 134.1 239.161 136.84 237.841 139.59Z" fill="#EBEBEB"/>
<path d="M237.841 106.951C239.161 109.697 240.495 112.437 241.843 115.169L245.903 123.344L250.014 131.489C251.392 134.201 252.783 136.901 254.187 139.59C252.87 136.843 251.537 134.103 250.188 131.371L246.129 123.192L242.018 115.052C240.64 112.34 239.248 109.639 237.841 106.951Z" fill="#EBEBEB"/>
<path d="M257.91 135.579H261.986V139.655H257.91V135.579Z" fill="white"/>
<path d="M257.906 80.5989H294.621V104.147H257.906V80.5989Z" fill="#DBDBDB"/>
<path d="M238.948 80.5989H257.906V104.147H238.948V80.5989Z" fill="#C7C7C7"/>
<path d="M273.148 89.3886H273.924H274.509L274.84 88.7085L275.307 89.3886L275.943 87.9934L276.545 89.3886H278.263H279.047L279.331 88.4556L279.597 89.3886H280.107V80.5989H273.148V89.3886Z" fill="white"/>
<path d="M240.252 102.748C241.656 101.033 243.047 99.3165 244.425 97.5987L248.54 92.432L252.6 87.2349C253.948 85.4909 255.281 83.7469 256.598 82.0029C255.194 83.712 253.803 85.4284 252.425 87.1521L248.314 92.3274L244.25 97.5245C242.907 99.2598 241.575 101.001 240.252 102.748Z" fill="#DBDBDB"/>
<path d="M240.252 82.0029C241.575 83.7469 242.907 85.4909 244.25 87.2349L248.314 92.432L252.425 97.6074C253.803 99.331 255.194 101.047 256.598 102.757C255.275 101.013 253.942 99.2685 252.6 97.5245L248.54 92.3274L244.425 87.1521C243.05 85.4401 241.659 83.7237 240.252 82.0029Z" fill="#DBDBDB"/>
<path d="M253.345 142.005H297.089V184.38H253.345V142.005Z" fill="#DBDBDB"/>
<path d="M230.756 142.005H253.345V184.384H230.756V142.005Z" fill="#C7C7C7"/>
<path d="M271.505 152.473H272.429H273.127L273.523 151.671L274.081 152.473L274.836 150.817L275.551 152.473H277.6H278.533L278.873 151.37L279.187 152.473H279.797V142.005H271.505V152.473Z" fill="white"/>
<path d="M232.312 181.864C233.981 178.786 235.638 175.696 237.283 172.595L242.183 163.282L247.023 153.93C248.628 150.808 250.216 147.675 251.789 144.53C250.114 147.608 248.456 150.696 246.814 153.795L241.913 163.108L237.078 172.464C235.473 175.586 233.885 178.719 232.312 181.864Z" fill="#DBDBDB"/>
<path d="M232.312 144.53C233.885 147.672 235.473 150.805 237.078 153.93L241.913 163.282L246.814 172.599C248.453 175.695 250.111 178.783 251.789 181.864C250.216 178.722 248.628 175.589 247.023 172.464L242.183 163.108L237.283 153.795C235.643 150.696 233.987 147.608 232.312 144.53Z" fill="#DBDBDB"/>
<path d="M290.518 181.938H290.309V179.009H290.518V181.938Z" fill="white"/>
<path d="M291.02 181.938H290.811V179.009H291.02V181.938Z" fill="white"/>
<path d="M291.517 181.938H291.308V179.009H291.517V181.938Z" fill="white"/>
<path d="M292.014 181.938H291.805V179.009H292.014V181.938Z" fill="white"/>
<path d="M292.515 181.938H292.306V179.009H292.515V181.938Z" fill="white"/>
<path d="M293.013 181.938H292.803V179.009H293.013V181.938Z" fill="white"/>
<path d="M293.51 181.938H293.3V179.009H293.51V181.938Z" fill="white"/>
<path d="M294.006 181.938H293.797V179.009H294.006V181.938Z" fill="white"/>
<path d="M294.508 181.938H294.298V179.009H294.508V181.938Z" fill="white"/>
<path d="M288.26 181.716L289.058 181.938H287.183L287.985 181.712V180.635C287.41 180.56 287.183 179.998 287.183 179.013H289.058C289.058 179.994 288.831 180.56 288.26 180.635V181.716Z" fill="white"/>
<path d="M286.76 180.504H286.272V181.938H285.016V180.504H284.528L285.644 179.013L286.76 180.504Z" fill="white"/>
<path d="M261.437 49.717H289.324V80.5989H261.437V49.717Z" fill="#EBEBEB"/>
<path d="M247.036 49.717H261.437V80.6033H247.036V49.717Z" fill="#DBDBDB"/>
<path d="M248.03 78.48C249.094 76.2884 250.15 74.0866 251.2 71.8746L254.322 65.23L257.408 58.5592C258.429 56.3327 259.446 54.0975 260.46 51.8535C259.397 54.048 258.34 56.2513 257.291 58.4633L254.169 65.1036L251.082 71.7787C250.05 73.9965 249.033 76.2303 248.03 78.48Z" fill="#EBEBEB"/>
<path d="M248.03 51.8447C249.033 54.0858 250.05 56.321 251.082 58.5504L254.169 65.2212L257.291 71.8658C258.337 74.0749 259.394 76.2767 260.46 78.4712C259.458 76.2302 258.44 73.995 257.408 71.7656L254.322 65.0948L251.2 58.4545C250.153 56.2454 249.097 54.0422 248.03 51.8447Z" fill="#EBEBEB"/>
<path d="M289.376 185.723H294.939V190.667H289.376V185.723Z" fill="#DBDBDB"/>
<path d="M289.376 186.813L294.939 187.484V185.723H289.376V186.813Z" fill="#C7C7C7"/>
<path d="M260.282 185.723H265.845V190.667H260.282V185.723Z" fill="#DBDBDB"/>
<path d="M260.282 186.813L265.845 187.484V185.723H260.282V186.813Z" fill="#C7C7C7"/>
<path d="M231.188 185.723H236.751V190.667H231.188V185.723Z" fill="#DBDBDB"/>
<path d="M231.188 186.813L236.751 187.484V185.723H231.188V186.813Z" fill="#C7C7C7"/>
<path d="M228.122 184.384H298.004V185.723H228.122V184.384Z" fill="#DBDBDB"/>
<path d="M228.122 190.667H298.004V192.006H228.122V190.667Z" fill="#DBDBDB"/>
<path d="M176.74 143.727H213.456V184.384H176.74V143.727Z" fill="#EBEBEB"/>
<path d="M157.782 143.727H176.74V184.384H157.782V143.727Z" fill="#DBDBDB"/>
<path d="M159.09 181.585C160.494 178.696 161.885 175.789 163.263 172.865L167.374 164.119L171.438 155.338C172.784 152.402 174.116 149.459 175.436 146.509C174.032 149.398 172.64 152.305 171.259 155.229L167.148 163.975L163.089 172.756C161.74 175.689 160.407 178.632 159.09 181.585Z" fill="#EBEBEB"/>
<path d="M159.09 146.526C160.41 149.477 161.743 152.42 163.089 155.355L167.148 164.136L171.259 172.883C172.637 175.789 174.029 178.696 175.436 181.603C174.114 178.649 172.781 175.706 171.438 172.774L167.374 163.993L163.263 155.216C161.885 152.309 160.494 149.413 159.09 146.526Z" fill="#EBEBEB"/>
<path d="M174.717 92.1877H201.862V120.179H174.717V92.1877Z" fill="#EBEBEB"/>
<path d="M160.699 92.1877H174.717V120.179H160.699V92.1877Z" fill="#DBDBDB"/>
<path d="M185.983 98.6841H186.559H186.99L187.239 98.1827L187.583 98.6841L188.05 97.6552L188.495 98.6841H189.768H190.348L190.557 97.9996L190.753 98.6841H191.132V92.1877H185.983V98.6841Z" fill="#DBDBDB"/>
<path d="M161.663 118.396C162.7 116.405 163.729 114.408 164.75 112.405L167.802 106.384L170.806 100.337C171.8 98.3194 172.785 96.2935 173.762 94.2588C172.724 96.2499 171.695 98.2467 170.675 100.249L167.623 106.271L164.619 112.318C163.625 114.338 162.639 116.364 161.663 118.396Z" fill="#EBEBEB"/>
<path d="M161.663 94.2588C162.639 96.2935 163.625 98.3194 164.619 100.337L167.623 106.384L170.675 112.405C171.695 114.405 172.724 116.402 173.762 118.396C172.785 116.361 171.8 114.335 170.806 112.318L167.802 106.271L164.75 100.249C163.729 98.2351 162.7 96.2382 161.663 94.2588Z" fill="#EBEBEB"/>
<path d="M176.504 115.427H179.517V118.439H176.504V115.427Z" fill="white"/>
<path d="M197.21 118.64H197.058V116.473H197.21V118.64Z" fill="white"/>
<path d="M197.581 118.64H197.428V116.473H197.581V118.64Z" fill="white"/>
<path d="M197.947 118.64H197.794V116.473H197.947V118.64Z" fill="white"/>
<path d="M198.318 118.64H198.165V116.473H198.318V118.64Z" fill="white"/>
<path d="M198.684 118.64H198.531V116.473H198.684V118.64Z" fill="white"/>
<path d="M199.054 118.64H198.902V116.473H199.054V118.64Z" fill="white"/>
<path d="M199.421 118.64H199.268V116.473H199.421V118.64Z" fill="white"/>
<path d="M199.791 118.64H199.639V116.473H199.791V118.64Z" fill="white"/>
<path d="M200.157 118.64H200.005V116.473H200.157V118.64Z" fill="white"/>
<path d="M195.553 118.474L196.146 118.64H194.76L195.348 118.474V117.681C194.912 117.624 194.76 117.205 194.76 116.477H196.146C196.146 117.205 195.976 117.624 195.553 117.681V118.474Z" fill="white"/>
<path d="M194.437 117.58H194.075V118.64H193.146V117.58H192.78L193.609 116.477L194.437 117.58Z" fill="white"/>
<path d="M174.294 120.179H211.009V143.723H174.294V120.179Z" fill="#DBDBDB"/>
<path d="M155.337 120.179H174.294V143.727H155.337V120.179Z" fill="#C7C7C7"/>
<path d="M189.537 128.964H190.313H190.897L191.233 128.289L191.699 128.964L192.331 127.574L192.933 128.964H194.651H195.436L195.719 128.036L195.985 128.964H196.495V120.179H189.537V128.964Z" fill="white"/>
<path d="M156.645 142.328C158.049 140.613 159.439 138.897 160.817 137.179L164.929 132.003L168.992 126.806C170.335 125.062 171.668 123.318 172.99 121.574C171.586 123.283 170.194 124.998 168.813 126.719L164.702 131.894L160.643 137.091C159.294 138.833 157.961 140.578 156.645 142.328Z" fill="#DBDBDB"/>
<path d="M156.644 121.583C157.961 123.327 159.294 125.071 160.643 126.815L164.702 132.012L168.796 137.178C170.174 138.899 171.566 140.616 172.973 142.328C171.65 140.584 170.317 138.84 168.975 137.096L164.911 131.899L160.8 126.723C159.445 125.002 158.06 123.289 156.644 121.583Z" fill="#DBDBDB"/>
<path d="M208.786 185.723H214.349V190.667H208.786V185.723Z" fill="#DBDBDB"/>
<path d="M208.781 186.813L214.349 187.484V185.723H208.781V186.813Z" fill="#C7C7C7"/>
<path d="M179.692 185.723H185.255V190.667H179.692V185.723Z" fill="#DBDBDB"/>
<path d="M179.687 186.813L185.255 187.484V185.723H179.687V186.813Z" fill="#C7C7C7"/>
<path d="M150.597 185.723H156.161V190.667H150.597V185.723Z" fill="#DBDBDB"/>
<path d="M150.593 186.813L156.161 187.484V185.723H150.593V186.813Z" fill="#C7C7C7"/>
<path d="M147.532 184.384H217.414V185.723H147.532V184.384Z" fill="#DBDBDB"/>
<path d="M147.532 190.667H217.414V192.006H147.532V190.667Z" fill="#DBDBDB"/>
<path d="M123.095 38.0322H137.439V192.01H123.095V38.0322Z" fill="#C7C7C7"/>
<path d="M29.6029 38.0322H43.9473V192.01H29.6029V38.0322Z" fill="#EBEBEB"/>
<path d="M43.9473 53.1353H131.553V58.3062H43.9473V53.1353Z" fill="#DBDBDB"/>
<path d="M43.9473 86.5591H131.553V91.73H43.9473V86.5591Z" fill="#DBDBDB"/>
<path d="M43.9473 119.987H131.553V125.158H43.9473V119.987Z" fill="#DBDBDB"/>
<path d="M43.9473 153.411H131.553V158.582H43.9473V153.411Z" fill="#DBDBDB"/>
<path d="M43.9473 186.839H131.553V192.01H43.9473V186.839Z" fill="#DBDBDB"/>
<path d="M94.2619 58.5635H121.412V86.559H94.2619V58.5635Z" fill="#EBEBEB"/>
<path d="M80.2443 58.5635H94.2617V86.559H80.2443V58.5635Z" fill="#DBDBDB"/>
<path d="M105.532 65.0599H106.108H106.54L106.784 64.5628L107.128 65.0599L107.599 64.0309L108.044 65.0599H109.313H109.892L110.106 64.3754L110.302 65.0599H110.677V58.5635H105.532V65.0599Z" fill="#DBDBDB"/>
<path d="M81.2078 84.7714C82.2455 82.7833 83.2745 80.7864 84.2947 78.7808L87.3467 72.7597L90.3159 66.708C91.3158 64.6907 92.3011 62.6648 93.272 60.6301C92.2343 62.6212 91.2053 64.6181 90.1851 66.6208L87.1331 72.6419L84.129 78.6892C83.1582 80.7123 82.1845 82.7397 81.2078 84.7714Z" fill="#EBEBEB"/>
<path d="M81.2076 60.6345C82.1843 62.6692 83.1697 64.6951 84.1637 66.7124L87.1678 72.7597L90.2198 78.7808C91.24 80.7864 92.269 82.7833 93.3066 84.7715C92.33 82.7368 91.3447 80.7109 90.3506 78.6936L87.3465 72.6463L84.2945 66.6252C83.2743 64.6254 82.2453 62.6285 81.2076 60.6345Z" fill="#EBEBEB"/>
<path d="M96.0493 81.8066H99.062V84.8194H96.0493V81.8066Z" fill="white"/>
<path d="M77.1618 102.573H104.312V119.987H77.1618V102.573Z" fill="#DBDBDB"/>
<path d="M63.1442 102.573H77.1616V119.987H63.1442V102.573Z" fill="#C7C7C7"/>
<path d="M88.4367 109.07H89.0079H89.4395L89.6881 108.568L90.0325 109.07L90.5034 108.041L90.9481 109.07H92.2169H92.7967L93.006 108.385L93.2022 109.07H93.5815V102.573H88.4367V109.07Z" fill="white"/>
<path d="M64.1124 118.949C65.1501 117.685 66.179 116.416 67.1993 115.143L70.2513 111.315L73.2553 107.474C74.2494 106.189 75.2348 104.901 76.2114 103.611C75.1737 104.875 74.1448 106.144 73.1245 107.417L70.0725 111.245L67.0685 115.086C66.0701 116.368 65.0891 117.659 64.1124 118.949Z" fill="#DBDBDB"/>
<path d="M64.1124 103.611C65.0891 104.919 66.0701 106.188 67.0685 107.469L70.0725 111.315L73.1245 115.143C74.1448 116.416 75.1737 117.685 76.2114 118.949C75.2348 117.659 74.2494 116.371 73.2553 115.086L70.2513 111.245L67.1993 107.417C66.179 106.147 65.1501 104.878 64.1124 103.611Z" fill="#DBDBDB"/>
<path d="M306.044 192.01L270.532 191.901L235.024 191.866L164 191.792L92.9756 191.866L57.4634 191.901L21.9556 192.01L57.4634 192.115L92.9756 192.154L164 192.228L235.024 192.154L270.532 192.115L306.044 192.01Z" fill="#263238"/>
<path d="M121.102 36.8027H129.338V179.601H121.102V36.8027Z" fill="#37474F"/>
<path d="M124.686 42.209H125.75V174.195H124.686V42.209Z" fill="#263238"/>
<path d="M136.977 67.7936L129.338 69.9605V36.8027L136.977 38.9697V67.7936Z" fill="#263238"/>
<path d="M116.781 68.635L121.102 71.8876V148.379L116.781 151.632V68.635Z" fill="#263238"/>
<path d="M42.1511 148.611H116.781V151.632L42.1511 149.574V148.611Z" fill="#263238"/>
<path d="M137.081 181.542H286.424V142.868H249.421H219.59H214.053H148.975L137.081 153.799V181.542Z" fill="#263238"/>
<path opacity="0.2" d="M234.418 181.542H276.924C278.835 177.887 279.771 173.801 279.642 169.678C279.512 165.556 278.322 161.537 276.185 158.009C274.049 154.481 271.039 151.564 267.445 149.539C263.852 147.514 259.798 146.451 255.673 146.451C251.549 146.451 247.494 147.514 243.901 149.539C240.308 151.564 237.298 154.481 235.161 158.009C233.025 161.537 231.835 165.556 231.705 169.678C231.576 173.801 232.512 177.887 234.423 181.542H234.418Z" fill="black"/>
<path opacity="0.2" d="M137.081 153.795V181.542H163.852C165.642 178.1 166.571 174.276 166.559 170.396C166.547 166.517 165.593 162.698 163.78 159.268C161.968 155.838 159.35 152.899 156.151 150.704C152.953 148.508 149.27 147.121 145.418 146.662L144.916 146.609L137.081 153.795Z" fill="black"/>
<path opacity="0.2" d="M171.735 170.472H203.872L214.053 161.294V142.868H171.735V170.472Z" fill="black"/>
<path d="M148.975 142.868H129.338V147.612L137.081 153.795L148.975 142.868Z" fill="#37474F"/>
<g opacity="0.2">
<path d="M225.559 142.868H233.019L223.012 181.537H215.557L225.559 142.868Z" fill="white"/>
<path d="M220.414 142.868H222.515L212.509 181.537H210.407L220.414 142.868Z" fill="white"/>
</g>
<path d="M122.109 166.622L122.419 166.587L122.074 169.504L121.782 169.399C121.782 168.937 121.843 168.466 121.9 167.999C121.956 167.533 122.022 167.075 122.109 166.622ZM122.545 165.95L122.27 165.798C122.481 164.888 122.752 163.994 123.081 163.121H123.395L122.545 165.95ZM122.218 173.079L121.908 173.031C121.79 172.104 121.738 171.17 121.752 170.236L122.048 170.149L122.218 173.079ZM123.391 162.336C123.751 161.476 124.17 160.643 124.647 159.842L124.952 159.916L123.644 162.532L123.391 162.336ZM122.981 176.58H122.671C122.394 175.688 122.178 174.777 122.026 173.855L122.31 173.715L122.981 176.58ZM127.049 157.008L125.305 159.362L125.104 159.123C125.608 158.338 126.168 157.59 126.779 156.886L127.049 157.008ZM124.324 179.894L124.023 179.946C123.595 179.118 123.225 178.261 122.916 177.382L123.164 177.195L124.324 179.894ZM129.604 154.518L127.463 156.528L127.306 156.262C127.94 155.576 128.62 154.935 129.342 154.344L129.604 154.518ZM126.247 182.919L125.955 183.024C125.392 182.28 124.879 181.499 124.42 180.687L124.633 180.465L126.247 182.919ZM132.564 152.504L130.114 154.113L130.001 153.821C130.746 153.259 131.528 152.747 132.342 152.29L132.564 152.504ZM128.64 185.57L128.374 185.723C127.691 185.087 127.05 184.407 126.456 183.687L126.626 183.425L128.64 185.57ZM135.821 151.039L133.122 152.199L133.061 151.889C133.893 151.465 134.753 151.096 135.634 150.786L135.821 151.039ZM131.461 187.755L131.221 187.955C130.438 187.45 129.69 186.89 128.985 186.281L129.107 186.002L131.461 187.755ZM139.274 150.163L136.419 150.834V150.52C137.309 150.244 138.218 150.031 139.139 149.884L139.274 150.163ZM134.631 189.403L134.435 189.643C133.574 189.283 132.739 188.863 131.936 188.387L132.011 188.086L134.631 189.403ZM142.758 149.592L142.845 149.888L139.92 150.054L139.968 149.749C140.912 149.637 141.863 149.588 142.815 149.605L142.758 149.592ZM137.892 190.754C136.982 190.552 136.087 190.284 135.215 189.952L135.237 189.643L138.045 190.488L137.892 190.754ZM144.995 149.735C145.461 149.792 145.919 149.858 146.377 149.949L146.412 150.254L143.495 149.91L143.599 149.622C144.118 149.653 144.58 149.692 145.051 149.749L144.995 149.735ZM141.507 191.256C141.045 191.234 140.578 191.195 140.111 191.138C139.645 191.081 139.178 191.016 138.725 190.924L138.69 190.624L141.607 190.968L141.507 191.256ZM149.891 150.921L149.869 151.231L147.057 150.385L147.21 150.119C148.136 150.325 149.047 150.597 149.935 150.934L149.891 150.921ZM145.134 191.125C144.209 191.241 143.276 191.293 142.344 191.282L142.257 190.985L145.191 190.82L145.134 191.125ZM153.165 152.491L153.096 152.792L150.48 151.484L150.68 151.24C151.552 151.601 152.397 152.024 153.209 152.504L153.165 152.491ZM148.74 190.375C147.85 190.655 146.94 190.87 146.019 191.02L145.884 190.741L148.74 190.07V190.375ZM156.152 154.623L156.03 154.906L153.675 153.162L153.911 152.957C154.695 153.46 155.444 154.017 156.152 154.623ZM152.088 189.006C151.258 189.435 150.398 189.805 149.516 190.113L149.333 189.861L152.032 188.705L152.088 189.006ZM158.694 157.217L158.524 157.474L156.509 155.338L156.775 155.181C157.466 155.814 158.111 156.494 158.707 157.217H158.694ZM155.162 187.074C154.418 187.64 153.636 188.152 152.821 188.609L152.603 188.4L155.058 186.787L155.162 187.074ZM160.747 160.217L160.534 160.439L158.925 157.985L159.213 157.88C159.782 158.622 160.299 159.403 160.76 160.217H160.747ZM157.857 184.633C157.223 185.32 156.541 185.961 155.816 186.551L155.568 186.381L157.704 184.371L157.857 184.633ZM162.256 163.522L162.007 163.705L160.848 161.006L161.148 160.954C161.577 161.783 161.947 162.641 162.256 163.522ZM160.076 181.773C159.57 182.556 159.012 183.305 158.406 184.014L158.123 183.892L159.867 181.537L160.076 181.773ZM163.128 167.045L162.849 167.18L162.177 164.32H162.491C162.777 165.212 163.003 166.122 163.167 167.045H163.128ZM161.82 178.564C161.456 179.425 161.034 180.259 160.556 181.062L160.259 180.984L161.567 178.368L161.82 178.564ZM162.997 167.821L163.298 167.873C163.415 168.8 163.469 169.734 163.459 170.668L163.167 170.755L162.997 167.821ZM162.67 174.954L162.932 175.102C162.725 176.013 162.455 176.909 162.125 177.783L161.824 177.762L162.67 174.954ZM163.128 171.4L163.416 171.501C163.416 171.963 163.355 172.429 163.302 172.896C163.25 173.362 163.172 173.829 163.084 174.287L162.783 174.317L163.128 171.4Z" fill="#263238"/>
<path d="M122.074 169.504L121.782 169.399C121.782 169.678 121.756 169.957 121.756 170.236L122.052 170.149L122.222 173.079L121.913 173.031C121.943 173.31 121.987 173.585 122.03 173.859L122.314 173.72L122.985 176.58H122.676C122.754 176.847 122.841 177.113 122.937 177.378L123.186 177.19L124.324 179.894L124.023 179.946C124.145 180.194 124.28 180.447 124.42 180.687L124.633 180.465L126.247 182.919L125.954 183.024C126.12 183.246 126.299 183.46 126.473 183.687L126.643 183.425L128.684 185.57L128.418 185.723C128.618 185.91 128.832 186.098 129.046 186.281L129.168 186.002L131.522 187.746L131.282 187.947C131.518 188.099 131.753 188.252 131.997 188.383L132.072 188.082L134.688 189.39L134.491 189.63C134.749 189.743 135.006 189.843 135.272 189.939L135.294 189.63L138.101 190.475L137.949 190.741C138.219 190.807 138.494 190.859 138.769 190.911L138.734 190.611L141.65 190.955L141.55 191.243C141.841 191.243 142.12 191.251 142.387 191.269L142.3 190.972L145.234 190.807L145.178 191.112C145.457 191.081 145.731 191.042 146.01 190.994L145.875 190.715L148.74 190.07V190.375C149.006 190.292 149.276 190.209 149.538 190.113L149.355 189.861L152.053 188.705L152.11 189.006C152.359 188.884 152.598 188.749 152.843 188.609L152.625 188.4L155.079 186.787L155.184 187.075C155.406 186.905 155.62 186.734 155.838 186.556L155.589 186.386L157.726 184.376L157.878 184.637C158.07 184.432 158.258 184.227 158.441 184.014L158.157 183.892L159.901 181.537L160.098 181.773C160.255 181.537 160.398 181.302 160.534 181.062L160.237 180.984L161.545 178.368L161.785 178.568C161.89 178.311 161.999 178.054 162.09 177.788L161.789 177.766L162.635 174.958L162.897 175.106C162.958 174.836 163.014 174.566 163.062 174.291L162.762 174.322L163.106 171.405L163.394 171.505C163.394 171.23 163.42 170.951 163.424 170.672L163.132 170.759L162.962 167.825L163.263 167.877C163.232 167.598 163.193 167.324 163.145 167.049L162.866 167.184L162.195 164.324H162.509C162.426 164.058 162.334 163.792 162.243 163.526L161.994 163.709L160.834 161.01L161.135 160.958C161.009 160.71 160.874 160.461 160.739 160.221L160.525 160.444L158.916 157.989L159.204 157.884C159.038 157.662 158.864 157.448 158.685 157.222L158.515 157.479L156.501 155.342L156.767 155.186C156.566 154.994 156.357 154.811 156.143 154.627L156.021 154.911L153.667 153.167L153.902 152.962C153.671 152.809 153.431 152.661 153.187 152.526L153.117 152.827L150.501 151.519L150.702 151.275C150.44 151.161 150.179 151.061 149.917 150.965L149.895 151.275L147.083 150.429L147.236 150.163C146.965 150.097 146.691 150.041 146.416 149.993L146.451 150.298L143.534 149.954L143.639 149.666C143.355 149.644 143.076 149.64 142.797 149.635L142.884 149.932L139.959 150.097L140.007 149.792C139.728 149.823 139.453 149.862 139.174 149.914L139.314 150.193L136.458 150.865V150.551C136.192 150.634 135.921 150.721 135.66 150.817L135.847 151.07L133.148 152.229L133.087 151.92C132.839 152.051 132.595 152.181 132.351 152.321L132.573 152.535L130.123 154.143L130.009 153.851C129.787 154.026 129.573 154.196 129.351 154.375L129.613 154.549L127.472 156.559L127.315 156.293C127.123 156.494 126.935 156.703 126.757 156.916L127.04 157.039L125.296 159.393L125.096 159.153C124.939 159.389 124.793 159.628 124.66 159.873L124.965 159.947L123.657 162.563L123.417 162.362C123.304 162.619 123.199 162.881 123.107 163.147H123.421L122.571 165.959L122.296 165.806C122.24 166.081 122.179 166.351 122.131 166.631L122.44 166.596L122.074 169.504Z" fill="#263238"/>
<path d="M143.551 149.923L146.468 150.267L146.429 149.962L146.329 149.012L143.979 148.733L143.656 149.635L143.551 149.923Z" fill="#263238"/>
<path d="M147.101 150.398L149.913 151.244L149.935 150.934L149.996 149.988L147.728 149.304L147.253 150.132L147.101 150.398Z" fill="#263238"/>
<path d="M150.519 151.488L153.139 152.809L153.209 152.504L153.436 151.58L151.321 150.511L150.719 151.244L150.519 151.488Z" fill="#263238"/>
<path d="M153.689 153.145L156.043 154.906L156.17 154.623L156.549 153.747L154.652 152.334L153.924 152.944L153.689 153.145Z" fill="#263238"/>
<path d="M156.527 155.334L158.537 157.474L158.707 157.217L159.239 156.424L157.617 154.697L156.788 155.181L156.527 155.334Z" fill="#263238"/>
<path d="M158.938 157.985L160.547 160.439L160.761 160.217L161.423 159.528L160.124 157.549L159.226 157.88L158.938 157.985Z" fill="#263238"/>
<path d="M160.856 161.006L162.016 163.705L162.264 163.526L163.032 162.959L162.099 160.784L161.161 160.954L160.856 161.006Z" fill="#263238"/>
<path d="M162.216 164.32L162.888 167.18L163.167 167.045L164.026 166.622L163.481 164.315L162.526 164.32H162.216Z" fill="#263238"/>
<path d="M162.984 167.821L163.154 170.755L163.446 170.668L164.362 170.402L164.227 168.034L163.285 167.873L162.984 167.821Z" fill="#263238"/>
<path d="M163.128 171.4L162.784 174.317L163.084 174.286L164.044 174.177L164.318 171.832L163.416 171.5L163.128 171.4Z" fill="#263238"/>
<path d="M161.811 177.761L162.112 177.783L163.067 177.844L163.751 175.577L162.919 175.102L162.657 174.954L161.811 177.761Z" fill="#263238"/>
<path d="M160.246 180.988L160.542 181.062L161.475 181.289L162.539 179.174L161.807 178.564L161.567 178.363L160.246 180.988Z" fill="#263238"/>
<path d="M158.149 183.892L158.432 184.014L159.309 184.402L160.721 182.501L160.102 181.773L159.906 181.537L158.149 183.892Z" fill="#263238"/>
<path d="M155.581 186.386L155.829 186.556L156.631 187.088L158.354 185.466L157.87 184.637L157.717 184.376L155.581 186.386Z" fill="#263238"/>
<path d="M152.616 188.4L152.834 188.609L153.527 189.267L155.507 187.973L155.175 187.074L155.071 186.787L152.616 188.4Z" fill="#263238"/>
<path d="M149.346 189.86L149.529 190.113L150.091 190.885L152.271 189.943L152.101 189.006L152.045 188.705L149.346 189.86Z" fill="#263238"/>
<path d="M145.875 190.741L146.01 191.02L146.429 191.871L148.735 191.33L148.731 190.375V190.07L145.875 190.741Z" fill="#263238"/>
<path d="M142.3 190.998L142.387 191.295L142.653 192.215L145.016 192.08L145.178 191.138L145.234 190.833L142.3 190.998Z" fill="#263238"/>
<path d="M138.734 190.636L138.768 190.937L138.873 191.892L141.223 192.171L141.55 191.269L141.655 190.981L138.734 190.636Z" fill="#263238"/>
<path d="M135.294 189.656L135.272 189.965L135.207 190.916L137.474 191.6L137.949 190.767L138.102 190.501L135.294 189.656Z" fill="#263238"/>
<path d="M131.766 189.324L133.881 190.388L134.491 189.656L134.688 189.416L132.067 188.099L131.993 188.4L131.766 189.324Z" fill="#263238"/>
<path d="M128.654 187.153L130.55 188.57L131.278 187.955L131.518 187.755L129.164 186.002L129.042 186.281L128.654 187.153Z" fill="#263238"/>
<path d="M125.963 184.48L127.59 186.202L128.414 185.723L128.68 185.57L126.665 183.425L126.495 183.687L125.963 184.48Z" fill="#263238"/>
<path d="M123.783 181.376L125.078 183.355L125.976 183.024L126.269 182.919L124.655 180.465L124.442 180.687L123.783 181.376Z" fill="#263238"/>
<path d="M122.17 177.945L123.107 180.12L124.045 179.946L124.35 179.894L123.186 177.195L122.937 177.382L122.17 177.945Z" fill="#263238"/>
<path d="M121.185 174.282L121.721 176.589L122.671 176.584L122.985 176.58L122.314 173.72L122.031 173.859L121.185 174.282Z" fill="#263238"/>
<path d="M120.84 170.502L120.975 172.87L121.913 173.031L122.222 173.079L122.056 170.149L121.756 170.236L120.84 170.502Z" fill="#263238"/>
<path d="M121.163 166.726L120.884 169.076L121.782 169.399L122.074 169.504L122.418 166.587L122.109 166.622L121.163 166.726Z" fill="#263238"/>
<path d="M121.45 165.327L122.275 165.798L122.549 165.955L123.399 163.138L123.085 163.121L122.135 163.06L121.45 165.327Z" fill="#263238"/>
<path d="M122.667 161.73L123.395 162.336L123.635 162.536L124.956 159.916L124.651 159.842L123.727 159.615L122.667 161.73Z" fill="#263238"/>
<path d="M124.481 158.403L125.096 159.123L125.296 159.362L127.053 157.012L126.77 156.886L125.902 156.502L124.481 158.403Z" fill="#263238"/>
<path d="M126.853 155.438L127.328 156.262L127.485 156.528L129.625 154.518L129.364 154.344L128.57 153.816L126.853 155.438Z" fill="#263238"/>
<path d="M129.695 152.931L130.022 153.821L130.131 154.113L132.586 152.504L132.364 152.29L131.675 151.632L129.695 152.931Z" fill="#263238"/>
<path d="M132.935 150.956L133.1 151.889L133.162 152.199L135.86 151.039L135.673 150.786L135.11 150.019L132.935 150.956Z" fill="#263238"/>
<path d="M136.467 149.574L136.471 150.52L136.475 150.834L139.331 150.163L139.196 149.879L138.773 149.029L136.467 149.574Z" fill="#263238"/>
<path d="M139.972 150.067L142.902 149.901L142.815 149.605L142.549 148.693L140.186 148.829L140.024 149.762L139.972 150.067Z" fill="#263238"/>
<path d="M125.885 168.475C125.494 171.781 126.093 175.129 127.604 178.095C129.116 181.062 131.474 183.513 134.379 185.139C137.284 186.766 140.606 187.494 143.925 187.233C147.244 186.971 150.411 185.731 153.026 183.67C155.64 181.609 157.584 178.818 158.613 175.652C159.642 172.485 159.708 169.085 158.804 165.881C157.9 162.676 156.067 159.812 153.535 157.65C151.003 155.488 147.887 154.125 144.581 153.734C142.385 153.474 140.16 153.649 138.032 154.249C135.904 154.849 133.916 155.863 132.18 157.232C130.444 158.601 128.994 160.298 127.914 162.227C126.834 164.156 126.145 166.279 125.885 168.475Z" fill="#37474F"/>
<path d="M131.84 169.168C131.588 171.296 131.972 173.451 132.945 175.361C133.917 177.27 135.434 178.849 137.303 179.896C139.173 180.944 141.311 181.413 143.447 181.246C145.584 181.078 147.622 180.28 149.306 178.954C150.989 177.628 152.241 175.832 152.903 173.794C153.566 171.756 153.609 169.567 153.028 167.505C152.446 165.442 151.266 163.598 149.637 162.206C148.008 160.814 146.002 159.937 143.874 159.685C141.021 159.347 138.15 160.156 135.893 161.934C133.637 163.713 132.179 166.315 131.84 169.168Z" fill="#455A64"/>
<path d="M137.84 169.887C137.73 170.829 137.902 171.783 138.334 172.627C138.765 173.472 139.438 174.169 140.266 174.631C141.094 175.093 142.041 175.3 142.986 175.224C143.931 175.148 144.833 174.794 145.577 174.206C146.321 173.618 146.874 172.822 147.166 171.92C147.458 171.018 147.476 170.049 147.218 169.137C146.96 168.224 146.437 167.409 145.715 166.793C144.993 166.178 144.105 165.791 143.163 165.68C142.537 165.606 141.903 165.657 141.297 165.829C140.691 166 140.124 166.29 139.63 166.681C139.135 167.071 138.723 167.556 138.416 168.106C138.108 168.656 137.913 169.261 137.84 169.887Z" fill="#263238"/>
<path d="M141.869 176.654C143.096 176.799 144.339 176.577 145.439 176.016C146.54 175.454 147.45 174.579 148.054 173.501C148.657 172.422 148.928 171.189 148.83 169.957C148.733 168.725 148.272 167.55 147.507 166.58C146.742 165.61 145.706 164.888 144.531 164.507C143.355 164.125 142.093 164.101 140.904 164.437C139.715 164.772 138.652 165.453 137.849 166.393C137.047 167.333 136.542 168.49 136.397 169.717C136.204 171.363 136.672 173.017 137.698 174.318C138.724 175.618 140.224 176.459 141.869 176.654ZM143.268 164.808C144.381 164.94 145.429 165.399 146.281 166.127C147.132 166.855 147.749 167.819 148.053 168.897C148.358 169.976 148.335 171.12 147.99 172.185C147.644 173.251 146.99 174.19 146.111 174.885C145.232 175.579 144.166 175.997 143.049 176.086C141.933 176.175 140.815 175.932 139.836 175.386C138.858 174.84 138.063 174.016 137.553 173.019C137.042 172.022 136.839 170.896 136.968 169.783C137.148 168.29 137.912 166.928 139.092 165.996C140.273 165.064 141.774 164.637 143.268 164.808Z" fill="#263238"/>
<path d="M142.592 161.869C142.565 162.069 142.598 162.272 142.687 162.453C142.776 162.634 142.916 162.785 143.091 162.885C143.265 162.986 143.466 163.033 143.667 163.019C143.868 163.006 144.06 162.933 144.22 162.81C144.379 162.687 144.499 162.519 144.562 162.328C144.626 162.137 144.632 161.931 144.578 161.737C144.525 161.542 144.415 161.368 144.262 161.237C144.11 161.105 143.921 161.022 143.721 160.997C143.456 160.965 143.189 161.039 142.978 161.202C142.767 161.365 142.628 161.605 142.592 161.869Z" fill="#263238"/>
<path d="M146.883 163.016C146.763 163.177 146.693 163.37 146.683 163.57C146.673 163.771 146.722 163.97 146.824 164.142C146.927 164.315 147.079 164.453 147.26 164.539C147.441 164.626 147.643 164.657 147.842 164.628C148.041 164.6 148.226 164.513 148.376 164.379C148.525 164.245 148.632 164.07 148.681 163.875C148.731 163.681 148.723 163.476 148.656 163.287C148.59 163.097 148.469 162.932 148.308 162.811C148.201 162.731 148.08 162.672 147.95 162.639C147.82 162.606 147.685 162.598 147.553 162.617C147.42 162.636 147.293 162.681 147.178 162.75C147.063 162.818 146.963 162.909 146.883 163.016Z" fill="#263238"/>
<path d="M150.026 166.155C149.842 166.235 149.686 166.368 149.577 166.536C149.468 166.705 149.412 166.902 149.415 167.103C149.418 167.304 149.481 167.499 149.595 167.664C149.709 167.829 149.869 167.957 150.056 168.031C150.242 168.105 150.447 168.122 150.643 168.08C150.839 168.039 151.019 167.94 151.159 167.796C151.299 167.652 151.393 167.47 151.43 167.273C151.466 167.075 151.444 166.872 151.365 166.687C151.312 166.564 151.236 166.453 151.14 166.359C151.044 166.266 150.93 166.192 150.806 166.143C150.682 166.093 150.549 166.069 150.415 166.071C150.281 166.073 150.149 166.102 150.026 166.155Z" fill="#263238"/>
<path d="M151.182 170.441C150.982 170.414 150.779 170.447 150.598 170.536C150.417 170.624 150.266 170.765 150.166 170.939C150.065 171.114 150.018 171.314 150.032 171.516C150.045 171.717 150.118 171.909 150.241 172.069C150.364 172.228 150.532 172.347 150.723 172.411C150.914 172.475 151.12 172.481 151.314 172.427C151.509 172.374 151.683 172.264 151.814 172.111C151.946 171.959 152.029 171.77 152.054 171.57C152.085 171.305 152.011 171.039 151.848 170.828C151.685 170.617 151.446 170.478 151.182 170.441Z" fill="#263238"/>
<path d="M150.048 174.731C149.887 174.611 149.694 174.542 149.493 174.532C149.293 174.521 149.094 174.57 148.921 174.673C148.749 174.776 148.611 174.927 148.524 175.108C148.438 175.289 148.407 175.492 148.435 175.691C148.464 175.889 148.551 176.075 148.685 176.224C148.819 176.374 148.994 176.48 149.188 176.53C149.383 176.58 149.588 176.571 149.777 176.505C149.966 176.438 150.132 176.317 150.253 176.157C150.414 175.941 150.483 175.669 150.445 175.402C150.406 175.135 150.264 174.894 150.048 174.731Z" fill="#263238"/>
<path d="M146.9 177.888C146.821 177.703 146.688 177.546 146.52 177.437C146.351 177.327 146.154 177.27 145.953 177.273C145.752 177.276 145.556 177.338 145.391 177.452C145.225 177.566 145.097 177.726 145.023 177.913C144.948 178.099 144.931 178.304 144.973 178.5C145.015 178.697 145.114 178.877 145.258 179.017C145.402 179.157 145.584 179.251 145.782 179.288C145.979 179.324 146.183 179.301 146.368 179.222C146.615 179.115 146.809 178.914 146.908 178.664C147.008 178.415 147.005 178.135 146.9 177.888Z" fill="#263238"/>
<path d="M142.61 179.03C142.637 178.831 142.604 178.627 142.515 178.446C142.427 178.266 142.286 178.115 142.112 178.014C141.937 177.913 141.737 177.867 141.535 177.88C141.334 177.894 141.142 177.967 140.982 178.09C140.823 178.213 140.704 178.381 140.64 178.572C140.576 178.763 140.57 178.969 140.624 179.163C140.677 179.357 140.787 179.531 140.94 179.663C141.092 179.795 141.281 179.878 141.481 179.902C141.746 179.934 142.013 179.861 142.224 179.698C142.435 179.535 142.574 179.295 142.61 179.03Z" fill="#263238"/>
<path d="M138.319 177.888C138.44 177.727 138.51 177.534 138.521 177.333C138.531 177.133 138.482 176.933 138.38 176.761C138.277 176.588 138.126 176.449 137.944 176.363C137.763 176.276 137.56 176.245 137.361 176.274C137.162 176.302 136.976 176.389 136.827 176.524C136.677 176.658 136.571 176.834 136.522 177.028C136.472 177.223 136.481 177.428 136.548 177.618C136.615 177.807 136.737 177.973 136.898 178.093C137.114 178.253 137.385 178.321 137.651 178.283C137.917 178.244 138.157 178.102 138.319 177.888Z" fill="#263238"/>
<path d="M135.176 174.749C135.361 174.67 135.518 174.537 135.627 174.369C135.737 174.2 135.794 174.003 135.791 173.802C135.788 173.601 135.726 173.405 135.612 173.24C135.498 173.074 135.338 172.946 135.151 172.872C134.965 172.797 134.76 172.78 134.564 172.822C134.367 172.864 134.187 172.963 134.047 173.107C133.907 173.251 133.813 173.433 133.776 173.631C133.74 173.828 133.763 174.032 133.842 174.217C133.948 174.464 134.149 174.659 134.399 174.759C134.649 174.859 134.929 174.855 135.176 174.749Z" fill="#263238"/>
<path d="M134.021 170.476C134.22 170.503 134.423 170.47 134.604 170.381C134.785 170.293 134.936 170.152 135.037 169.978C135.137 169.803 135.184 169.603 135.171 169.401C135.157 169.2 135.084 169.008 134.961 168.848C134.838 168.689 134.67 168.57 134.479 168.506C134.288 168.442 134.082 168.436 133.888 168.49C133.693 168.543 133.519 168.653 133.388 168.806C133.256 168.958 133.173 169.147 133.149 169.347C133.115 169.612 133.188 169.88 133.352 170.091C133.515 170.303 133.755 170.441 134.021 170.476Z" fill="#263238"/>
<path d="M135.167 166.168C135.328 166.289 135.521 166.359 135.722 166.369C135.922 166.38 136.122 166.331 136.295 166.229C136.467 166.126 136.606 165.974 136.693 165.793C136.779 165.612 136.81 165.409 136.782 165.21C136.753 165.011 136.666 164.825 136.532 164.676C136.397 164.526 136.222 164.42 136.027 164.371C135.832 164.321 135.627 164.33 135.437 164.397C135.248 164.464 135.083 164.586 134.962 164.747C134.801 164.963 134.732 165.233 134.771 165.5C134.809 165.766 134.952 166.007 135.167 166.168Z" fill="#263238"/>
<path d="M138.302 163.025C138.381 163.209 138.513 163.366 138.681 163.476C138.849 163.586 139.046 163.643 139.247 163.641C139.448 163.639 139.644 163.577 139.809 163.464C139.975 163.35 140.104 163.19 140.179 163.004C140.254 162.818 140.272 162.613 140.23 162.417C140.189 162.22 140.091 162.04 139.947 161.9C139.804 161.759 139.622 161.664 139.424 161.627C139.227 161.59 139.023 161.612 138.838 161.69C138.591 161.797 138.396 161.997 138.295 162.247C138.195 162.497 138.197 162.777 138.302 163.025Z" fill="#263238"/>
<path d="M235.177 166.622L235.482 166.587L235.138 169.504L234.85 169.399C234.85 168.937 234.907 168.466 234.963 167.999C235.02 167.533 235.068 167.075 235.177 166.622ZM235.613 165.95L235.338 165.798C235.546 164.888 235.815 163.993 236.145 163.121H236.459L235.613 165.95ZM235.286 173.092L234.977 173.044C234.861 172.117 234.808 171.183 234.82 170.249L235.12 170.162L235.286 173.092ZM236.459 162.349C236.819 161.489 237.238 160.656 237.715 159.855L238.02 159.929L236.712 162.545L236.459 162.349ZM236.049 176.593H235.74C235.462 175.701 235.246 174.79 235.094 173.868L235.378 173.729L236.049 176.593ZM240.121 157.021L238.377 159.375L238.177 159.136C238.684 158.352 239.245 157.605 239.855 156.899L240.121 157.021ZM237.414 179.907L237.109 179.959C236.683 179.13 236.313 178.274 236.001 177.395L236.254 177.208L237.414 179.907ZM242.689 154.531L240.549 156.541L240.392 156.275C241.025 155.589 241.705 154.948 242.428 154.357L242.689 154.531ZM239.332 182.932L239.04 183.037C238.477 182.294 237.966 181.513 237.51 180.7L237.719 180.478L239.332 182.932ZM245.654 152.517L243.199 154.126L243.09 153.834C243.835 153.271 244.617 152.759 245.432 152.303L245.654 152.517ZM241.73 185.583L241.464 185.736C240.781 185.101 240.141 184.421 239.55 183.7L239.72 183.438L241.73 185.583ZM248.911 151.052L246.212 152.212L246.156 151.902C246.986 151.477 247.844 151.108 248.724 150.799L248.911 151.052ZM244.551 187.768L244.311 187.968C243.528 187.462 242.781 186.902 242.075 186.294L242.197 186.015L244.551 187.768ZM252.369 150.176L249.508 150.847V150.533C250.4 150.257 251.311 150.044 252.233 149.897L252.369 150.176ZM247.725 189.416L247.525 189.656C246.664 189.295 245.829 188.875 245.026 188.4L245.1 188.099L247.725 189.416ZM255.852 149.605L255.939 149.901L253.009 150.067L253.057 149.762C253.995 149.646 254.939 149.594 255.883 149.605H255.852ZM250.982 190.767C250.072 190.564 249.177 190.295 248.305 189.965V189.656L251.113 190.501L250.982 190.767ZM258.085 149.749C258.551 149.805 259.013 149.871 259.467 149.962L259.502 150.267L256.585 149.923L256.689 149.635C257.182 149.653 257.649 149.692 258.115 149.749H258.085ZM254.597 191.269C254.134 191.247 253.663 191.208 253.197 191.151C252.73 191.094 252.264 191.029 251.81 190.937L251.78 190.637L254.697 190.981L254.597 191.269ZM262.976 150.934V151.244L260.164 150.398L260.317 150.132C261.228 150.336 262.125 150.604 262.998 150.934H262.976ZM258.224 191.138C257.297 191.254 256.363 191.306 255.429 191.295L255.342 190.998L258.276 190.833L258.224 191.138ZM266.255 152.504L266.181 152.805L263.565 151.497L263.766 151.253C264.63 151.612 265.469 152.03 266.277 152.504H266.255ZM261.777 190.375C260.886 190.655 259.975 190.87 259.052 191.02L258.917 190.741L261.777 190.07V190.375ZM269.211 154.623L269.089 154.906L266.735 153.162L266.97 152.957C267.761 153.462 268.517 154.018 269.233 154.623H269.211ZM265.152 189.006C264.323 189.435 263.465 189.805 262.584 190.113L262.401 189.861L265.1 188.705L265.152 189.006ZM271.757 157.217L271.587 157.474L269.577 155.338L269.843 155.181C270.533 155.813 271.177 156.493 271.771 157.217H271.757ZM268.226 187.074C267.483 187.641 266.7 188.153 265.885 188.609L265.667 188.4L268.121 186.787L268.226 187.074ZM273.811 160.217L273.602 160.439L271.993 157.985L272.281 157.88C272.849 158.622 273.365 159.403 273.824 160.217H273.811ZM270.925 184.633C270.291 185.32 269.609 185.961 268.884 186.551L268.631 186.381L270.768 184.371L270.925 184.633ZM275.32 163.517L275.067 163.701L273.907 161.002L274.212 160.949C274.644 161.78 275.018 162.64 275.333 163.522L275.32 163.517ZM273.14 181.768C272.632 182.552 272.073 183.301 271.465 184.009L271.182 183.887L272.926 181.533L273.14 181.768ZM276.192 167.04L275.917 167.175L275.245 164.315H275.555C275.845 165.208 276.071 166.12 276.231 167.045L276.192 167.04ZM274.831 178.559C274.467 179.419 274.047 180.254 273.571 181.058L273.275 180.979L274.583 178.363L274.831 178.559ZM276.052 167.821L276.353 167.873C276.466 168.8 276.52 169.734 276.514 170.668L276.218 170.755L276.052 167.821ZM275.721 174.954L275.982 175.102C275.777 176.013 275.509 176.909 275.18 177.783L274.875 177.762L275.721 174.954ZM276.196 171.4L276.479 171.501C276.479 171.963 276.423 172.429 276.366 172.896C276.309 173.362 276.24 173.829 276.152 174.287L275.852 174.317L276.196 171.4Z" fill="#263238"/>
<path d="M235.138 169.504L234.85 169.399C234.85 169.678 234.824 169.957 234.819 170.236L235.12 170.149L235.286 173.092L234.976 173.044C235.007 173.323 235.051 173.598 235.094 173.872L235.378 173.733L236.049 176.58H235.739C235.822 176.846 235.905 177.112 236.001 177.378L236.254 177.19L237.414 179.889L237.108 179.942C237.235 180.19 237.366 180.443 237.51 180.683L237.719 180.46L239.332 182.915L239.04 183.02C239.21 183.242 239.384 183.456 239.563 183.682L239.733 183.421L241.743 185.566L241.477 185.719C241.678 185.906 241.913 186.094 242.105 186.277L242.227 185.998L244.582 187.742L244.342 187.942C244.577 188.095 244.817 188.247 245.057 188.378L245.131 188.077L247.747 189.385L247.546 189.625C247.804 189.739 248.061 189.839 248.327 189.935V189.625L251.135 190.471L250.982 190.737C251.257 190.802 251.527 190.855 251.802 190.907L251.771 190.606L254.688 190.951L254.588 191.238C254.862 191.238 255.141 191.26 255.42 191.265L255.333 190.968L258.268 190.802L258.215 191.108C258.494 191.077 258.769 191.038 259.044 190.99L258.908 190.711L261.769 190.039V190.345C262.035 190.262 262.301 190.179 262.567 190.083L262.383 189.83L265.082 188.675L265.135 188.976C265.383 188.853 265.627 188.718 265.867 188.579L265.649 188.369L268.104 186.756L268.208 187.044C268.431 186.874 268.644 186.704 268.867 186.525L268.614 186.355L270.75 184.345L270.907 184.607C271.099 184.402 271.282 184.197 271.465 183.983L271.182 183.861L272.926 181.507L273.122 181.742C273.275 181.507 273.419 181.271 273.558 181.032L273.262 180.953L274.57 178.337L274.809 178.538C274.918 178.28 275.023 178.023 275.119 177.757L274.814 177.735L275.66 174.928L275.921 175.076C275.987 174.806 276.039 174.535 276.091 174.261L275.79 174.291L276.135 171.374L276.418 171.474C276.418 171.2 276.444 170.921 276.453 170.642L276.157 170.729L275.991 167.795L276.292 167.847C276.261 167.568 276.222 167.293 276.17 167.019L275.895 167.154L275.224 164.294H275.533C275.452 164.026 275.365 163.76 275.272 163.496L275.019 163.679L273.859 160.98L274.164 160.928C274.033 160.679 273.903 160.431 273.763 160.191L273.554 160.413L271.945 157.958L272.233 157.854C272.063 157.631 271.893 157.418 271.709 157.191L271.539 157.448L269.529 155.312L269.795 155.155C269.59 154.963 269.386 154.78 269.172 154.597L269.05 154.88L266.695 153.136L266.931 152.931C266.695 152.779 266.456 152.631 266.216 152.495L266.142 152.796L263.526 151.488L263.726 151.244C263.469 151.131 263.207 151.03 262.941 150.935V151.244L260.129 150.398L260.282 150.132C260.007 150.067 259.737 150.01 259.458 149.962L259.493 150.267L256.576 149.923L256.681 149.635C256.401 149.613 256.122 149.609 255.843 149.605L255.931 149.901L253.001 150.067L253.049 149.762C252.77 149.792 252.495 149.831 252.22 149.884L252.36 150.163L249.5 150.834V150.52C249.234 150.603 248.968 150.69 248.702 150.786L248.889 151.039L246.19 152.199L246.134 151.889C245.885 152.02 245.637 152.151 245.397 152.29L245.619 152.504L243.165 154.113L243.056 153.821C242.833 153.995 242.62 154.165 242.393 154.344L242.654 154.518L240.514 156.528L240.357 156.262C240.165 156.463 239.982 156.672 239.803 156.886L240.086 157.008L238.342 159.362L238.142 159.123C237.989 159.358 237.837 159.598 237.706 159.842L238.011 159.916L236.703 162.532L236.459 162.332C236.345 162.589 236.245 162.85 236.149 163.116H236.463L235.617 165.929L235.343 165.776C235.282 166.051 235.221 166.321 235.177 166.6L235.482 166.565L235.138 169.504Z" fill="#263238"/>
<path d="M256.615 149.923L259.532 150.267L259.497 149.962L259.392 149.012L257.047 148.733L256.72 149.635L256.615 149.923Z" fill="#263238"/>
<path d="M260.168 150.398L262.981 151.244L262.998 150.934L263.059 149.988L260.792 149.304L260.321 150.132L260.168 150.398Z" fill="#263238"/>
<path d="M263.582 151.488L266.203 152.809L266.277 152.504L266.503 151.58L264.389 150.511L263.783 151.244L263.582 151.488Z" fill="#263238"/>
<path d="M266.757 153.145L269.107 154.906L269.233 154.623L269.617 153.747L267.716 152.334L266.992 152.944L266.757 153.145Z" fill="#263238"/>
<path d="M269.59 155.334L271.6 157.474L271.77 157.217L272.302 156.424L270.68 154.697L269.856 155.181L269.59 155.334Z" fill="#263238"/>
<path d="M272.006 157.985L273.615 160.439L273.824 160.217L274.487 159.528L273.188 157.549L272.294 157.88L272.006 157.985Z" fill="#263238"/>
<path d="M273.92 161.006L275.079 163.705L275.332 163.526L276.1 162.959L275.162 160.784L274.225 160.954L273.92 161.006Z" fill="#263238"/>
<path d="M275.284 164.32L275.956 167.18L276.23 167.045L277.089 166.622L276.544 164.315L275.594 164.32H275.284Z" fill="#263238"/>
<path d="M276.052 167.821L276.218 170.755L276.514 170.668L277.43 170.402L277.29 168.034L276.353 167.873L276.052 167.821Z" fill="#263238"/>
<path d="M276.196 171.4L275.852 174.317L276.152 174.286L277.107 174.177L277.386 171.832L276.479 171.5L276.196 171.4Z" fill="#263238"/>
<path d="M274.875 177.761L275.18 177.783L276.13 177.844L276.815 175.577L275.982 175.102L275.721 174.954L274.875 177.761Z" fill="#263238"/>
<path d="M273.314 180.988L273.61 181.062L274.539 181.289L275.607 179.174L274.87 178.564L274.63 178.363L273.314 180.988Z" fill="#263238"/>
<path d="M271.217 183.892L271.496 184.014L272.372 184.402L273.785 182.501L273.17 181.773L272.974 181.537L271.217 183.892Z" fill="#263238"/>
<path d="M268.644 186.386L268.897 186.556L269.695 187.088L271.421 185.466L270.937 184.637L270.78 184.376L268.644 186.386Z" fill="#263238"/>
<path d="M265.68 188.4L265.898 188.609L266.591 189.267L268.57 187.973L268.239 187.074L268.134 186.787L265.68 188.4Z" fill="#263238"/>
<path d="M262.414 189.86L262.597 190.113L263.159 190.885L265.335 189.943L265.165 189.006L265.113 188.705L262.414 189.86Z" fill="#263238"/>
<path d="M258.939 190.741L259.074 191.02L259.497 191.871L261.803 191.33L261.799 190.375V190.07L258.939 190.741Z" fill="#263238"/>
<path d="M255.364 190.998L255.451 191.295L255.717 192.215L258.084 192.08L258.246 191.138L258.298 190.833L255.364 190.998Z" fill="#263238"/>
<path d="M251.801 190.636L251.832 190.937L251.941 191.892L254.287 192.171L254.618 191.269L254.718 190.981L251.801 190.636Z" fill="#263238"/>
<path d="M248.357 189.656L248.335 189.965L248.27 190.916L250.542 191.6L251.012 190.767L251.165 190.501L248.357 189.656Z" fill="#263238"/>
<path d="M244.83 189.324L246.944 190.388L247.555 189.656L247.755 189.416L245.135 188.099L245.057 188.4L244.83 189.324Z" fill="#263238"/>
<path d="M241.717 187.153L243.614 188.57L244.342 187.955L244.582 187.755L242.227 186.002L242.105 186.281L241.717 187.153Z" fill="#263238"/>
<path d="M239.031 184.48L240.653 186.202L241.477 185.723L241.743 185.57L239.733 183.425L239.563 183.687L239.031 184.48Z" fill="#263238"/>
<path d="M236.851 181.376L238.146 183.355L239.04 183.024L239.332 182.919L237.719 180.465L237.51 180.687L236.851 181.376Z" fill="#263238"/>
<path d="M235.234 177.945L236.171 180.12L237.108 179.946L237.414 179.894L236.254 177.195L236.001 177.382L235.234 177.945Z" fill="#263238"/>
<path d="M234.248 174.282L234.789 176.589L235.739 176.584L236.049 176.58L235.377 173.72L235.094 173.859L234.248 174.282Z" fill="#263238"/>
<path d="M233.904 170.502L234.039 172.87L234.976 173.031L235.286 173.079L235.12 170.149L234.819 170.236L233.904 170.502Z" fill="#263238"/>
<path d="M234.226 166.726L233.947 169.076L234.85 169.399L235.137 169.504L235.482 166.587L235.177 166.622L234.226 166.726Z" fill="#263238"/>
<path d="M234.518 165.327L235.342 165.798L235.617 165.955L236.463 163.138L236.149 163.121L235.203 163.06L234.518 165.327Z" fill="#263238"/>
<path d="M235.731 161.73L236.459 162.336L236.703 162.536L238.02 159.916L237.714 159.842L236.794 159.615L235.731 161.73Z" fill="#263238"/>
<path d="M237.549 158.403L238.159 159.123L238.36 159.362L240.121 157.012L239.838 156.886L238.966 156.502L237.549 158.403Z" fill="#263238"/>
<path d="M239.916 155.438L240.391 156.262L240.548 156.528L242.693 154.518L242.427 154.344L241.638 153.816L239.916 155.438Z" fill="#263238"/>
<path d="M242.763 152.931L243.09 153.821L243.199 154.113L245.654 152.504L245.431 152.29L244.743 151.632L242.763 152.931Z" fill="#263238"/>
<path d="M245.998 150.956L246.168 151.889L246.225 152.199L248.924 151.039L248.736 150.786L248.174 150.019L245.998 150.956Z" fill="#263238"/>
<path d="M249.53 149.574L249.534 150.52L249.539 150.834L252.399 150.163L252.259 149.879L251.836 149.029L249.53 149.574Z" fill="#263238"/>
<path d="M253.04 150.067L255.97 149.901L255.883 149.605L255.617 148.693L253.249 148.829L253.088 149.762L253.04 150.067Z" fill="#263238"/>
<path d="M238.952 168.475C238.561 171.781 239.16 175.129 240.672 178.096C242.184 181.062 244.542 183.514 247.447 185.14C250.352 186.767 253.674 187.495 256.994 187.233C260.313 186.971 263.48 185.731 266.094 183.669C268.709 181.607 270.653 178.817 271.681 175.65C272.709 172.483 272.775 169.082 271.871 165.878C270.966 162.674 269.132 159.81 266.599 157.648C264.067 155.486 260.95 154.124 257.644 153.734C255.448 153.474 253.224 153.649 251.096 154.249C248.969 154.85 246.98 155.863 245.244 157.232C243.509 158.601 242.06 160.298 240.98 162.227C239.9 164.157 239.211 166.279 238.952 168.475Z" fill="#37474F"/>
<path d="M244.908 169.168C244.656 171.296 245.04 173.451 246.012 175.361C246.985 177.271 248.502 178.85 250.372 179.897C252.242 180.945 254.38 181.414 256.517 181.246C258.653 181.078 260.692 180.28 262.375 178.953C264.058 177.627 265.31 175.83 265.972 173.792C266.634 171.754 266.677 169.565 266.095 167.502C265.513 165.44 264.332 163.596 262.702 162.204C261.072 160.813 259.066 159.936 256.937 159.685C254.085 159.348 251.215 160.158 248.96 161.936C246.704 163.714 245.247 166.316 244.908 169.168Z" fill="#455A64"/>
<path d="M250.904 169.887C250.794 170.829 250.966 171.782 251.397 172.627C251.829 173.471 252.502 174.168 253.329 174.63C254.157 175.092 255.104 175.299 256.049 175.224C256.994 175.148 257.896 174.794 258.64 174.207C259.384 173.619 259.937 172.824 260.23 171.922C260.522 171.02 260.541 170.052 260.283 169.139C260.025 168.227 259.503 167.411 258.782 166.795C258.061 166.18 257.173 165.792 256.232 165.68C255.605 165.606 254.971 165.656 254.364 165.827C253.757 165.999 253.19 166.288 252.695 166.679C252.2 167.07 251.787 167.554 251.48 168.105C251.172 168.655 250.977 169.261 250.904 169.887Z" fill="#263238"/>
<path d="M254.932 176.654C256.159 176.798 257.402 176.575 258.502 176.013C259.602 175.451 260.512 174.576 261.114 173.497C261.717 172.419 261.987 171.186 261.889 169.954C261.791 168.722 261.33 167.547 260.565 166.577C259.799 165.608 258.763 164.887 257.588 164.506C256.412 164.124 255.15 164.1 253.961 164.436C252.772 164.773 251.71 165.454 250.908 166.394C250.106 167.334 249.601 168.49 249.456 169.717C249.264 171.363 249.733 173.018 250.76 174.318C251.786 175.618 253.287 176.459 254.932 176.654ZM256.336 164.808C257.447 164.944 258.493 165.405 259.342 166.134C260.191 166.864 260.806 167.828 261.107 168.906C261.409 169.984 261.385 171.127 261.038 172.191C260.691 173.255 260.037 174.193 259.158 174.886C258.279 175.579 257.214 175.996 256.098 176.084C254.982 176.173 253.865 175.929 252.888 175.384C251.91 174.839 251.116 174.016 250.606 173.02C250.095 172.024 249.891 170.899 250.018 169.787C250.104 169.044 250.335 168.326 250.699 167.673C251.064 167.02 251.554 166.445 252.141 165.983C252.728 165.52 253.401 165.178 254.121 164.976C254.841 164.774 255.594 164.717 256.336 164.808Z" fill="#263238"/>
<path d="M255.66 161.869C255.633 162.069 255.666 162.272 255.755 162.453C255.843 162.634 255.984 162.785 256.158 162.885C256.333 162.986 256.533 163.033 256.735 163.019C256.936 163.006 257.128 162.933 257.288 162.81C257.447 162.687 257.566 162.519 257.63 162.328C257.694 162.137 257.7 161.931 257.646 161.737C257.593 161.542 257.483 161.368 257.33 161.237C257.178 161.105 256.989 161.022 256.789 160.997C256.524 160.964 256.256 161.037 256.045 161.2C255.833 161.364 255.695 161.604 255.66 161.869Z" fill="#263238"/>
<path d="M259.95 163.016C259.83 163.177 259.76 163.37 259.749 163.57C259.738 163.771 259.787 163.97 259.89 164.143C259.992 164.316 260.144 164.455 260.325 164.541C260.507 164.628 260.709 164.659 260.908 164.63C261.107 164.602 261.293 164.515 261.443 164.38C261.592 164.246 261.698 164.07 261.748 163.875C261.797 163.681 261.788 163.476 261.721 163.286C261.654 163.097 261.533 162.931 261.372 162.811C261.156 162.65 260.885 162.581 260.618 162.619C260.352 162.658 260.112 162.8 259.95 163.016Z" fill="#263238"/>
<path d="M263.094 166.155C262.909 166.235 262.752 166.367 262.643 166.535C262.533 166.704 262.476 166.901 262.479 167.102C262.482 167.303 262.544 167.499 262.658 167.664C262.772 167.83 262.932 167.958 263.119 168.032C263.305 168.107 263.51 168.124 263.706 168.082C263.903 168.04 264.083 167.941 264.223 167.797C264.363 167.653 264.457 167.471 264.494 167.273C264.53 167.076 264.507 166.872 264.428 166.687C264.322 166.44 264.121 166.245 263.871 166.145C263.621 166.045 263.341 166.049 263.094 166.155Z" fill="#263238"/>
<path d="M264.249 170.441C264.05 170.414 263.847 170.447 263.666 170.536C263.485 170.624 263.334 170.765 263.233 170.939C263.133 171.114 263.086 171.314 263.099 171.516C263.113 171.717 263.186 171.909 263.309 172.069C263.432 172.228 263.6 172.347 263.791 172.411C263.982 172.475 264.188 172.481 264.382 172.427C264.577 172.374 264.751 172.264 264.882 172.111C265.014 171.959 265.097 171.77 265.121 171.57C265.153 171.305 265.079 171.039 264.916 170.828C264.753 170.617 264.514 170.478 264.249 170.441Z" fill="#263238"/>
<path d="M263.103 174.731C262.942 174.611 262.749 174.542 262.548 174.532C262.348 174.521 262.149 174.57 261.976 174.673C261.804 174.776 261.666 174.927 261.579 175.108C261.493 175.289 261.462 175.492 261.49 175.691C261.519 175.889 261.606 176.075 261.74 176.224C261.874 176.374 262.049 176.48 262.243 176.53C262.438 176.58 262.643 176.571 262.832 176.505C263.021 176.438 263.187 176.317 263.307 176.157C263.388 176.05 263.447 175.928 263.48 175.799C263.513 175.669 263.52 175.534 263.501 175.402C263.482 175.269 263.437 175.142 263.369 175.027C263.3 174.912 263.21 174.811 263.103 174.731Z" fill="#263238"/>
<path d="M259.963 177.888C259.884 177.703 259.752 177.546 259.583 177.437C259.415 177.327 259.218 177.27 259.017 177.273C258.816 177.276 258.62 177.338 258.454 177.452C258.289 177.566 258.161 177.726 258.086 177.913C258.012 178.099 257.995 178.304 258.036 178.5C258.078 178.697 258.177 178.877 258.321 179.017C258.465 179.157 258.648 179.251 258.845 179.288C259.043 179.324 259.247 179.301 259.431 179.222C259.679 179.116 259.874 178.915 259.974 178.665C260.073 178.415 260.07 178.135 259.963 177.888Z" fill="#263238"/>
<path d="M255.678 179.03C255.705 178.831 255.672 178.627 255.583 178.446C255.494 178.266 255.354 178.115 255.179 178.014C255.005 177.913 254.804 177.867 254.603 177.88C254.402 177.894 254.21 177.967 254.05 178.09C253.891 178.213 253.771 178.381 253.708 178.572C253.644 178.763 253.638 178.969 253.692 179.163C253.745 179.357 253.855 179.531 254.008 179.663C254.16 179.795 254.349 179.878 254.549 179.902C254.813 179.933 255.08 179.859 255.291 179.696C255.502 179.534 255.641 179.294 255.678 179.03Z" fill="#263238"/>
<path d="M251.387 177.888C251.507 177.727 251.577 177.534 251.587 177.334C251.597 177.133 251.548 176.934 251.446 176.762C251.343 176.589 251.191 176.451 251.01 176.365C250.829 176.278 250.627 176.247 250.428 176.276C250.229 176.304 250.044 176.391 249.894 176.525C249.745 176.659 249.638 176.834 249.589 177.029C249.539 177.223 249.547 177.428 249.614 177.617C249.68 177.807 249.801 177.972 249.962 178.093C250.178 178.254 250.45 178.323 250.717 178.285C250.984 178.247 251.225 178.104 251.387 177.888Z" fill="#263238"/>
<path d="M248.24 174.749C248.424 174.67 248.581 174.537 248.691 174.369C248.8 174.2 248.857 174.003 248.854 173.802C248.852 173.601 248.79 173.405 248.676 173.24C248.562 173.074 248.401 172.946 248.215 172.872C248.028 172.797 247.824 172.78 247.627 172.822C247.431 172.864 247.251 172.963 247.111 173.107C246.971 173.251 246.876 173.433 246.84 173.631C246.803 173.828 246.826 174.032 246.905 174.217C247.013 174.464 247.213 174.658 247.463 174.757C247.713 174.857 247.992 174.854 248.24 174.749Z" fill="#263238"/>
<path d="M247.088 170.476C247.221 170.491 247.355 170.481 247.483 170.444C247.612 170.408 247.732 170.346 247.836 170.264C247.941 170.181 248.028 170.078 248.093 169.962C248.158 169.845 248.2 169.717 248.215 169.584C248.231 169.452 248.22 169.317 248.184 169.189C248.147 169.061 248.086 168.941 248.003 168.836C247.92 168.731 247.818 168.644 247.701 168.579C247.584 168.514 247.456 168.473 247.324 168.457C247.191 168.442 247.057 168.453 246.928 168.489C246.8 168.526 246.68 168.587 246.576 168.67C246.471 168.752 246.384 168.855 246.319 168.972C246.254 169.088 246.212 169.216 246.197 169.349C246.181 169.481 246.192 169.616 246.228 169.744C246.265 169.872 246.326 169.992 246.409 170.097C246.492 170.202 246.594 170.289 246.711 170.354C246.828 170.419 246.956 170.461 247.088 170.476Z" fill="#263238"/>
<path d="M248.231 166.168C248.392 166.289 248.585 166.359 248.785 166.369C248.986 166.38 249.185 166.331 249.358 166.229C249.531 166.126 249.669 165.974 249.756 165.793C249.843 165.612 249.874 165.409 249.845 165.21C249.816 165.011 249.729 164.825 249.595 164.676C249.461 164.526 249.285 164.42 249.09 164.371C248.895 164.321 248.69 164.33 248.501 164.397C248.311 164.464 248.146 164.586 248.026 164.747C247.866 164.963 247.798 165.234 247.836 165.5C247.874 165.766 248.016 166.006 248.231 166.168Z" fill="#263238"/>
<path d="M251.37 163.025C251.449 163.209 251.582 163.366 251.75 163.476C251.919 163.585 252.116 163.642 252.317 163.64C252.518 163.637 252.713 163.575 252.879 163.461C253.045 163.347 253.173 163.187 253.247 163C253.322 162.813 253.339 162.609 253.297 162.412C253.255 162.216 253.156 162.036 253.012 161.896C252.868 161.756 252.686 161.661 252.488 161.625C252.291 161.588 252.087 161.611 251.902 161.691C251.655 161.797 251.46 161.997 251.36 162.248C251.26 162.498 251.264 162.777 251.37 163.025Z" fill="#263238"/>
<path d="M229.792 170.476H232.5C232.583 164.387 235.061 158.575 239.396 154.299C243.732 150.022 249.577 147.625 255.667 147.625C261.756 147.625 267.601 150.022 271.937 154.299C276.272 158.575 278.75 164.387 278.833 170.476H281.541C281.453 163.672 278.688 157.176 273.845 152.396C269.002 147.616 262.471 144.935 255.667 144.935C248.862 144.935 242.331 147.616 237.488 152.396C232.645 157.176 229.881 163.672 229.792 170.476Z" fill="#263238"/>
<path opacity="0.2" d="M229.792 170.476H232.5C232.583 164.387 235.061 158.575 239.396 154.299C243.732 150.022 249.577 147.625 255.667 147.625C261.756 147.625 267.601 150.022 271.937 154.299C276.272 158.575 278.75 164.387 278.833 170.476H281.541C281.453 163.672 278.688 157.176 273.845 152.396C269.002 147.616 262.471 144.935 255.667 144.935C248.862 144.935 242.331 147.616 237.488 152.396C232.645 157.176 229.881 163.672 229.792 170.476Z" fill="white"/>
<path d="M165.744 170.476H168.456C168.446 163.616 165.717 157.04 160.866 152.19C156.015 147.34 149.439 144.612 142.579 144.604V147.311C148.72 147.318 154.609 149.761 158.951 154.104C163.294 158.446 165.737 164.334 165.744 170.476Z" fill="#263238"/>
<path opacity="0.2" d="M165.744 170.476H168.456C168.446 163.616 165.717 157.04 160.866 152.19C156.015 147.34 149.439 144.612 142.579 144.604V147.311C148.72 147.318 154.609 149.761 158.951 154.104C163.294 158.446 165.737 164.334 165.744 170.476Z" fill="white"/>
<path d="M249.308 135.6H283.119L286.424 142.868H249.308V135.6Z" fill="#263238"/>
<path opacity="0.1" d="M249.308 135.6H283.119L286.424 142.868H249.308V135.6Z" fill="black"/>
<path d="M249.308 110.914H283.12V135.596H249.308V110.914Z" fill="#263238"/>
<g opacity="0.1">
<path d="M252.338 113.469H266.726V114.912H252.338V113.469Z" fill="black"/>
<path d="M252.338 116.53H266.726V117.973H252.338V116.53Z" fill="black"/>
<path d="M252.338 119.595H266.726V121.038H252.338V119.595Z" fill="black"/>
<path d="M252.338 122.656H266.726V124.099H252.338V122.656Z" fill="black"/>
<path d="M252.338 125.721H266.726V127.164H252.338V125.721Z" fill="black"/>
</g>
<path d="M159.914 66.5204H172.205V65.6005H160.298L158.336 63.6385V45.3265H167.741L177.586 51.7836L178.091 51.0163L168.015 44.4065H157.416V64.0221L159.914 66.5204Z" fill="#263238"/>
<path d="M159.814 46.5908H167.021V63.403H159.814V46.5908Z" fill="#263238"/>
<path d="M157.879 60.2073H159.814V61.1272H157.879V60.2073Z" fill="#263238"/>
<path d="M157.879 49.7998H159.814V50.7198H157.879V49.7998Z" fill="#263238"/>
<path d="M176.002 78.3514L194.349 96.6982L191.929 99.1184L173.582 80.7715L176.002 78.3514Z" fill="#263238"/>
<path d="M176.5 93.0554L179.735 96.2905L185.242 92.4319L180.463 87.6533L176.5 93.0554Z" fill="#37474F"/>
<path d="M177.345 93.8984L178.81 95.3628L169.887 104.285L168.423 102.821L177.345 93.8984Z" fill="#263238"/>
<path d="M156.269 142.868L165.67 97.7642L187.295 34.287H248.767L249.307 110.914H255.516L252.015 31.0344H185.124L160.294 96.0551L148.975 142.868H156.269Z" fill="#37474F"/>
<path d="M165.67 97.7642L173.779 108.241V121.574L182.247 142.868H156.27L165.67 97.7642Z" fill="#263238"/>
<path d="M203.031 142.868H249.308V110.635H214.14L203.031 142.868Z" fill="#37474F"/>
<path d="M207.037 103.546H243.81V110.639H207.037V103.546Z" fill="#263238"/>
<path d="M248.841 70.379L243.81 103.545H233.716L242.327 68.6917L248.841 70.379Z" fill="#263238"/>
<path d="M219.041 53.3664C220.375 52.7865 224.155 53.0787 225.716 54.7049C227.277 56.3312 227.765 59.3614 227.207 59.7756C226.649 60.1898 223.946 60.4819 221.931 59.8323C219.917 59.1827 218.382 53.6498 219.041 53.3664Z" fill="#263238"/>
<path d="M219.036 53.3751C218.988 53.3751 218.966 53.2967 219.036 53.2836C220.248 53.0176 221.652 53.1702 222.864 53.2836C223.87 53.314 224.858 53.5561 225.764 53.9943C226.188 54.2234 226.558 54.5421 226.847 54.9283C227.136 55.3146 227.338 55.759 227.438 56.231C227.732 57.3647 227.732 58.5547 227.438 59.6884C227.438 59.7189 227.373 59.7189 227.373 59.6884C227.538 57.5477 227.547 54.9709 225.254 53.9768C223.296 53.1266 221.085 53.4144 219.036 53.3751Z" fill="#263238"/>
<path d="M226.901 59.2961C228.153 59.2176 231.772 60.918 232.757 63.1329C233.742 65.3477 232.53 69.1409 231.981 69.5072C231.432 69.8734 228.305 68.173 227.106 66.7124C226.309 65.7401 226.522 64.3755 226.54 63.0587C226.57 61.1011 226.705 59.2961 226.901 59.2961Z" fill="#263238"/>
<path d="M226.317 66.5511C225.493 64.2621 226.374 61.6592 226.753 59.3702C226.753 59.3644 226.756 59.3589 226.76 59.3548C226.764 59.3507 226.769 59.3484 226.775 59.3484C226.781 59.3484 226.787 59.3507 226.791 59.3548C226.795 59.3589 226.797 59.3644 226.797 59.3702C226.753 61.5022 225.881 63.5819 226.265 65.7314C226.35 66.366 226.586 66.9707 226.954 67.4944C227.322 68.0181 227.811 68.4454 228.38 68.7398C229.417 69.2369 230.616 69.3241 231.741 69.4898C231.815 69.4898 231.789 69.6118 231.741 69.6031C229.496 69.3241 227.168 68.9186 226.317 66.5511Z" fill="#263238"/>
<path d="M227.22 59.4529C227.154 59.4529 227.176 59.3265 227.242 59.3439C229.138 59.8279 231.458 60.6171 232.731 62.191C234.104 63.8958 233.489 66.0845 232.931 67.9767C232.931 68.0029 232.883 67.9767 232.892 67.9767C233.433 66.0627 233.943 63.717 232.456 62.0864C231.144 60.6781 228.999 59.9325 227.22 59.4529Z" fill="#263238"/>
<path d="M231.689 69.2412C230.952 69.808 230.015 71.4212 230.041 73.1129C230.084 75.9992 228.925 75.6417 225.999 76.941C223.527 78.0441 223.501 81.0394 225.127 82.2209C225.127 82.2209 224.002 80.5816 225.563 79.3869C227.46 77.9612 232.622 79.2867 234.466 75.8989C236.886 71.5389 231.689 69.2412 231.689 69.2412Z" fill="#263238"/>
<path d="M230.826 70.7365C230.852 70.6929 230.778 70.645 230.747 70.6886C230.457 71.1039 230.247 71.5697 230.128 72.062C229.971 72.7029 230.076 73.3438 229.967 73.9891C229.688 75.6285 227.822 75.9119 226.479 76.2563C224.695 76.6923 223.427 78.0788 223.68 79.9972C223.68 80.003 223.682 80.0085 223.686 80.0126C223.69 80.0167 223.696 80.019 223.701 80.019C223.707 80.019 223.713 80.0167 223.717 80.0126C223.721 80.0085 223.723 80.003 223.723 79.9972C223.656 79.4043 223.753 78.8045 224.003 78.2627C224.253 77.7209 224.646 77.2577 225.14 76.9234C226.117 76.2868 227.346 76.3043 228.393 75.8421C229.112 75.5238 229.801 75.0704 230.015 74.2769C230.096 73.8327 230.13 73.381 230.115 72.9296C230.16 72.1498 230.405 71.3946 230.826 70.7365Z" fill="#263238"/>
<path d="M232.225 69.4941C232.225 69.4941 232.186 69.4941 232.225 69.5247C233.433 70.3487 234.702 71.164 235.277 72.5767C235.883 74.107 235.351 75.8467 234.279 77.0326C233.075 78.3406 231.484 78.1182 229.867 78.0964C228.698 78.0964 227.521 78.1575 226.483 78.7461C226.453 78.7461 226.483 78.8158 226.514 78.8027C228.223 78.0659 229.954 78.297 231.746 78.2621C232.419 78.2652 233.079 78.0782 233.651 77.7226C234.222 77.367 234.682 76.8573 234.976 76.2521C236.542 73.4399 234.785 70.8632 232.225 69.4941Z" fill="#263238"/>
<path d="M219.86 51.884C219.921 51.7683 220.026 51.6818 220.151 51.6433C220.276 51.6049 220.412 51.6177 220.527 51.679C220.643 51.7403 220.729 51.845 220.768 51.9701C220.806 52.0952 220.793 52.2305 220.732 52.3461C220.671 52.4617 220.566 52.5483 220.441 52.5867C220.316 52.6252 220.181 52.6123 220.065 52.551C219.949 52.4897 219.863 52.385 219.824 52.2599C219.786 52.1348 219.799 51.9996 219.86 51.884Z" fill="#263238"/>
<path d="M219.642 52.7559C219.711 52.6539 219.815 52.5809 219.934 52.5513C220.054 52.5216 220.18 52.5373 220.289 52.5954C220.397 52.6535 220.48 52.7497 220.522 52.8656C220.564 52.9814 220.561 53.1086 220.514 53.2225C220.445 53.3245 220.341 53.3975 220.222 53.4271C220.102 53.4568 219.976 53.4411 219.867 53.383C219.759 53.3249 219.676 53.2287 219.634 53.1128C219.592 52.997 219.595 52.8698 219.642 52.7559Z" fill="#263238"/>
<path d="M219.272 53.6281C219.341 53.5283 219.444 53.4574 219.563 53.4288C219.681 53.4002 219.805 53.4158 219.912 53.4727C220.02 53.5296 220.103 53.6238 220.145 53.7376C220.188 53.8514 220.187 53.9768 220.144 54.0902C220.074 54.19 219.971 54.2609 219.853 54.2895C219.735 54.3181 219.61 54.3025 219.503 54.2456C219.395 54.1887 219.313 54.0945 219.27 53.9807C219.227 53.8669 219.228 53.7415 219.272 53.6281Z" fill="#263238"/>
<path d="M218.805 54.4042C218.874 54.3044 218.978 54.2336 219.096 54.2049C219.214 54.1763 219.338 54.1919 219.446 54.2488C219.553 54.3057 219.636 54.3999 219.678 54.5137C219.721 54.6275 219.72 54.753 219.677 54.8664C219.607 54.9661 219.504 55.037 219.386 55.0656C219.268 55.0943 219.143 55.0787 219.036 55.0218C218.929 54.9649 218.846 54.8706 218.803 54.7568C218.761 54.6431 218.761 54.5176 218.805 54.4042Z" fill="#263238"/>
<path d="M218.199 55.1017C218.268 55.002 218.372 54.9311 218.49 54.9024C218.608 54.8738 218.732 54.8894 218.84 54.9463C218.947 55.0032 219.03 55.0974 219.072 55.2112C219.115 55.325 219.114 55.4505 219.071 55.5639C219.002 55.6636 218.898 55.7345 218.78 55.7631C218.662 55.7918 218.537 55.7762 218.43 55.7193C218.323 55.6624 218.24 55.5681 218.197 55.4543C218.155 55.3406 218.155 55.2151 218.199 55.1017Z" fill="#263238"/>
<path d="M217.501 55.6598C217.57 55.5601 217.674 55.4892 217.792 55.4605C217.91 55.4319 218.035 55.4475 218.142 55.5044C218.249 55.5613 218.332 55.6555 218.375 55.7693C218.417 55.8831 218.417 56.0086 218.373 56.122C218.304 56.2217 218.2 56.2926 218.082 56.3213C217.964 56.3499 217.84 56.3343 217.732 56.2774C217.625 56.2205 217.542 56.1262 217.5 56.0125C217.457 55.8987 217.458 55.7732 217.501 55.6598Z" fill="#263238"/>
<path d="M179.809 142.616C180.72 142.938 207.116 142.537 208.123 141.914C208.241 141.844 208.838 136.786 208.838 136.786L206.265 117.223L188.943 117.027L191.877 133.747C191.877 133.747 188.023 135.409 184.836 136.865C183.444 137.454 182.088 138.127 180.777 138.879C179.744 139.681 178.902 142.297 179.809 142.616Z" fill="#DD6A57"/>
<path d="M179.809 142.616C180.716 142.938 207.12 142.537 208.118 141.918C208.241 141.844 208.838 136.786 208.838 136.786L208.036 130.756L191.407 131.118L191.869 133.734C191.869 133.734 188.015 135.395 184.827 136.852C183.433 137.44 182.076 138.113 180.764 138.866C179.744 139.686 178.902 142.302 179.809 142.616Z" fill="#EBEBEB"/>
<path d="M179.822 142.651C180.751 142.964 207.29 142.995 208.323 142.354C208.711 142.119 208.943 138.247 209.086 133.564V133.416L191.952 133.202V133.495C191.952 133.495 181.78 138.029 180.738 138.853C179.696 139.677 178.893 142.337 179.822 142.651Z" fill="#263238"/>
<path d="M180.132 141.617C184.61 141.513 202.682 141.517 207.116 141.752C207.151 141.752 207.151 141.779 207.116 141.783C202.677 141.983 184.61 141.835 180.132 141.691C180.032 141.7 180.032 141.622 180.132 141.617Z" fill="#263238"/>
<path d="M190.517 133.543C192.283 133.216 194.441 133.49 195.78 134.746C195.832 134.794 195.78 134.868 195.706 134.851C194.022 134.306 192.286 133.942 190.526 133.765C190.5 133.761 190.476 133.748 190.459 133.728C190.441 133.709 190.431 133.684 190.43 133.657C190.429 133.631 190.437 133.605 190.453 133.584C190.469 133.563 190.492 133.549 190.517 133.543Z" fill="#263238"/>
<path d="M189.249 134.31C190.993 133.983 193.173 134.253 194.507 135.513C194.559 135.561 194.507 135.635 194.433 135.618C192.75 135.069 191.014 134.705 189.253 134.532C189.227 134.528 189.204 134.514 189.187 134.494C189.169 134.474 189.16 134.449 189.159 134.423C189.159 134.396 189.167 134.371 189.184 134.35C189.2 134.33 189.223 134.315 189.249 134.31Z" fill="#263238"/>
<path d="M187.98 135.073C189.724 134.746 191.904 135.02 193.238 136.276C193.29 136.324 193.238 136.398 193.164 136.381C191.48 135.835 189.742 135.472 187.98 135.295C187.954 135.29 187.931 135.276 187.914 135.256C187.898 135.236 187.889 135.21 187.889 135.184C187.889 135.158 187.898 135.132 187.914 135.112C187.931 135.092 187.954 135.078 187.98 135.073Z" fill="#263238"/>
<path d="M190.57 131.716L209.086 131.816C209.086 131.816 203.501 103.624 204.186 102.726C204.927 101.754 227.194 107.134 233.132 99.5869C237.178 94.4377 234.592 83.7993 234.592 83.7993L212.692 84.0827C212.692 84.0827 212.662 84.5972 212.644 87.1347C212.644 87.1347 202.904 85.9706 195.3 86.9516C189.096 87.7495 185.926 92.746 185.948 95.9942C186.044 110.334 190.57 131.716 190.57 131.716Z" fill="#455A64"/>
<path d="M190.884 128.437C193.02 128.284 195.156 128.245 197.301 128.21C199.447 128.175 201.579 128.171 203.719 128.21C204.927 128.236 206.13 128.324 207.338 128.35C207.347 128.35 207.356 128.353 207.363 128.36C207.369 128.366 207.373 128.375 207.373 128.385C207.373 128.394 207.369 128.403 207.363 128.409C207.356 128.416 207.347 128.419 207.338 128.419C206.261 128.419 205.189 128.511 204.112 128.533C203.035 128.555 201.988 128.572 200.925 128.581C198.784 128.581 196.643 128.581 194.507 128.581C193.299 128.581 192.096 128.55 190.888 128.502C190.836 128.524 190.836 128.441 190.884 128.437Z" fill="#263238"/>
<path d="M220.056 85.6871C220.082 85.7656 220.116 85.8416 220.156 85.9138C220.161 85.92 220.164 85.9277 220.164 85.9356C220.164 85.9435 220.161 85.9512 220.156 85.9574C220.409 86.655 220.527 87.4049 220.767 88.1025C220.998 88.8528 221.482 89.4999 222.136 89.9337C223.505 90.8057 225.127 91.1937 226.696 91.5295C226.749 91.5295 226.731 91.6123 226.696 91.6167C225.796 91.6489 224.895 91.54 224.028 91.294C223.216 91.0966 222.445 90.7555 221.752 90.2869C221.102 89.8279 220.628 89.1601 220.409 88.3946C220.298 87.9873 220.211 87.5738 220.148 87.1564C220.042 86.6784 219.974 86.193 219.943 85.7045C219.948 85.6944 219.955 85.6856 219.964 85.6789C219.973 85.6722 219.984 85.6678 219.995 85.6661C220.006 85.6644 220.017 85.6654 220.028 85.669C220.039 85.6727 220.048 85.6789 220.056 85.6871Z" fill="#263238"/>
<path d="M206.034 126.71C204.626 119.8 200.986 101.309 201.592 100.38C201.879 100.206 204.112 100.42 206.697 100.664C213.616 101.318 225.205 102.408 229.67 99.2292C234.37 95.8808 232.678 85.6086 232.604 85.1726C232.604 85.0767 232.399 84.8936 232.417 85.1726C232.417 85.2816 233.991 95.7107 229.469 98.9371C225.109 102.046 213.603 100.956 206.728 100.306C203.397 99.9922 201.779 99.8484 201.387 100.093C200.327 100.751 204.831 122.464 205.877 126.867C205.899 126.959 206.122 127.142 206.034 126.71Z" fill="#263238"/>
<path d="M211.916 75.0574L210.931 87.4311C210.931 87.4311 230.926 86.4283 235.861 85.7525C235.861 85.7525 229.718 65.8142 224.011 60.3729C221.155 57.6523 218.038 58.0709 216.163 60.2247C215.692 60.7697 211.053 67.4885 210.617 70.571C210.507 71.3681 210.565 72.1795 210.789 72.9525C211.013 73.7255 211.397 74.4427 211.916 75.0574Z" fill="#EBEBEB"/>
<path d="M210.926 87.4312L211.916 75.0575C211.397 74.4427 211.012 73.7258 210.786 72.953C210.561 72.1802 210.5 71.3688 210.608 70.5711C211.044 67.4842 215.683 60.7698 216.154 60.2248C216.329 60.0208 216.52 59.8313 216.725 59.658L213.76 68.9666L221.752 58.8601C222.607 59.1891 223.377 59.7045 224.006 60.3687C229.718 65.8056 235.861 85.7482 235.861 85.7482C230.926 86.4284 210.926 87.4312 210.926 87.4312Z" fill="#263238"/>
<path d="M233.803 79.169L211.458 80.7865L211.611 78.8114L233.167 77.2593C233.367 77.922 233.629 78.5586 233.803 79.169Z" fill="#EBEBEB"/>
<path d="M234.894 82.5392L211.18 84.2484L211.341 82.2733L234.279 80.6208C234.479 81.3184 234.732 81.9681 234.894 82.5392Z" fill="#EBEBEB"/>
<path d="M220.519 59.2262C220.488 59.6317 219.032 62.4482 217.244 62.6444C216.66 62.7098 216.172 59.5445 216.172 59.5445L216.08 59.3178L214.829 56.1611L218.282 53.083L218.788 52.647C218.788 52.647 219.071 53.519 219.415 54.6395L219.468 54.7965C219.468 54.8619 219.507 54.9185 219.524 54.9752C219.577 55.1409 219.633 55.3109 219.681 55.481C219.729 55.651 219.76 55.7339 219.795 55.869C219.83 56.0042 219.869 56.1393 219.908 56.2745C220.179 57.2433 220.383 58.2295 220.519 59.2262Z" fill="#DD6A57"/>
<path d="M219.416 54.6613C219.231 55.6331 218.837 56.5531 218.261 57.3572C217.685 58.1614 216.941 58.8304 216.08 59.3178L214.829 56.1611L218.282 53.083L218.788 52.647C218.788 52.647 219.071 53.5539 219.416 54.6613Z" fill="#263238"/>
<path d="M208.973 51.7315C209.213 57.6873 212.806 58.2148 214.088 58.1625C215.256 58.1189 219.219 57.805 219.599 51.8579C219.978 45.9109 217.135 44.1364 214.463 44.1059C211.79 44.0753 208.738 45.7801 208.973 51.7315Z" fill="#DD6A57"/>
<path d="M210.168 49.9612C210.305 49.9468 210.44 49.9235 210.573 49.8915C210.72 49.888 210.861 49.8359 210.975 49.7432C211.004 49.7061 211.021 49.66 211.021 49.6124C211.021 49.5649 211.004 49.5187 210.975 49.4816C210.908 49.4155 210.826 49.3679 210.736 49.3434C210.646 49.3189 210.551 49.3185 210.46 49.3421C210.27 49.3629 210.095 49.453 209.967 49.595C209.94 49.6299 209.923 49.6722 209.919 49.7166C209.916 49.761 209.925 49.8055 209.946 49.8445C209.968 49.8836 210 49.9155 210.04 49.9362C210.079 49.957 210.124 49.9657 210.168 49.9612Z" fill="#263238"/>
<path d="M214.279 49.8958C214.14 49.8958 214.013 49.8566 213.874 49.8348C213.727 49.8317 213.586 49.7829 213.468 49.6952C213.44 49.6575 213.425 49.6116 213.425 49.5644C213.425 49.5173 213.44 49.4714 213.468 49.4336C213.533 49.3656 213.613 49.3157 213.703 49.2889C213.793 49.2621 213.888 49.2594 213.979 49.281C214.17 49.2983 214.348 49.3852 214.48 49.5252C214.509 49.56 214.527 49.6028 214.532 49.648C214.536 49.6931 214.527 49.7386 214.505 49.7786C214.484 49.8185 214.451 49.851 214.41 49.8719C214.37 49.8928 214.324 49.9011 214.279 49.8958Z" fill="#263238"/>
<path d="M213.455 51.4741C213.455 51.4741 213.486 51.4741 213.486 51.509C213.486 51.9145 213.56 52.381 213.922 52.4987C213.482 52.4769 213.39 51.8578 213.455 51.4741Z" fill="#263238"/>
<path d="M213.8 51.0337C214.449 50.9639 214.55 52.2676 213.948 52.3417C213.346 52.4158 213.268 51.0991 213.8 51.0337Z" fill="#263238"/>
<path d="M214.061 51.0862C214.183 51.1516 214.306 51.2737 214.445 51.2737C214.585 51.2737 214.711 51.1341 214.807 50.9946H214.829C214.855 51.2431 214.776 51.5091 214.51 51.5658C214.245 51.6225 214.074 51.4088 213.996 51.1647C213.979 51.1298 214.013 51.06 214.061 51.0862Z" fill="#263238"/>
<path d="M211.088 51.5569C211.088 51.5569 211.057 51.5569 211.062 51.5961C211.11 51.9972 211.092 52.4681 210.739 52.6338C211.201 52.5553 211.214 51.9318 211.088 51.5569Z" fill="#263238"/>
<path d="M210.709 51.1646C210.055 51.1646 210.116 52.4726 210.709 52.4726C211.302 52.4726 211.258 51.1602 210.709 51.1646Z" fill="#263238"/>
<path d="M210.443 51.2649C210.342 51.339 210.242 51.4698 210.12 51.4829C209.998 51.4959 209.867 51.3608 209.767 51.23C209.767 51.4829 209.863 51.7401 210.107 51.775C210.351 51.8099 210.482 51.5875 210.543 51.339C210.521 51.3041 210.482 51.2343 210.443 51.2649Z" fill="#263238"/>
<path d="M211.781 53.3708C211.756 53.6695 211.747 53.9693 211.755 54.2689C211.755 54.2951 211.824 54.3038 211.92 54.3038C212.168 54.3316 212.419 54.2911 212.646 54.1866C212.873 54.0821 213.067 53.9176 213.207 53.7109C213.207 53.6803 213.185 53.6542 213.159 53.6716C212.811 53.9455 212.384 54.0985 211.942 54.1076C211.92 54.0291 212.056 53.0656 212.012 53.0656C211.791 53.0991 211.575 53.1622 211.371 53.2531C211.428 51.9799 211.685 50.7243 211.724 49.4555C211.724 49.4451 211.72 49.4351 211.713 49.4278C211.705 49.4204 211.695 49.4163 211.685 49.4163C211.675 49.4163 211.665 49.4204 211.657 49.4278C211.65 49.4351 211.646 49.4451 211.646 49.4555C211.329 50.7916 211.145 52.1556 211.096 53.5277C211.088 53.6803 211.667 53.4275 211.781 53.3708Z" fill="#263238"/>
<path d="M218.67 52.3549C218.67 52.3549 219.725 50.345 220.623 50.6981C221.521 51.0513 220.889 53.8504 219.952 54.3431C219.836 54.4137 219.706 54.4602 219.572 54.4797C219.437 54.4993 219.3 54.4916 219.169 54.457C219.037 54.4224 218.914 54.3616 218.807 54.2784C218.699 54.1952 218.61 54.0911 218.543 53.9725L218.67 52.3549Z" fill="#DD6A57"/>
<path d="M220.422 51.4958C220.422 51.4958 220.444 51.4958 220.422 51.522C220.126 51.7192 219.875 51.9763 219.684 52.2766C219.493 52.577 219.367 52.9141 219.315 53.266C219.346 53.192 219.393 53.1256 219.453 53.0715C219.512 53.0173 219.583 52.9766 219.659 52.9522C219.736 52.9277 219.817 52.9202 219.897 52.9299C219.976 52.9397 220.053 52.9666 220.122 53.0088V53.048C219.995 53.0234 219.865 53.0392 219.748 53.0932C219.631 53.1472 219.535 53.2367 219.472 53.3488C219.366 53.5348 219.281 53.7323 219.219 53.9374C219.193 54.0028 219.075 53.9854 219.093 53.9113C218.962 53.0219 219.489 51.7051 220.422 51.4958Z" fill="#263238"/>
<path d="M219.332 51.7008C218.687 51.7008 216.865 50.0876 216.555 46.9876C216.555 46.9876 217.026 49.7518 217.27 50.1442C217.514 50.5366 216.25 49.2286 215.962 46.7304C215.22 47.3609 214.392 47.8821 213.503 48.2782C212.352 48.7142 211.624 48.7534 211.532 48.6749C211.441 48.5964 213.137 47.9076 213.56 47.3233C213.56 47.3233 210.538 49.0673 209.099 49.281C208.934 49.3071 208.445 45.8758 210.564 44.2277C212.683 42.5796 216.363 43.8615 217.392 44.703C217.392 44.703 218.526 44.7684 219.882 46.3249C221.238 47.8814 220.026 51.6833 219.332 51.7008Z" fill="#263238"/>
<path d="M208.472 48.0036C208.472 48.0036 209.156 41.2936 215.147 41.856C221.138 42.4184 220.562 49.1328 220.562 49.1328L208.472 48.0036Z" fill="#263238"/>
<path d="M220.964 49.6374L207.983 48.4309L208.072 47.4802L221.052 48.6866L220.964 49.6374Z" fill="#263238"/>
<path d="M214.471 48.0821L211.768 47.8292L213.015 41.3066L215.718 41.5595L214.471 48.0821Z" fill="#263238"/>
<path opacity="0.1" d="M214.471 48.0821L211.768 47.8292L213.015 41.3066L215.718 41.5595L214.471 48.0821Z" fill="black"/>
<path d="M223.819 65.57C222.794 72.485 218.853 83.882 216.891 84.9371C213.224 86.9514 202.167 88.2115 198.396 88.1112C196.77 88.0676 195.632 77.9742 196.565 76.5049C197.114 75.6329 211.546 76.1037 211.851 75.8552C212.322 75.4759 216.813 67.6672 219.594 64.2446C223.706 59.2 224.386 61.7201 223.819 65.57Z" fill="#DD6A57"/>
<path d="M198.644 76.2999C198.644 76.2999 193.547 75.9206 190.404 75.8639C188.66 75.8334 185.638 76.047 184.339 76.6095C182.394 77.4553 174.804 82.2382 175.924 84.1043C176.94 85.7916 182.935 80.8561 182.935 80.8561C182.935 80.8561 176.443 85.299 178.039 87.1084C179.635 88.9178 185.669 82.4388 185.669 82.4388C185.669 82.4388 179.098 87.1563 181.039 88.7608C182.503 89.9729 188.298 84.4008 188.298 84.4008C188.298 84.4008 182.682 88.4948 184.134 89.8072C185.739 91.2591 191.415 86.4631 191.415 86.4631C195.666 89.175 198.806 88.7259 201.007 88.1417C201.526 88.0109 198.644 76.2999 198.644 76.2999Z" fill="#DD6A57"/>
<path d="M185.085 79.1689C184.304 79.666 183.506 80.1587 182.774 80.7211C182.041 81.2835 181.322 81.8721 180.642 82.5C179.738 83.3052 178.93 84.2107 178.231 85.1988C179.6 83.5333 182.198 81.4797 182.935 80.9173C183.672 80.3549 184.374 79.7619 185.115 79.1995L185.085 79.1689Z" fill="#263238"/>
<path d="M187.164 81.7893C186.192 82.4607 185.202 83.0973 184.261 83.8123C183.319 84.5274 182.517 85.286 181.614 86.0664C181.549 86.1231 181.614 86.1406 181.671 86.0664C182.586 85.3252 183.489 84.7105 184.413 83.9824C185.338 83.2542 186.236 82.4869 187.182 81.8024C187.195 81.798 187.178 81.7762 187.164 81.7893Z" fill="#263238"/>
<path d="M189.349 83.7119C187.837 84.7116 186.431 85.8643 185.155 87.152C185.089 87.213 185.155 87.2261 185.233 87.152C186.607 85.9791 187.675 85.0548 189.384 83.7468C189.41 83.7468 189.384 83.7119 189.349 83.7119Z" fill="#263238"/>
<path d="M215.012 69.821L222.716 74.2943C222.716 74.2943 224.713 67.3619 224.351 63.3943C223.989 59.4267 222.171 60.1592 220.292 62.3828C218.413 64.6064 215.012 69.821 215.012 69.821Z" fill="#EBEBEB"/>
<path d="M216.35 68.8879C216.302 68.8574 216.263 68.8879 216.311 68.9184C218.391 70.2931 220.555 71.5367 222.79 72.6418C222.79 72.6418 222.816 72.6418 222.79 72.6157C221.822 71.8614 216.9 69.2105 216.35 68.8879Z" fill="#263238"/>
<path d="M218.857 64.1575C217.514 66.0149 216.158 68.0118 214.903 69.8648C214.881 69.8996 215.243 70.0348 215.382 70.1002C215.439 70.1264 215.448 70.061 215.382 70.0304C215.286 69.976 215.195 69.9117 215.112 69.8386C216.385 67.9638 217.649 66.0846 218.862 64.1706C218.888 64.1575 218.866 64.1444 218.857 64.1575Z" fill="#263238"/>
<path d="M41.0438 115.863H115.133V147.119H41.0438V115.863Z" fill="#263238"/>
<path opacity="0.1" d="M41.0438 115.863H115.133V147.119H41.0438V115.863Z" fill="#263238"/>
<path opacity="0.2" d="M41.0484 115.863H73.8574V147.119H41.0484V115.863Z" fill="black"/>
<path d="M42.6612 144.966C45.1929 142.742 47.7028 140.513 50.1909 138.277L57.6029 131.554L64.9277 124.801C67.3577 122.548 69.7615 120.286 72.1392 118.016C69.6075 120.234 67.0917 122.461 64.592 124.696L57.18 131.419L49.8552 138.168C47.4369 140.427 45.0389 142.693 42.6612 144.966Z" fill="#263238"/>
<path d="M42.6615 118.016C45.0421 120.284 47.4459 122.545 49.873 124.801L57.1803 131.554L64.5923 138.277C67.0775 140.513 69.5875 142.742 72.1221 144.966C69.7415 142.693 67.3377 140.43 64.9106 138.177L57.6163 131.428L50.2043 124.696C47.7104 122.466 45.1962 120.24 42.6615 118.016Z" fill="#263238"/>
<path opacity="0.7" d="M97.6714 120.598H97.0872L96.6163 120.205L96.1803 120.598H95.9143H95.6309H95.2254L95.0728 120.458L94.8766 120.598H94.3883H94.2662H94.1049L94.0352 120.497L93.8913 120.598L93.682 120.423L93.4509 120.598H93.1195V115.863H97.6714V120.598Z" fill="white"/>
<path d="M108.728 145.079H108.51V141.988H108.728V145.079Z" fill="white"/>
<path d="M109.256 145.079H109.038V141.988H109.256V145.079Z" fill="white"/>
<path d="M109.783 145.079H109.565V141.988H109.783V145.079Z" fill="white"/>
<path d="M110.311 145.079H110.093V141.988H110.311V145.079Z" fill="white"/>
<path d="M110.834 145.079H110.616V141.988H110.834V145.079Z" fill="white"/>
<path d="M111.358 145.079H111.14V141.988H111.358V145.079Z" fill="white"/>
<path d="M111.885 145.079H111.667V141.988H111.885V145.079Z" fill="white"/>
<path d="M112.408 145.079H112.19V141.988H112.408V145.079Z" fill="white"/>
<path d="M112.936 145.079H112.718V141.988H112.936V145.079Z" fill="white"/>
<path d="M106.361 144.844L107.207 145.075H105.228L106.069 144.839V143.706C105.467 143.623 105.228 143.03 105.228 141.988H107.207C107.207 143.025 106.967 143.623 106.361 143.706V144.844Z" fill="white"/>
<path d="M104.765 143.562H104.251V145.075H102.925V143.562H102.406L103.588 141.988L104.765 143.562Z" fill="white"/>
<path opacity="0.1" d="M115.133 147.119V145.925L73.8572 143.204V147.115L115.133 147.119Z" fill="black"/>
<path d="M70.147 84.6057H114.17V115.863H70.147V84.6057Z" fill="#263238"/>
<path opacity="0.1" d="M70.147 84.6057H114.17V115.863H70.147V84.6057Z" fill="#263238"/>
<path opacity="0.2" d="M70.1509 84.6057H85.1406V115.863H70.1509V84.6057Z" fill="black"/>
<path d="M71.1844 113.709C72.2918 111.485 73.392 109.256 74.4849 107.021L77.7375 100.28L80.9464 93.5263C82.0103 91.2708 83.0639 89.0094 84.1074 86.7422C82.9971 88.96 81.8969 91.1894 80.8069 93.4304L77.5543 100.154L74.3454 106.907C73.2815 109.174 72.2279 111.442 71.1844 113.709Z" fill="#263238"/>
<path d="M71.1844 86.7639C72.225 89.0311 73.2786 91.2925 74.3454 93.5481L77.5543 100.28L80.8069 107.003C81.8969 109.238 82.9971 111.468 84.1074 113.691C83.0639 111.424 82.0103 109.161 80.9464 106.903L77.7375 100.153L74.4849 93.4304C73.3949 91.2068 72.2947 88.9846 71.1844 86.7639Z" fill="#263238"/>
<path opacity="0.7" d="M102.594 91.0149H102.01L101.539 90.4786L101.103 91.0149H100.832H100.553H100.148L99.9952 90.8231L99.799 91.0149H99.3063H99.1886H99.0273L98.9575 90.8798L98.8093 91.0149L98.6044 90.7751L98.3733 91.0149H98.0419V84.6057H102.594V91.0149Z" fill="white"/>
<path d="M107.769 113.822H107.551V110.731H107.769V113.822Z" fill="white"/>
<path d="M108.293 113.822H108.075V110.731H108.293V113.822Z" fill="white"/>
<path d="M108.82 113.822H108.602V110.731H108.82V113.822Z" fill="white"/>
<path d="M109.347 113.822H109.129V110.731H109.347V113.822Z" fill="white"/>
<path d="M109.871 113.822H109.653V110.731H109.871V113.822Z" fill="white"/>
<path d="M110.398 113.822H110.18V110.731H110.398V113.822Z" fill="white"/>
<path d="M110.922 113.822H110.704V110.731H110.922V113.822Z" fill="white"/>
<path d="M111.449 113.822H111.231V110.731H111.449V113.822Z" fill="white"/>
<path d="M111.972 113.822H111.754V110.731H111.972V113.822Z" fill="white"/>
<path d="M105.402 113.587L106.243 113.818H104.268L105.114 113.582V112.449C104.508 112.366 104.268 111.773 104.268 110.731H106.248C106.248 111.769 106.008 112.366 105.406 112.449L105.402 113.587Z" fill="white"/>
<path d="M103.806 112.309H103.287V113.822H101.966V112.309H101.447L102.629 110.731L103.806 112.309Z" fill="white"/>
<path opacity="0.1" d="M114.17 115.863V114.668L85.141 111.947V115.858L114.17 115.863Z" fill="black"/>
<path d="M38.8506 84.6057H82.8735V115.863H38.8506V84.6057Z" fill="#263238"/>
<path opacity="0.1" d="M38.8506 84.6057H82.8735V115.863H38.8506V84.6057Z" fill="#263238"/>
<path opacity="0.2" d="M38.855 84.6057H53.8447V115.863H38.855V84.6057Z" fill="black"/>
<path d="M39.8886 113.709C40.996 111.485 42.0947 109.256 43.1847 107.02L46.4373 100.28L49.6506 93.5263C50.7144 91.2852 51.771 89.0311 52.8203 86.7639C51.7071 88.9817 50.6069 91.2111 49.5198 93.4522L46.2672 100.175L43.0583 106.929C41.9886 109.182 40.9321 111.442 39.8886 113.709Z" fill="#263238"/>
<path d="M39.8885 86.7639C40.9291 89.0311 41.9828 91.2925 43.0495 93.5481L46.2585 100.28L49.511 107.003C50.601 109.238 51.7012 111.468 52.8115 113.691C51.7651 111.424 50.7115 109.161 49.6505 106.903L46.4372 100.153L43.1847 93.4304C42.0976 91.2068 40.9988 88.9846 39.8885 86.7639Z" fill="#263238"/>
<path opacity="0.7" d="M71.2979 91.0149H70.7136L70.2427 90.4786L69.8024 91.0149H69.5364H69.253H68.8519L68.6949 90.8231L68.4987 91.0149H68.0104H67.8927H67.727L67.6573 90.8798L67.5134 91.0149L67.3084 90.7751L67.073 91.0149H66.746V84.6057H71.2979V91.0149Z" fill="white"/>
<path d="M76.4734 113.822H76.2554V110.731H76.4734V113.822Z" fill="white"/>
<path d="M76.9963 113.822H76.7783V110.731H76.9963V113.822Z" fill="white"/>
<path d="M77.5242 113.822H77.3062V110.731H77.5242V113.822Z" fill="white"/>
<path d="M78.0471 113.822H77.8291V110.731H78.0471V113.822Z" fill="white"/>
<path d="M78.5749 113.822H78.3569V110.731H78.5749V113.822Z" fill="white"/>
<path d="M79.0979 113.822H78.8799V110.731H79.0979V113.822Z" fill="white"/>
<path d="M79.6296 113.822H79.4116V110.731H79.6296V113.822Z" fill="white"/>
<path d="M80.1531 113.822H79.9351V110.731H80.1531V113.822Z" fill="white"/>
<path d="M80.676 113.822H80.458V110.731H80.676V113.822Z" fill="white"/>
<path d="M74.1058 113.587L74.9473 113.818H72.9678L73.8137 113.582V112.449C73.2076 112.366 72.9678 111.773 72.9678 110.731H74.9473C74.9473 111.769 74.7075 112.366 74.1058 112.449V113.587Z" fill="white"/>
<path d="M72.5054 112.309H71.9909V113.822H70.6698V112.309H70.151L71.3282 110.731L72.5054 112.309Z" fill="white"/>
<path opacity="0.1" d="M82.8735 115.863V114.668L53.8446 111.947V115.858L82.8735 115.863Z" fill="black"/>
<path d="M54.5465 53.3489H107.769V84.6057H54.5465V53.3489Z" fill="#263238"/>
<path opacity="0.1" d="M54.5465 53.3489H107.769V84.6057H54.5465V53.3489Z" fill="#263238"/>
<path opacity="0.2" d="M54.5469 53.3489H69.5366V84.6057H54.5469V53.3489Z" fill="black"/>
<path d="M55.5799 82.4518C56.6903 80.2282 57.7904 77.9988 58.8804 75.7636L62.133 69.0405L65.3419 62.2868C66.4087 60.0313 67.4623 57.7699 68.5029 55.5027C67.3955 57.7263 66.2968 59.9557 65.2068 62.1909L61.9542 68.914L58.7409 75.6677C57.6771 77.9233 56.6234 80.1846 55.5799 82.4518Z" fill="#263238"/>
<path d="M55.5799 55.5027C56.6263 57.7699 57.68 60.0313 58.7409 62.2868L61.9542 69.0405L65.2068 75.7636C66.2939 77.9988 67.3926 80.2282 68.5029 82.4518C67.4594 80.1846 66.4058 77.9233 65.3419 75.6677L62.133 68.914L58.8804 62.1909C57.7904 59.9557 56.6903 57.7263 55.5799 55.5027Z" fill="#263238"/>
<path opacity="0.7" d="M90.9312 59.7581H90.3426L89.8717 59.2262L89.4357 59.7581H89.1697H88.8863H88.4852L88.3282 59.5662L88.132 59.7581H87.6437H87.5217H87.3603L87.2906 59.6229L87.1467 59.7581L86.9374 59.5183L86.7063 59.7581H86.3793V53.3489H90.9312V59.7581Z" fill="white"/>
<path d="M101.369 82.5652H101.151V79.4739H101.369V82.5652Z" fill="white"/>
<path d="M101.892 82.5652H101.674V79.4739H101.892V82.5652Z" fill="white"/>
<path d="M102.42 82.5652H102.202V79.4739H102.42V82.5652Z" fill="white"/>
<path d="M102.943 82.5652H102.725V79.4739H102.943V82.5652Z" fill="white"/>
<path d="M103.475 82.5652H103.257V79.4739H103.475V82.5652Z" fill="white"/>
<path d="M103.998 82.5652H103.78V79.4739H103.998V82.5652Z" fill="white"/>
<path d="M104.521 82.5652H104.303V79.4739H104.521V82.5652Z" fill="white"/>
<path d="M105.049 82.5652H104.831V79.4739H105.049V82.5652Z" fill="white"/>
<path d="M105.572 82.5652H105.354V79.4739H105.572V82.5652Z" fill="white"/>
<path d="M99.0013 82.3297L99.8428 82.5651H97.8633L98.7092 82.3253V81.1917C98.1031 81.1132 97.8633 80.5159 97.8633 79.4739H99.8428C99.8428 80.5116 99.603 81.1132 99.0013 81.1917V82.3297Z" fill="white"/>
<path d="M97.4058 81.0522H96.8869V82.5651H95.5658V81.0522H95.047L96.2242 79.4739L97.4058 81.0522Z" fill="white"/>
<path opacity="0.1" d="M107.769 84.6057V83.4154L69.5362 80.6904V84.6013L107.769 84.6057Z" fill="black"/>
<path d="M105.838 148.532H111.711V153.751H105.838V148.532Z" fill="#263238"/>
<path opacity="0.3" d="M105.838 148.532H111.711V153.751H105.838V148.532Z" fill="black"/>
<path opacity="0.3" d="M105.842 149.683L111.711 150.394V148.532H105.842V149.683Z" fill="black"/>
<path d="M75.1388 148.532H81.0117V153.751H75.1388V148.532Z" fill="#263238"/>
<path opacity="0.3" d="M75.1388 148.532H81.0117V153.751H75.1388V148.532Z" fill="black"/>
<path opacity="0.3" d="M75.1388 149.683L81.0117 150.394V148.532H75.1388V149.683Z" fill="black"/>
<path d="M44.4357 148.532H50.3086V153.751H44.4357V148.532Z" fill="#263238"/>
<path opacity="0.3" d="M44.4357 148.532H50.3086V153.751H44.4357V148.532Z" fill="black"/>
<path opacity="0.3" d="M44.4357 149.683L50.3086 150.394V148.532H44.4357V149.683Z" fill="black"/>
<path d="M41.2008 147.119H114.946V148.532H41.2008V147.119Z" fill="#263238"/>
<path opacity="0.3" d="M41.2008 147.119H114.946V148.532H41.2008V147.119Z" fill="black"/>
<path d="M41.2008 153.751H114.946V155.164H41.2008V153.751Z" fill="#263238"/>
<path opacity="0.3" d="M41.2008 153.751H114.946V155.164H41.2008V153.751Z" fill="black"/>
</svg>
