<svg width="25" height="25" viewBox="0 0 25 25" fill="none" xmlns="http://www.w3.org/2000/svg">
<mask id="mask0_742_530" style="mask-type:alpha" maskUnits="userSpaceOnUse" x="2" y="0" width="21" height="24">
<path fill-rule="evenodd" clip-rule="evenodd" d="M9.16889 1.50388C10.0647 0.661134 11.2643 0.199951 12.5003 0.199951C13.7362 0.199951 14.9358 0.661134 15.8316 1.50388C16.7301 2.34907 17.2503 3.51228 17.2503 4.74255V11.501C17.2503 12.1914 16.6906 12.751 16.0003 12.751C15.3099 12.751 14.7503 12.1914 14.7503 11.501V4.74255C14.7503 4.22631 14.533 3.71456 14.1186 3.32478C13.7017 2.93256 13.1208 2.69995 12.5003 2.69995C11.8797 2.69995 11.2988 2.93256 10.8819 3.32478C10.4676 3.71456 10.2503 4.22631 10.2503 4.74255V11.501C10.2503 12.1914 9.69062 12.751 9.00026 12.751C8.30991 12.751 7.75026 12.1914 7.75026 11.501V4.74255C7.75026 3.51228 8.27047 2.34907 9.16889 1.50388Z" fill="#006FFD"/>
<path fill-rule="evenodd" clip-rule="evenodd" d="M3.37326 10.4149C3.49507 8.71444 4.91014 7.39713 6.61496 7.39713H18.3855C20.0903 7.39713 21.5053 8.71445 21.6272 10.4149L22.3435 20.4149C22.4783 22.2965 20.9882 23.8971 19.1018 23.8971H5.89861C4.01223 23.8971 2.52213 22.2965 2.65691 20.4149L3.37326 10.4149ZM6.61496 9.89713C6.22153 9.89713 5.89498 10.2011 5.86687 10.5935L5.15052 20.5935C5.11942 21.0277 5.46329 21.3971 5.89861 21.3971H19.1018C19.5371 21.3971 19.881 21.0277 19.8499 20.5935L19.1335 10.5935C19.1054 10.2011 18.7789 9.89713 18.3855 9.89713H6.61496Z" fill="#006FFD"/>
</mask>
<g mask="url(#mask0_742_530)">
<rect x="0.5" y="0.199951" width="24" height="24" fill="#263238"/>
</g>
</svg>
